<svg width="52" height="52" viewBox="0 0 52 52" fill="none" xmlns="http://www.w3.org/2000/svg">
<rect width="52" height="52" rx="5" fill="#F5F5F5"/>
<path d="M12.4727 24.1092L12.9091 23.6728V34.7274C12.9091 35.6001 13.4909 36.182 14.3637 36.182H31.8183C32.691 36.182 33.2729 35.6001 33.2729 34.7274V23.6728L33.7092 24.1092C34.291 24.691 35.1638 24.691 35.7456 24.1092C36.3274 23.5274 36.3274 22.6546 35.7456 22.0728C32.2547 18.5819 27.6001 13.9273 24.1092 10.4364C23.5273 9.85454 22.6546 9.85454 22.0728 10.4364C18.5819 13.9273 13.7818 18.7273 10.4364 22.0728C9.85454 22.6546 9.85454 23.5274 10.4364 24.1092C11.0182 24.691 11.8909 24.691 12.4727 24.1092ZM23.091 13.4909L30.3638 20.7637V33.2729H15.8182V20.7637L23.091 13.4909Z" fill="#FF7F03"/>
<path d="M34.7274 36.1846C33.8547 36.1846 33.2729 36.7664 33.2729 37.6391H12.9091C12.9091 36.7664 12.3273 36.1846 11.4546 36.1846C10.5818 36.1846 10 36.7664 10 37.6391V40.5482C10 41.421 10.5818 42.0028 11.4546 42.0028C12.3273 42.0028 12.9091 41.421 12.9091 40.5482H33.2729C33.2729 41.421 33.8547 42.0028 34.7274 42.0028C35.6001 42.0028 36.182 41.421 36.182 40.5482V37.6391C36.182 36.7664 35.6001 36.1846 34.7274 36.1846Z" fill="#FF7F03"/>
<path d="M40.5444 33.2729V12.9091C41.4172 12.9091 41.999 12.3273 41.999 11.4546C41.999 10.5818 41.4172 10 40.5444 10H37.6353C36.7626 10 36.1808 10.5818 36.1808 11.4546C36.1808 12.3273 36.7626 12.9091 37.6353 12.9091V33.2729C36.7626 33.2729 36.1808 33.8547 36.1808 34.7274C36.1808 35.6001 36.7626 36.182 37.6353 36.182H40.5444C41.4172 36.182 41.999 35.6001 41.999 34.7274C41.999 33.8547 41.4172 33.2729 40.5444 33.2729Z" fill="#FF7F03"/>
</svg>
