<svg width="52" height="52" viewBox="0 0 52 52" fill="none" xmlns="http://www.w3.org/2000/svg">
<rect width="52" height="52" rx="5" fill="#F5F5F5"/>
<path d="M40.5455 25.5557C37.7818 25.5557 20.7636 25.5557 14.3636 25.5557V18.0557C14.3636 17.1557 14.9455 16.5557 15.8182 16.5557C16.6909 16.5557 17.2727 17.1557 17.2727 18.0557V19.5557C17.2727 20.4557 17.8545 21.0557 18.7273 21.0557C19.6 21.0557 20.1818 20.4557 20.1818 19.5557V18.0557C20.1818 15.5057 18.2909 13.5557 15.8182 13.5557C13.3455 13.5557 11.4545 15.5057 11.4545 18.0557V25.5557C10.5818 25.5557 10 26.1557 10 27.0557C10 27.9557 10.5818 28.5557 11.4545 28.5557H11.6C11.8909 30.6557 12.7636 32.6057 14.2182 34.1057L13.3455 35.0057C12.7636 35.6057 12.7636 36.5057 13.3455 37.1057C13.9273 37.7057 14.8 37.7057 15.3818 37.1057L16.4 36.0557C18 36.9557 19.7455 37.5557 21.6364 37.5557H30.3636C32.2545 37.5557 34 36.9557 35.6 36.0557L36.6182 37.1057C37.2 37.7057 38.0727 37.7057 38.6545 37.1057C39.2364 36.5057 39.2364 35.6057 38.6545 35.0057L37.7818 34.1057C39.0909 32.6057 40.1091 30.6557 40.4 28.5557H40.5455C41.4182 28.5557 42 27.9557 42 27.0557C42 26.1557 41.4182 25.5557 40.5455 25.5557ZM30.3636 34.5557H21.6364C18.1455 34.5557 15.2364 32.0057 14.5091 28.5557H37.4909C36.7636 32.0057 33.8545 34.5557 30.3636 34.5557Z" fill="#FF7F03"/>
</svg>
