<svg width="52" height="52" viewBox="0 0 52 52" fill="none" xmlns="http://www.w3.org/2000/svg">
<rect width="52" height="52" rx="5" fill="#F5F5F5"/>
<path d="M39.5417 27.0543V16.0174C39.5417 15.327 38.9822 14.7674 38.2917 14.7674C37.6013 14.7674 37.0417 15.327 37.0417 16.0174V18.3099C30.5044 13.4808 21.4976 13.4793 14.9583 18.3099V15.9402C14.9583 15.2498 14.3987 14.6902 13.7083 14.6902C13.0178 14.6902 12.4583 15.2498 12.4583 15.9402V27.0543C11.0544 27.3607 10 28.6126 10 30.107V35.607C10 36.2974 10.5596 36.857 11.25 36.857H13.6875V38.0652C13.6875 38.7557 14.2471 39.3152 14.9375 39.3152C15.6279 39.3152 16.1875 38.7557 16.1875 38.0652V36.857H35.8125V38.0652C35.8125 38.7557 36.3721 39.3152 37.0625 39.3152C37.7529 39.3152 38.3125 38.7557 38.3125 38.0652V36.857H40.75C41.4404 36.857 42 36.2974 42 35.607V30.107C42 28.6126 40.9456 27.3607 39.5417 27.0543ZM37.0417 21.5618V26.9818H32.1667V23.3152C32.1667 22.6248 31.6072 22.0652 30.9167 22.0652H21.0833C20.3928 22.0652 19.8333 22.6248 19.8333 23.3152V26.9818H14.9583V21.5618C21.1157 15.7723 30.7952 15.6885 37.0417 21.5618ZM22.3333 26.982V24.5652H29.6667V26.982H22.3333ZM39.5 34.357H12.5V30.107C12.5 29.7623 12.7803 29.482 13.125 29.482H38.875C39.2197 29.482 39.5 29.7623 39.5 30.107V34.357Z" fill="#FF7F03"/>
</svg>
