<svg width="52" height="52" viewBox="0 0 52 52" fill="none" xmlns="http://www.w3.org/2000/svg">
<rect width="52" height="52" rx="5" fill="#F5F5F5"/>
<g clip-path="url(#clip0_1561_12430)">
<path d="M38.3125 22.4524V16.25C38.3125 12.8037 35.5088 10 32.0625 10H19.9375C16.4912 10 13.6875 12.8037 13.6875 16.25V22.4524C11.5684 23.0073 10 24.9385 10 27.2292V34.6042C10 36.895 11.5684 38.8259 13.6875 39.3811V40.75C13.6875 41.4404 14.2471 42 14.9375 42C15.6279 42 16.1875 41.4404 16.1875 40.75V39.5417H35.8125V40.75C35.8125 41.4404 36.3721 42 37.0625 42C37.7529 42 38.3125 41.4404 38.3125 40.75V39.3809C40.4316 38.8259 42 36.895 42 34.604V27.229C42 24.9385 40.4316 23.0073 38.3125 22.4524ZM19.9375 12.5H32.0625C34.1304 12.5 35.8125 14.1821 35.8125 16.25V22.4524C33.6997 23.0056 32.135 24.9268 32.1255 27.2085H19.8745C19.865 24.9268 18.3003 23.0056 16.1875 22.4524V16.25C16.1875 14.1821 17.8696 12.5 19.9375 12.5ZM19.875 29.7083H32.125V37.0415H19.875V29.7083ZM12.5 34.6042V27.2292C12.5 25.885 13.5935 24.7917 14.9375 24.7917C16.2815 24.7917 17.375 25.885 17.375 27.2292V37.0417H14.9375C13.5935 37.0417 12.5 35.9482 12.5 34.6042ZM39.5 34.6042C39.5 35.9482 38.4065 37.0417 37.0625 37.0417H34.625V27.2292C34.625 25.885 35.7185 24.7917 37.0625 24.7917C38.4065 24.7917 39.5 25.885 39.5 27.2292V34.6042Z" fill="#FF7F03"/>
</g>
<defs>
<clipPath id="clip0_1561_12430">
<rect width="32" height="32" fill="white" transform="translate(10 10)"/>
</clipPath>
</defs>
</svg>
