<svg width="52" height="52" viewBox="0 0 52 52" fill="none" xmlns="http://www.w3.org/2000/svg">
<rect width="52" height="52" rx="5" fill="#F5F5F5"/>
<path d="M41.5636 24.9818C38.2182 21.6364 30.6546 14.0727 27.0182 10.4364C26.4364 9.85455 25.5636 9.85455 24.9818 10.4364C21.3454 14.0727 13.7818 21.6364 10.4364 24.9818C9.85455 25.5636 9.85455 26.4363 10.4364 27.0182C11.0182 27.6 11.8909 27.6 12.4728 27.0182L14.3636 25.1273V40.5454C14.3636 41.4181 14.9455 42 15.8182 42H36.1818C37.0545 42 37.6363 41.4181 37.6363 40.5454V25.1273L39.5272 27.0182C40.1091 27.6 40.9818 27.6 41.5636 27.0182C42.1455 26.4363 42.1455 25.5636 41.5636 24.9818ZM34.7273 39.0909H17.2727V22.2182L26 13.4909L34.7273 22.2182V39.0909Z" fill="#FF7F03"/>
<path d="M24.5443 23.0893C22.9443 23.5257 21.6353 24.9802 21.6353 26.7257C21.6353 28.762 23.2353 30.362 25.2716 30.362H26.7262C27.1625 30.362 27.4534 30.6529 27.4534 31.0893C27.4534 31.5257 27.1625 31.8166 26.7262 31.8166H23.0898C22.2171 31.8166 21.6353 32.3984 21.6353 33.2711C21.6353 34.1438 22.2171 34.7257 23.0898 34.7257H24.5443C24.5443 35.5984 25.1262 36.1802 25.9989 36.1802C26.8716 36.1802 27.4534 35.5984 27.4534 34.7257V34.5802C29.0534 34.2893 30.3625 32.8348 30.3625 31.0893C30.3625 29.0529 28.7625 27.4529 26.7262 27.4529H25.2716C24.8353 27.4529 24.5443 27.162 24.5443 26.7257C24.5443 26.2893 24.8353 25.9984 25.2716 25.9984H28.908C29.7807 25.9984 30.3625 25.4166 30.3625 24.5439C30.3625 23.6711 29.7807 23.0893 28.908 23.0893H27.4534C27.4534 22.2166 26.8716 21.6348 25.9989 21.6348C25.1262 21.6348 24.5443 22.2166 24.5443 23.0893Z" fill="#FF7F03"/>
</svg>
