<svg width="52" height="52" viewBox="0 0 52 52" fill="none" xmlns="http://www.w3.org/2000/svg">
<rect width="52" height="52" rx="5" fill="#F5F5F5"/>
<path d="M40.5455 21.6441C41.4182 21.6441 42 21.0619 42 20.1886V15.8221C42 15.2399 41.5636 14.6577 40.9818 14.3666L26.4364 10C26.2909 10 26.1455 10 26 10H17.2727C17.1273 10 16.6909 10.1456 16.4 10.2911L10.5818 14.6577C10.1454 14.9488 10 15.3854 10 15.8221V20.1886C10 21.0619 10.5818 21.6441 11.4545 21.6441H15.8182V40.5659C15.8182 41.8759 17.4182 42.4581 18.2909 41.5847L21.6364 38.2371L24.9818 41.5847C25.8546 42.4581 27.4545 41.8759 27.4545 40.5659V21.6441H36.1818V30.3773H34.7273C33.8545 30.3773 33.2727 30.9595 33.2727 31.8328V37.6548C33.2727 38.5282 33.8545 39.1104 34.7273 39.1104H40.5455C41.4182 39.1104 42 38.5282 42 37.6548V31.8328C42 30.9595 41.4182 30.3773 40.5455 30.3773H39.0909V21.6441H40.5455ZM39.0909 36.1993H36.1818V33.2883H39.0909V36.1993ZM18.7273 30.9595L21.6364 28.0484L24.5455 30.9595V31.2506L21.6364 34.1616L18.7273 31.2506V30.9595ZM18.7273 26.884V25.1374L19.6 26.0107L18.7273 26.884ZM23.6727 26.0107L24.5455 25.1374V26.884L23.6727 26.0107ZM24.5455 12.911V18.7331H18.7273V12.911H24.5455ZM23.9636 21.6441L21.6364 23.973L19.3091 21.6441H23.9636ZM12.9091 18.7331V16.5498L15.8182 14.3666V18.7331H12.9091ZM18.7273 37.0726V35.326L19.6 36.1993L18.7273 37.0726ZM24.5455 35.326V37.0726L23.6727 36.1993L24.5455 35.326ZM27.4545 13.3477L39.0909 16.8409V18.7331H27.4545V13.3477Z" fill="#FF7F03"/>
</svg>
