<svg width="28" height="28" viewBox="0 0 28 28" fill="none" xmlns="http://www.w3.org/2000/svg">
<path d="M24.7 13.3C22.4 11 17.2 5.8 14.7 3.3C14.3 2.9 13.7 2.9 13.3 3.3C10.8 5.8 5.6 11 3.3 13.3C2.9 13.7 2.9 14.3 3.3 14.7C3.7 15.1 4.29999 15.1 4.69999 14.7L6 13.4V24C6 24.6 6.4 25 7 25H21C21.6 25 22 24.6 22 24V13.4L23.3 14.7C23.7 15.1 24.3 15.1 24.7 14.7C25.1 14.3 25.1 13.7 24.7 13.3ZM20 23H8V11.4L14 5.40001L20 11.4V23Z" fill="black"/>
<path d="M15 15C15 14.4 14.6 14 14 14H13C12.4 14 12 14.4 12 15C12 15.6 12.4 16 13 16V19C12.4 19 12 19.4 12 20C12 20.6 12.4 21 13 21H15C15.6 21 16 20.6 16 20C16 19.4 15.6 19 15 19V15Z" fill="black"/>
<path d="M14 13C14.5523 13 15 12.5523 15 12C15 11.4477 14.5523 11 14 11C13.4477 11 13 11.4477 13 12C13 12.5523 13.4477 13 14 13Z" fill="black"/>
</svg>
