<svg width="28" height="28" viewBox="0 0 28 28" fill="none" xmlns="http://www.w3.org/2000/svg">
<path d="M10.9998 6.27272C10.6362 5.90909 10.0908 5.90909 9.72715 6.27272L4.27272 11.7271C4.09091 11.909 4 12.0908 4 12.3635V21.4542C4 21.9996 4.36363 22.3633 4.90907 22.3633H15.8179C16.3634 22.3633 16.727 21.9996 16.727 21.4542V12.3635C16.727 12.0908 16.6361 11.909 16.4543 11.7271L10.9998 6.27272ZM14.9089 20.5451H5.81814V12.7271L10.3635 8.18177L14.9089 12.7271V20.5451Z" fill="#FF7F03"/>
<path d="M15.5454 6.27272C15.1818 5.90909 14.6363 5.90909 14.2727 6.27272C13.9091 6.63635 13.9091 7.18179 14.2727 7.54542L18.5454 11.8181V21.4542C18.5454 21.9996 18.909 22.3633 19.4544 22.3633C19.9999 22.3633 20.3635 21.9996 20.3635 21.4542V11.4544C20.3635 11.1817 20.2726 10.9999 20.0908 10.8181L15.5454 6.27272Z" fill="#FF7F03"/>
<path d="M23.7276 9.90901L20.0913 6.27272C19.7277 5.90909 19.1822 5.90909 18.8186 6.27272C18.455 6.63635 18.455 7.18179 18.8186 7.54542L22.1822 10.909V21.4542C22.1822 21.9996 22.5458 22.3633 23.0913 22.3633C23.6367 22.3633 24.0003 21.9996 24.0003 21.4542V10.5454C24.0003 10.2726 23.9094 10.0908 23.7276 9.90901Z" fill="#FF7F03"/>
</svg>
