<svg width="40" height="40" viewBox="0 0 40 40" fill="none" xmlns="http://www.w3.org/2000/svg">
<path d="M20 10C16.6916 10 14 12.6916 14 16C14 19.3084 16.6916 22 20 22C23.3084 22 26 19.3084 26 16C26 12.6916 23.3084 10 20 10ZM20 20C17.7944 20 16 18.2056 16 16C16 13.7944 17.7944 12 20 12C22.2056 12 24 13.7944 24 16C24 18.2056 22.2056 20 20 20ZM20 4C13.3726 4 8 9.37256 8 16C8 20.8383 9.68563 22.1894 18.7668 35.3544C19.3626 36.2151 20.6373 36.2153 21.2333 35.3544C30.3144 22.1894 32 20.8383 32 16C32 9.37256 26.6274 4 20 4ZM20 33.6207C11.2941 21.0305 10 20.0309 10 16C10 13.3289 11.0402 10.8177 12.9289 8.92894C14.8177 7.04019 17.3289 6 20 6C22.6711 6 25.1823 7.04019 27.0711 8.92894C28.9598 10.8177 30 13.3289 30 16C30 20.0306 28.7067 21.0294 20 33.6207Z" fill="black"/>
</svg>
