<svg width="28" height="28" viewBox="0 0 28 28" fill="none" xmlns="http://www.w3.org/2000/svg">
<path d="M19.25 13.3873V13.9123C19.25 14.2623 19.075 14.4373 18.725 14.4373H14.4375V18.7248C14.4375 19.0748 14.2625 19.2498 13.9125 19.2498H13.3875C13.0375 19.2498 12.8625 19.0748 12.8625 18.7248V14.4373H8.57499C8.22499 14.4373 8.04999 14.2623 8.04999 13.9123V13.3873C8.04999 13.0373 8.22499 12.8623 8.57499 12.8623H12.8625V8.5748C12.8625 8.2248 13.0375 8.0498 13.3875 8.0498H13.9125C14.2625 8.0498 14.4375 8.2248 14.4375 8.5748V12.8623H18.725C19.075 12.8623 19.25 13.0373 19.25 13.3873ZM21.3062 5.99355C23.4354 8.09355 24.5 10.6456 24.5 13.6498C24.5 16.654 23.4354 19.2206 21.3062 21.3498C19.2062 23.4498 16.6542 24.4998 13.65 24.4998C10.6458 24.4998 8.07915 23.4498 5.94999 21.3498C3.84999 19.2206 2.79999 16.654 2.79999 13.6498C2.79999 10.6456 3.84999 8.09355 5.94999 5.99355C8.07915 3.86439 10.6458 2.7998 13.65 2.7998C16.6542 2.7998 19.2062 3.86439 21.3062 5.99355ZM23.1 13.6498C23.1 11.0248 22.1667 8.79355 20.3 6.95605C18.4625 5.11855 16.2458 4.1998 13.65 4.1998C11.025 4.1998 8.79374 5.13314 6.95624 6.9998C5.11874 8.8373 4.19999 11.054 4.19999 13.6498C4.19999 16.2748 5.11874 18.5061 6.95624 20.3436C8.8229 22.1811 11.0542 23.0998 13.65 23.0998C16.275 23.0998 18.5062 22.1811 20.3437 20.3436C22.1812 18.4769 23.1 16.2456 23.1 13.6498Z" fill="#FF7F03"/>
</svg>
