<svg width="40" height="40" viewBox="0 0 40 40" fill="none" xmlns="http://www.w3.org/2000/svg">
<rect width="40" height="40" rx="3" fill="#F5F5F5"/>
<path d="M12.3909 18.9363L12.6364 18.6909V24.909C12.6364 25.4 12.9636 25.7272 13.4545 25.7272H23.2727C23.7636 25.7272 24.0909 25.4 24.0909 24.909V18.6909L24.3363 18.9363C24.6636 19.2636 25.1545 19.2636 25.4818 18.9363C25.809 18.6091 25.809 18.1182 25.4818 17.7909C23.5181 15.8273 20.9 13.2091 18.9363 11.2455C18.6091 10.9182 18.1182 10.9182 17.7909 11.2455C15.8273 13.2091 13.1273 15.9091 11.2455 17.7909C10.9182 18.1182 10.9182 18.6091 11.2455 18.9363C11.5727 19.2636 12.0636 19.2636 12.3909 18.9363ZM18.3636 12.9636L22.4545 17.0545V24.0909H14.2727V17.0545L18.3636 12.9636Z" fill="#FF7F03"/>
<path d="M24.909 25.7285C24.4181 25.7285 24.0909 26.0558 24.0909 26.5467H12.6364C12.6364 26.0558 12.3091 25.7285 11.8182 25.7285C11.3273 25.7285 11 26.0558 11 26.5467V28.1831C11 28.674 11.3273 29.0012 11.8182 29.0012C12.3091 29.0012 12.6364 28.674 12.6364 28.1831H24.0909C24.0909 28.674 24.4181 29.0012 24.909 29.0012C25.4 29.0012 25.7272 28.674 25.7272 28.1831V26.5467C25.7272 26.0558 25.4 25.7285 24.909 25.7285Z" fill="#FF7F03"/>
<path d="M28.1816 24.0909V12.6364C28.6726 12.6364 28.9998 12.3091 28.9998 11.8182C28.9998 11.3273 28.6726 11 28.1816 11H26.5453C26.0544 11 25.7271 11.3273 25.7271 11.8182C25.7271 12.3091 26.0544 12.6364 26.5453 12.6364V24.0909C26.0544 24.0909 25.7271 24.4181 25.7271 24.909C25.7271 25.4 26.0544 25.7272 26.5453 25.7272H28.1816C28.6726 25.7272 28.9998 25.4 28.9998 24.909C28.9998 24.4181 28.6726 24.0909 28.1816 24.0909Z" fill="#FF7F03"/>
</svg>
