<svg width="40" height="40" viewBox="0 0 40 40" fill="none" xmlns="http://www.w3.org/2000/svg">
<rect width="40" height="40" rx="3" fill="#F5F5F5"/>
<path d="M28.1818 19.75C26.6273 19.75 17.0545 19.75 13.4545 19.75V15.5312C13.4545 15.025 13.7818 14.6875 14.2727 14.6875C14.7636 14.6875 15.0909 15.025 15.0909 15.5312V16.375C15.0909 16.8812 15.4182 17.2188 15.9091 17.2188C16.4 17.2188 16.7273 16.8812 16.7273 16.375V15.5312C16.7273 14.0969 15.6636 13 14.2727 13C12.8818 13 11.8182 14.0969 11.8182 15.5312V19.75C11.3273 19.75 11 20.0875 11 20.5938C11 21.1 11.3273 21.4375 11.8182 21.4375H11.9C12.0636 22.6187 12.5545 23.7156 13.3727 24.5594L12.8818 25.0656C12.5545 25.4031 12.5545 25.9094 12.8818 26.2469C13.2091 26.5844 13.7 26.5844 14.0273 26.2469L14.6 25.6562C15.5 26.1625 16.4818 26.5 17.5455 26.5H22.4545C23.5182 26.5 24.5 26.1625 25.4 25.6562L25.9727 26.2469C26.3 26.5844 26.7909 26.5844 27.1182 26.2469C27.4455 25.9094 27.4455 25.4031 27.1182 25.0656L26.6273 24.5594C27.3636 23.7156 27.9364 22.6187 28.1 21.4375H28.1818C28.6727 21.4375 29 21.1 29 20.5938C29 20.0875 28.6727 19.75 28.1818 19.75ZM22.4545 24.8125H17.5455C15.5818 24.8125 13.9455 23.3781 13.5364 21.4375H26.4636C26.0545 23.3781 24.4182 24.8125 22.4545 24.8125Z" fill="#FF7F03"/>
</svg>
