<svg width="40" height="40" viewBox="0 0 40 40" fill="none" xmlns="http://www.w3.org/2000/svg">
<rect width="40" height="40" rx="3" fill="#F5F5F5"/>
<path d="M27.6172 20.0305V13.8223C27.6172 13.4339 27.3025 13.1192 26.9141 13.1192C26.5257 13.1192 26.211 13.4339 26.211 13.8223V15.1118C22.5337 12.3954 17.4674 12.3946 13.789 15.1118V13.7789C13.789 13.3905 13.4743 13.0758 13.0859 13.0758C12.6975 13.0758 12.3828 13.3905 12.3828 13.7789V20.0305C11.5931 20.2029 11 20.9071 11 21.7477V24.8414C11 25.2298 11.3148 25.5446 11.7031 25.5446H13.0742V26.2242C13.0742 26.6126 13.389 26.9273 13.7773 26.9273C14.1657 26.9273 14.4805 26.6126 14.4805 26.2242V25.5446H25.5195V26.2242C25.5195 26.6126 25.8343 26.9273 26.2227 26.9273C26.611 26.9273 26.9258 26.6126 26.9258 26.2242V25.5446H28.2969C28.6852 25.5446 29 25.2298 29 24.8414V21.7477C29 20.9071 28.4069 20.2029 27.6172 20.0305ZM26.211 16.941V19.9897H23.4688V17.9273C23.4688 17.539 23.154 17.2242 22.7657 17.2242H17.2343C16.846 17.2242 16.5312 17.539 16.5312 17.9273V19.9897H13.789V16.941C17.2526 13.6844 22.6973 13.6373 26.211 16.941ZM17.9375 19.9899V18.6305H22.0625V19.9899H17.9375ZM27.5938 24.1383H12.4062V21.7477C12.4062 21.5538 12.5639 21.3961 12.7578 21.3961H27.2422C27.4361 21.3961 27.5938 21.5538 27.5938 21.7477V24.1383Z" fill="#FF7F03"/>
</svg>
