<svg width="90" height="90" viewBox="0 0 90 90" fill="none" xmlns="http://www.w3.org/2000/svg">
<path d="M45 17.5781C41.3978 17.5743 37.8303 18.281 34.5016 19.6578C31.1729 21.0345 28.1485 23.0543 25.6013 25.6014C23.0542 28.1485 21.0345 31.1729 19.6578 34.5016C18.281 37.8303 17.5743 41.3979 17.5781 45C17.5781 60.1205 29.8795 72.4219 45 72.4219C60.1205 72.4219 72.4219 60.1205 72.4219 45C72.4219 29.8795 60.1205 17.5781 45 17.5781ZM45 70.3125C31.043 70.3125 19.6875 58.957 19.6875 45C19.6837 41.6749 20.3358 38.3816 21.6065 35.3088C22.8772 32.236 24.7415 29.4441 27.0928 27.0928C29.444 24.7416 32.236 22.8772 35.3088 21.6065C38.3816 20.3358 41.6748 19.6837 45 19.6875C58.957 19.6875 70.3125 31.043 70.3125 45C70.3125 58.957 58.957 70.3125 45 70.3125Z" fill="#0A2C3B"/>
<path d="M45.0002 33.0454C46.4256 33.0471 47.7922 33.6141 48.8002 34.6221C49.8081 35.63 50.3751 36.9966 50.3768 38.4221C50.3768 38.7018 50.4879 38.9701 50.6857 39.1678C50.8835 39.3656 51.1517 39.4768 51.4315 39.4768C51.7112 39.4768 51.9795 39.3656 52.1772 39.1678C52.375 38.9701 52.4862 38.7018 52.4862 38.4221C52.4837 36.6202 51.8323 34.8795 50.6512 33.5186C49.4702 32.1578 47.8385 31.2679 46.0548 31.0118V28.457C46.0548 28.1773 45.9437 27.909 45.7459 27.7113C45.5481 27.5135 45.2799 27.4023 45.0002 27.4023C44.7204 27.4023 44.4522 27.5135 44.2544 27.7113C44.0566 27.909 43.9455 28.1773 43.9455 28.457V31.0118C42.0707 31.2787 40.3667 32.2463 39.1769 33.7195C37.9871 35.1928 37.3999 37.0623 37.5336 38.9513C37.6674 40.8402 38.5121 42.6083 39.8976 43.8993C41.2831 45.1902 43.1064 45.908 45.0002 45.9081C46.4254 45.9008 47.7952 46.4597 48.8084 47.4621C49.8217 48.4644 50.3954 49.8281 50.4035 51.2533C50.4116 52.6786 49.8534 54.0487 48.8517 55.0625C47.8499 56.0763 46.4865 56.6508 45.0613 56.6597C45.0408 56.6585 45.0207 56.6566 45.0002 56.6566C44.9796 56.6566 44.9596 56.6585 44.939 56.6597C43.5244 56.6422 42.1735 56.0684 41.1787 55.0625C40.184 54.0566 39.6253 52.6994 39.6235 51.2847C39.6235 51.005 39.5124 50.7367 39.3146 50.5389C39.1168 50.3411 38.8486 50.23 38.5688 50.23C38.2891 50.23 38.0209 50.3411 37.8231 50.5389C37.6253 50.7367 37.5142 51.005 37.5142 51.2847C37.5166 53.0866 38.168 54.8273 39.3491 56.1881C40.5302 57.549 42.1619 58.4389 43.9455 58.6949V61.5426C43.9455 61.8223 44.0566 62.0906 44.2544 62.2884C44.4522 62.4861 44.7204 62.5973 45.0002 62.5973C45.2799 62.5973 45.5481 62.4861 45.7459 62.2884C45.9437 62.0906 46.0548 61.8223 46.0548 61.5426V58.6949C47.9297 58.428 49.6336 57.4605 50.8235 55.9872C52.0133 54.514 52.6004 52.6445 52.4667 50.7555C52.333 48.8665 51.4882 47.0984 50.1027 45.8075C48.7172 44.5166 46.8939 43.7987 45.0002 43.7987C43.5742 43.7987 42.2066 43.2322 41.1983 42.2239C40.19 41.2156 39.6235 39.848 39.6235 38.4221C39.6235 36.9961 40.19 35.6285 41.1983 34.6202C42.2066 33.6119 43.5742 33.0454 45.0002 33.0454Z" fill="#FF7F03"/>
<path d="M35.7025 80.549C34.7661 79.9357 34.0328 79.0582 33.5957 78.0277C33.1585 76.9972 33.0372 75.8601 33.2471 74.7605C33.2924 74.5209 33.2533 74.273 33.1364 74.059C33.0195 73.8449 32.8321 73.678 32.606 73.5866C32.3799 73.4952 32.1291 73.485 31.8964 73.5577C31.6636 73.6304 31.4632 73.7815 31.3293 73.9853C30.716 74.9218 29.8385 75.6551 28.808 76.0923C27.7775 76.5295 26.6404 76.6508 25.5408 76.441C25.3012 76.3957 25.0533 76.4348 24.8392 76.5516C24.6252 76.6685 24.4583 76.856 24.3669 77.0821C24.2755 77.3081 24.2653 77.5589 24.338 77.7917C24.4107 78.0245 24.5618 78.2249 24.7656 78.3588C25.7021 78.972 26.4354 79.8495 26.8726 80.8801C27.3098 81.9106 27.4311 83.0477 27.2213 84.1473C27.1759 84.3869 27.215 84.6348 27.3319 84.8488C27.4488 85.0629 27.6362 85.2298 27.8623 85.3212C28.0884 85.4126 28.3392 85.4228 28.572 85.3501C28.8048 85.2774 29.0052 85.1263 29.1391 84.9225C29.7525 83.9862 30.63 83.253 31.6605 82.8159C32.691 82.3787 33.828 82.2572 34.9275 82.4668C35.1671 82.5121 35.4151 82.473 35.6291 82.3561C35.8431 82.2393 36.01 82.0518 36.1014 81.8257C36.1928 81.5996 36.203 81.3489 36.1304 81.1161C36.0577 80.8833 35.9065 80.6829 35.7027 80.549H35.7025ZM29.3126 81.7336C29.1084 80.5773 28.644 79.4826 27.9545 78.5323C29.1107 78.328 30.2054 77.8636 31.1558 77.1742C31.3599 78.3305 31.8243 79.4252 32.5139 80.3755C31.3576 80.5798 30.263 81.0442 29.3126 81.7336Z" fill="#0A2C3B"/>
<path d="M80.6134 16.8948C78.9759 16.5704 77.4715 15.767 76.2911 14.5866C75.1107 13.4062 74.3073 11.9018 73.9829 10.2643C73.9352 10.0251 73.806 9.80989 73.6175 9.65522C73.4289 9.50055 73.1925 9.41602 72.9486 9.41602C72.7047 9.41602 72.4684 9.50055 72.2798 9.65522C72.0912 9.80989 71.962 10.0251 71.9143 10.2643C71.5899 11.9018 70.7865 13.4062 69.6061 14.5866C68.4257 15.767 66.9214 16.5704 65.2838 16.8948C65.0447 16.9425 64.8294 17.0717 64.6748 17.2602C64.5201 17.4488 64.4355 17.6852 64.4355 17.9291C64.4355 18.173 64.5201 18.4093 64.6748 18.5979C64.8294 18.7865 65.0447 18.9157 65.2838 18.9634C66.9214 19.2878 68.4257 20.0912 69.6061 21.2716C70.7865 22.452 71.5899 23.9563 71.9143 25.5938C71.962 25.833 72.0912 26.0483 72.2798 26.2029C72.4684 26.3576 72.7047 26.4421 72.9486 26.4421C73.1925 26.4421 73.4289 26.3576 73.6175 26.2029C73.806 26.0483 73.9352 25.833 73.9829 25.5938C74.3073 23.9563 75.1107 22.452 76.2911 21.2716C77.4715 20.0912 78.9759 19.2878 80.6134 18.9634C80.8526 18.9157 81.0678 18.7865 81.2225 18.5979C81.3771 18.4093 81.4617 18.173 81.4617 17.9291C81.4617 17.6852 81.3771 17.4488 81.2225 17.2602C81.0678 17.0717 80.8526 16.9425 80.6134 16.8948ZM72.9493 22.2798C71.9651 20.4284 70.45 18.9133 68.5986 17.9291C70.45 16.9449 71.9651 15.4298 72.9493 13.5783C73.9335 15.4298 75.4486 16.9449 77.3001 17.9291C75.4486 18.9133 73.9335 20.4284 72.9493 22.2798Z" fill="#0A2C3B"/>
<path d="M20.672 65.9378C19.0344 65.6133 17.5301 64.81 16.3497 63.6296C15.1693 62.4491 14.3659 60.9448 14.0415 59.3073C13.9938 59.0681 13.8646 58.8529 13.676 58.6982C13.4875 58.5435 13.2511 58.459 13.0072 58.459C12.7633 58.459 12.5269 58.5435 12.3384 58.6982C12.1498 58.8529 12.0206 59.0681 11.9729 59.3073C11.6485 60.9448 10.8451 62.4491 9.66471 63.6296C8.4843 64.81 6.97997 65.6133 5.34244 65.9378C5.10326 65.9855 4.88801 66.1146 4.73334 66.3032C4.57867 66.4918 4.49414 66.7282 4.49414 66.9721C4.49414 67.216 4.57867 67.4523 4.73334 67.6409C4.88801 67.8295 5.10326 67.9586 5.34244 68.0064C6.97997 68.3308 8.4843 69.1341 9.66471 70.3145C10.8451 71.495 11.6485 72.9993 11.9729 74.6368C12.0206 74.876 12.1498 75.0912 12.3384 75.2459C12.5269 75.4006 12.7633 75.4851 13.0072 75.4851C13.2511 75.4851 13.4875 75.4006 13.676 75.2459C13.8646 75.0912 13.9938 74.876 14.0415 74.6368C14.3659 72.9993 15.1693 71.495 16.3497 70.3145C17.5301 69.1341 19.0344 68.3308 20.672 68.0064C20.9112 67.9586 21.1264 67.8295 21.2811 67.6409C21.4357 67.4523 21.5203 67.216 21.5203 66.9721C21.5203 66.7282 21.4357 66.4918 21.2811 66.3032C21.1264 66.1146 20.9112 65.9855 20.672 65.9378ZM13.0079 71.3228C12.0237 69.4713 10.5086 67.9562 8.65715 66.9721C10.5086 65.9879 12.0237 64.4728 13.0079 62.6213C13.9921 64.4728 15.5072 65.9879 17.3587 66.9721C15.5072 67.9562 13.9921 69.4713 13.0079 71.3228Z" fill="#0A2C3B"/>
</svg>
