<svg width="32" height="32" viewBox="0 0 32 32" fill="none" xmlns="http://www.w3.org/2000/svg">
<path d="M21.4394 8.2197L20.9974 8.66158C20.7046 8.95445 20.7046 9.42933 20.9974 9.72227L26.2429 14.9375H2.75C2.33581 14.9375 2 15.2733 2 15.6875V16.3125C2 16.7267 2.33581 17.0625 2.75 17.0625H26.2429L20.9974 22.2778C20.7046 22.5706 20.7046 23.0455 20.9974 23.3385L21.4394 23.7803C21.7323 24.0732 22.2071 24.0732 22.5 23.7803L29.7803 16.5303C30.0732 16.2375 30.0732 15.7626 29.7803 15.4696L22.5 8.2197C22.2071 7.92677 21.7323 7.92677 21.4394 8.2197Z" fill="black"/>
</svg>
