<svg width="52" height="52" viewBox="0 0 52 52" fill="none" xmlns="http://www.w3.org/2000/svg">
<g clip-path="url(#clip0_1560_12626)">
<path d="M38.5736 28.2695C33.1763 28.2695 28.8008 32.645 28.8008 38.0428C28.8008 43.4401 33.1763 47.8156 38.574 47.8156C43.9714 47.8152 48.3464 43.4397 48.3464 38.0419C48.3402 32.6475 43.968 28.2758 38.5736 28.2695ZM38.5736 46.5365C33.8826 46.5365 30.0795 42.7338 30.0795 38.0428C30.079 33.3514 33.8822 29.5486 38.5732 29.5482C43.2642 29.5482 47.0673 33.3509 47.0677 38.0419C47.0627 42.7313 43.2629 46.5315 38.5736 46.5365Z" fill="#FF7F03"/>
<path d="M38.5735 34.4832C39.3665 34.4841 40.0091 35.1267 40.01 35.9197C40.01 36.2726 40.2963 36.559 40.6493 36.559C41.0023 36.559 41.2887 36.2726 41.2887 35.9197C41.287 34.6672 40.43 33.5775 39.2129 33.2811V32.7038C39.2129 32.3504 38.9265 32.0645 38.5735 32.0645C38.2206 32.0645 37.9342 32.3504 37.9342 32.7038V33.2815C36.5981 33.6054 35.7148 34.877 35.878 36.2423C36.0411 37.6071 37.1987 38.6352 38.5735 38.6352C39.3665 38.6311 40.0129 39.2708 40.0166 40.0642C40.0208 40.8571 39.381 41.5035 38.5881 41.5073C38.5831 41.5073 38.5785 41.5064 38.5735 41.5064C38.5685 41.5064 38.564 41.5073 38.559 41.5073C37.7719 41.4985 37.1383 40.8588 37.1371 40.0717C37.1371 39.7183 36.8507 39.4323 36.4977 39.4323C36.1448 39.4323 35.8584 39.7183 35.8584 40.0717C35.8605 41.3237 36.7175 42.413 37.9342 42.7094V43.382C37.9342 43.735 38.2206 44.0214 38.5735 44.0214C38.9265 44.0214 39.2129 43.735 39.2129 43.382V42.7094C40.549 42.3855 41.4327 41.1139 41.2695 39.7491C41.1063 38.3838 39.9484 37.3557 38.5735 37.3561C37.7852 37.349 37.1496 36.708 37.1496 35.9197C37.1496 35.1309 37.7852 34.4899 38.5735 34.4832Z" fill="#FF7F03"/>
<path d="M48.0678 28.5483C48.0503 28.5321 48.032 28.5171 48.0129 28.5034C46.1706 26.6761 43.838 25.422 41.2977 24.8938V18.8787H47.5242C47.801 18.8787 48.0466 18.7006 48.1323 18.4375C48.2177 18.174 48.1244 17.8856 47.9005 17.7224L41.6228 13.1526C41.6286 13.1188 41.6316 13.0851 41.6316 13.051V5.97664C41.6316 5.62326 41.3456 5.3373 40.9922 5.3373C40.6393 5.3373 40.3529 5.62326 40.3529 5.97664V12.2277L24.4581 0.655889C24.2337 0.492308 23.9298 0.492308 23.7055 0.655889L0.26305 17.7224C0.0391149 17.8856 -0.0541221 18.174 0.0312064 18.4375C0.116951 18.7006 0.362531 18.8787 0.639328 18.8787H6.86623V45.9283C6.86623 46.2812 7.1526 46.5676 7.50557 46.5676H28.2096C28.471 46.8844 28.7461 47.1891 29.0358 47.4808C29.0616 47.5204 29.0953 47.5541 29.1349 47.5803C34.3599 52.7641 42.7879 52.7641 48.0129 47.5803C48.032 47.5666 48.0503 47.5516 48.0678 47.5358C48.0836 47.5183 48.0986 47.5 48.1124 47.4808C53.2958 42.2558 53.2958 33.8283 48.1124 28.6033C48.0986 28.5841 48.0836 28.5658 48.0678 28.5483ZM8.14491 45.2889V18.2394C8.14491 17.8864 7.85854 17.6 7.50557 17.6H2.60397L24.0818 1.96329L45.5596 17.6H40.658C40.305 17.6 40.0186 17.8864 40.0186 18.2394V24.694C36.002 24.2586 32.0032 25.6584 29.1349 28.5034C29.0949 28.5296 29.0612 28.5637 29.035 28.6033C24.6087 33.0649 23.8774 40.0023 27.2756 45.2889H8.14491ZM50.0316 38.6808H50.7043C50.5594 41.4575 49.4631 44.0998 47.5987 46.163L47.1275 45.6923C46.8778 45.4425 46.4732 45.4425 46.2235 45.6923C45.9737 45.942 45.9737 46.3466 46.2235 46.5963L46.6947 47.0675C44.6314 48.9314 41.9895 50.0278 39.2128 50.1726V49.5C39.2128 49.147 38.9264 48.8607 38.5735 48.8607C38.2205 48.8607 37.9341 49.147 37.9341 49.5V50.1726C35.1574 50.0278 32.5156 48.9314 30.4523 47.0675L30.9235 46.5963C31.1732 46.3466 31.1732 45.942 30.9235 45.6923C30.6737 45.4425 30.2687 45.4425 30.0194 45.6923L29.5482 46.163C27.6839 44.0998 26.5875 41.4575 26.4427 38.6808H27.1153C27.4683 38.6808 27.7546 38.3948 27.7546 38.0414C27.7546 37.6885 27.4683 37.4021 27.1153 37.4021H26.4427C26.5875 34.6258 27.6843 31.9839 29.5482 29.9207L30.0194 30.3918C30.1801 30.5554 30.4169 30.6203 30.6388 30.5617C30.8606 30.5026 31.0342 30.3294 31.0929 30.1075C31.152 29.8853 31.087 29.6489 30.9235 29.4878L30.4523 29.0166C32.5151 27.1527 35.1574 26.0559 37.9341 25.9115V26.5837C37.9341 26.9367 38.2205 27.223 38.5735 27.223C38.9264 27.223 39.2128 26.9367 39.2128 26.5837V25.9115C41.9895 26.0559 44.6318 27.1523 46.6947 29.0162L46.2235 29.4874C46.0599 29.6484 45.9954 29.8849 46.0541 30.1071C46.1128 30.329 46.2863 30.5021 46.5082 30.5612C46.7305 30.6199 46.9669 30.555 47.128 30.3914L47.5987 29.9202C49.4631 31.9835 50.5594 34.6254 50.7043 37.4021H50.0316C49.6787 37.4021 49.3923 37.6885 49.3923 38.0414C49.3923 38.3948 49.6787 38.6808 50.0316 38.6808Z" fill="#0A2C3B"/>
</g>
<defs>
<clipPath id="clip0_1560_12626">
<rect width="52" height="52" fill="white"/>
</clipPath>
</defs>
</svg>
