<svg width="30" height="30" viewBox="0 0 30 30" fill="none" xmlns="http://www.w3.org/2000/svg">
<path d="M23.75 6H21.5V3.5625C21.5 3.25313 21.2469 3 20.9375 3H20.5625C20.2531 3 20 3.25313 20 3.5625V6H11V3.5625C11 3.25313 10.7469 3 10.4375 3H10.0625C9.75313 3 9.5 3.25313 9.5 3.5625V6H7.25C6.00781 6 5 7.00781 5 8.25V24.75C5 25.9922 6.00781 27 7.25 27H23.75C24.9922 27 26 25.9922 26 24.75V8.25C26 7.00781 24.9922 6 23.75 6ZM7.25 7.5H23.75C24.1625 7.5 24.5 7.8375 24.5 8.25V10.5H6.5V8.25C6.5 7.8375 6.8375 7.5 7.25 7.5ZM23.75 25.5H7.25C6.8375 25.5 6.5 25.1625 6.5 24.75V12H24.5V24.75C24.5 25.1625 24.1625 25.5 23.75 25.5ZM11.9375 18H10.0625C9.75313 18 9.5 17.7469 9.5 17.4375V15.5625C9.5 15.2531 9.75313 15 10.0625 15H11.9375C12.2469 15 12.5 15.2531 12.5 15.5625V17.4375C12.5 17.7469 12.2469 18 11.9375 18ZM16.4375 18H14.5625C14.2531 18 14 17.7469 14 17.4375V15.5625C14 15.2531 14.2531 15 14.5625 15H16.4375C16.7469 15 17 15.2531 17 15.5625V17.4375C17 17.7469 16.7469 18 16.4375 18ZM20.9375 18H19.0625C18.7531 18 18.5 17.7469 18.5 17.4375V15.5625C18.5 15.2531 18.7531 15 19.0625 15H20.9375C21.2469 15 21.5 15.2531 21.5 15.5625V17.4375C21.5 17.7469 21.2469 18 20.9375 18ZM16.4375 22.5H14.5625C14.2531 22.5 14 22.2469 14 21.9375V20.0625C14 19.7531 14.2531 19.5 14.5625 19.5H16.4375C16.7469 19.5 17 19.7531 17 20.0625V21.9375C17 22.2469 16.7469 22.5 16.4375 22.5ZM11.9375 22.5H10.0625C9.75313 22.5 9.5 22.2469 9.5 21.9375V20.0625C9.5 19.7531 9.75313 19.5 10.0625 19.5H11.9375C12.2469 19.5 12.5 19.7531 12.5 20.0625V21.9375C12.5 22.2469 12.2469 22.5 11.9375 22.5ZM20.9375 22.5H19.0625C18.7531 22.5 18.5 22.2469 18.5 21.9375V20.0625C18.5 19.7531 18.7531 19.5 19.0625 19.5H20.9375C21.2469 19.5 21.5 19.7531 21.5 20.0625V21.9375C21.5 22.2469 21.2469 22.5 20.9375 22.5Z" fill="black"/>
</svg>
