<svg width="90" height="90" viewBox="0 0 90 90" fill="none" xmlns="http://www.w3.org/2000/svg">
<path d="M62.0558 64.7167C62.0368 64.6947 62.0166 64.6738 61.9952 64.6541C61.4745 64.0965 60.4308 63.2227 59.0027 63.2227C57.9347 63.2227 56.8617 63.7309 55.9002 64.6922L50.8447 69.7479C50.6473 69.9451 50.1852 70.4069 49.4683 70.4069C49.1595 70.4024 48.8561 70.3253 48.5826 70.1817L48.5697 70.1738C48.5288 70.1481 48.4875 70.1232 48.4467 70.1001C47.9863 69.8177 47.4799 69.5633 46.9434 69.2944L46.9127 69.2791C46.3279 68.9985 45.7576 68.6887 45.2041 68.3508C40.5764 65.4251 36.3798 61.6045 32.3747 56.671C32.3616 56.655 32.3481 56.6393 32.3344 56.6239C30.1707 53.8706 28.7638 51.5779 27.7792 49.2012C27.7717 49.1787 27.7648 49.1565 27.7583 49.1366C27.5071 48.3435 27.5027 47.7434 28.2236 47.0227C28.2387 47.0074 28.2535 46.9919 28.2679 46.9759C29.5208 45.8536 30.6682 44.7121 32.0009 43.3475C32.0185 43.3299 32.0372 43.3123 32.0558 43.2924C32.337 43.0216 32.6121 42.7429 32.8783 42.4733C33.0112 42.3388 33.1444 42.2038 33.2785 42.069C34.2981 41.0504 34.8156 39.9867 34.8156 38.9078C34.8156 37.8288 34.2984 36.7652 33.2791 35.7456L29.2491 31.7157C29.0147 31.4744 28.7808 31.2358 28.5472 31.0001C28.3131 30.7622 28.0805 30.5263 27.8527 30.2915C27.055 29.4674 26.1226 28.5119 25.1509 27.602C25.14 27.5911 25.129 27.5804 25.1179 27.5697C24.2082 26.6667 23.1667 26.1895 22.1046 26.1895C21.05 26.1895 19.9817 26.6674 19.0169 27.5714C19.0068 27.5808 18.997 27.5903 18.9875 27.5999L13.9466 32.642C12.541 34.0094 11.6882 35.8466 11.5513 37.8028C11.3118 40.7255 11.8452 43.743 13.2794 47.5833C15.5603 53.7477 19.0083 59.494 24.1337 65.6722C30.2213 72.9912 37.8009 78.9266 46.366 83.0818C49.5276 84.5924 53.7463 86.3641 58.3393 86.6564C58.606 86.6754 58.8719 86.6754 59.1064 86.6754C61.7271 86.6754 63.8393 85.7789 65.5634 83.9352C65.5767 83.9209 65.5896 83.9065 65.6021 83.8918C66.4766 82.8861 67.4031 81.9268 68.3778 81.0179C68.5051 80.8933 68.6308 80.7711 68.7551 80.6511L69.0864 80.3287C69.4445 79.9755 69.8247 79.5972 70.2017 79.194L70.2079 79.1877C72.1863 77.131 72.1736 74.8142 70.1769 72.8362L62.0558 64.7167ZM20.7133 29.3549C21.2089 28.8944 21.6896 28.6518 22.1045 28.6518C22.6116 28.6518 23.0851 29.0188 23.3931 29.3268C23.4024 29.3361 23.4117 29.3444 23.4211 29.354C23.4386 29.3716 23.4562 29.3883 23.4738 29.405C24.3089 30.1869 25.1212 31.0095 26.0845 32.0048C26.3179 32.2453 26.5542 32.4863 26.7934 32.7278C27.0242 32.9622 27.2562 33.1988 27.4895 33.4378L27.502 33.4506L31.5379 37.4866C32.0792 38.0276 32.3537 38.5061 32.3537 38.9085C32.3537 39.3108 32.0793 39.7882 31.5379 40.3291C31.4209 40.4462 31.3052 40.5633 31.1895 40.6807L20.2888 29.7798L20.7133 29.3549ZM63.7469 82.2739C62.484 83.6152 61.0514 84.2138 59.1062 84.2138C58.903 84.2138 58.6926 84.2138 58.504 84.2004C54.3238 83.9343 50.3884 82.2758 47.4328 80.8634C39.1849 76.8609 31.886 71.1444 26.0239 64.0958C21.0844 58.1426 17.7688 52.6241 15.586 46.7251C14.2834 43.2371 13.7953 40.5471 14.0039 38.0063C14.0939 36.631 14.6939 35.3387 15.6863 34.3823L18.5493 31.5195L29.4555 42.4257C28.4711 43.4201 27.5669 44.3005 26.6066 45.1599L26.5934 45.1719C26.5301 45.2252 26.4717 45.284 26.4188 45.3477C24.5781 47.2473 25.2047 49.2247 25.4134 49.8828C25.4309 49.9405 25.4505 49.998 25.471 50.0554C25.4775 50.073 25.4846 50.0906 25.4918 50.1082C26.5721 52.7273 28.0972 55.2201 30.4365 58.191C30.4559 58.2156 30.4763 58.2394 30.4977 58.2625C34.6637 63.3869 39.0445 67.3671 43.8878 70.429C44.511 70.8117 45.1533 71.1623 45.8123 71.4793L45.8397 71.4932C46.3366 71.7423 46.8065 71.9777 47.1805 72.2097C47.2016 72.2227 47.2231 72.2352 47.2449 72.247L47.2625 72.2579C47.3219 72.2951 47.3822 72.331 47.4535 72.3677C48.076 72.6914 48.7665 72.8625 49.4682 72.8668C50.6201 72.8668 51.6684 72.4027 52.5848 71.4869L55.5519 68.5197L66.468 79.438C65.5137 80.337 64.6055 81.2838 63.7469 82.2746V82.2739ZM68.4443 77.4705C68.4344 77.4803 68.4249 77.4903 68.4153 77.5005C68.3504 77.5708 68.2847 77.639 68.2187 77.7078L57.2924 66.7805L57.6402 66.4325C57.9201 66.1528 58.469 65.6836 59.0027 65.6836C59.5476 65.6836 60.0359 66.1567 60.2209 66.3602C60.2369 66.3778 60.2548 66.3954 60.2736 66.4142L60.2752 66.4159C60.2905 66.4307 60.3059 66.4449 60.3209 66.4581C60.3 66.4397 60.2877 66.4284 60.2755 66.4163L60.2915 66.4325L68.4413 74.5804C69.4768 75.6067 69.4784 76.3912 68.4443 77.4712V77.4705Z" fill="#0A2C3B"/>
<path d="M64.4896 13.1309C64.2923 12.8224 64.0202 12.5687 63.6986 12.3935C63.3771 12.2184 63.0164 12.1273 62.6502 12.1289H49.7074C49.3407 12.1275 48.9795 12.2189 48.6577 12.3947C48.3358 12.5704 48.0636 12.8248 47.8665 13.134L43.7505 19.6467C43.6357 19.8468 43.5813 20.0759 43.5938 20.3063V33.4793C43.5938 34.6822 44.501 35.6836 45.7049 35.6836H66.6527C67.241 35.6805 67.805 35.4488 68.2255 35.0374C68.646 34.6261 68.8902 34.0674 68.9063 33.4793V20.3063C68.8935 20.0694 68.8143 19.8409 68.6777 19.6469L64.4896 13.1309ZM57.4805 14.5899H62.4987L65.3609 19.1602H57.4805V14.5899ZM49.8591 14.5899H55.0195V19.1602H46.9955L49.8591 14.5899ZM56.9531 33.2227H55.3711V26.0014L56.9531 27.0721V33.2227ZM66.4453 33.2227H59.4141V26.4059C59.4185 26.203 59.3718 26.0023 59.2782 25.8223C59.1847 25.6422 59.0474 25.4885 58.879 25.3755L54.7894 22.6983C54.6053 22.5772 54.3917 22.5086 54.1716 22.4997C53.9514 22.4909 53.733 22.5422 53.5398 22.6481C53.3466 22.7541 53.1859 22.9106 53.075 23.101C52.964 23.2914 52.9071 23.5084 52.9102 23.7287V33.2227H46.0547V21.6211H66.4453V33.2227Z" fill="#FF7F03"/>
<path d="M56.1797 3.32422C43.8699 3.32422 33.8555 13.4895 33.8555 25.9842C33.8555 35.4131 39.575 43.8021 48.1816 47.147L47.7272 58.4861C47.7168 58.749 47.7908 59.0083 47.9385 59.226C48.0862 59.4437 48.2997 59.6083 48.5478 59.6957C48.796 59.7831 49.0656 59.7887 49.3171 59.7117C49.5686 59.6346 49.7888 59.479 49.9454 59.2677L57.8612 48.5802C69.4833 47.7046 78.5037 37.8927 78.5037 25.9845C78.5039 13.4895 68.4893 3.32422 56.1797 3.32422ZM57.1533 46.1582C56.9714 46.1671 56.7937 46.2163 56.6331 46.3022C56.4725 46.3881 56.3329 46.5086 56.2245 46.655L50.3464 54.5917L50.6767 46.3484C50.6871 46.0837 50.6118 45.8226 50.462 45.6041C50.3122 45.3856 50.0958 45.2212 49.8451 45.1355C41.7531 42.37 36.3164 34.6739 36.3164 25.9842C36.3164 14.8463 45.2269 5.78516 56.1797 5.78516C67.1324 5.78516 76.043 14.8463 76.043 25.9842C76.043 36.7784 67.7461 45.6399 57.1533 46.1582Z" fill="#0A2C3B"/>
</svg>
