<svg width="52" height="52" viewBox="0 0 52 52" fill="none" xmlns="http://www.w3.org/2000/svg">
<g clip-path="url(#clip0_1560_12629)">
<path d="M6.95729 52.0001H44.9879C48.0059 51.9964 50.4516 49.5508 50.4548 46.5332V20.7265C50.4548 20.4628 50.309 20.2205 50.076 20.0965L40.9472 12.3674V10.8786C40.9472 10.6891 40.872 10.5076 40.7378 10.3739L30.5723 0.229799C30.57 0.227014 30.5667 0.225621 30.5644 0.2233C30.4089 0.0566374 30.1823 -0.0241405 29.9563 0.00649937L29.9275 0.00371393C29.9033 0.00139273 29.8797 0 29.856 0H15.4803C13.0059 0.00278545 11.0008 2.00784 10.998 4.48225V12.372L1.91749 20.0733C1.65798 20.1871 1.49039 20.4433 1.49039 20.7265V46.5332C1.4941 49.5508 3.93972 51.9964 6.95729 52.0001ZM40.9472 14.236L48.6392 20.7488L40.9472 27.2723V14.236ZM30.7608 2.43309L38.5317 10.1873H33.8164C32.1298 10.1854 30.7626 8.81826 30.7608 7.13121V2.43309ZM12.4242 4.48225C12.426 2.7952 13.7932 1.42801 15.4803 1.42615H29.3346V7.13074C29.3374 9.60515 31.3425 11.6102 33.8164 11.613H39.521V28.4817L28.5928 37.7507C27.0877 39.0339 24.8737 39.0348 23.3677 37.7525L12.4242 28.4858V4.48225ZM10.998 14.242V27.2783L3.3065 20.7655L10.998 14.242ZM2.91654 22.304L22.4462 38.8407C24.4838 40.5756 27.4791 40.5747 29.5152 38.8379L40.6876 29.3623L49.0287 22.2882V46.5327C49.0296 47.2532 48.836 47.9607 48.4688 48.581L37.0243 36.9364C36.7481 36.6555 36.2964 36.6514 36.0155 36.9276C35.7347 37.2038 35.7309 37.6555 36.0072 37.9364L47.5361 49.6664C46.817 50.2541 45.9169 50.5744 44.9879 50.574H6.95729C6.02695 50.5749 5.12493 50.2527 4.40536 49.6631L15.8716 37.935C16.0518 37.7535 16.1209 37.4889 16.0527 37.2423C15.9845 36.9954 15.789 36.8046 15.5406 36.7414C15.2923 36.6788 15.0295 36.754 14.8517 36.9383L3.47362 48.5763C3.10827 47.957 2.91607 47.2518 2.91654 46.5332V22.304Z" fill="#0A2C3B"/>
<path d="M33.4088 26.8889V18.4847H35.4803C35.7894 18.4852 36.0629 18.286 36.1585 17.9926C36.2541 17.6987 36.1497 17.377 35.8999 17.1955L26.3923 10.2732C26.1425 10.0912 25.8032 10.0912 25.5529 10.2732L16.0453 17.1955C15.796 17.377 15.6915 17.6987 15.7872 17.9926C15.8828 18.286 16.1562 18.4852 16.4649 18.4847H18.5369V26.8889C18.5369 27.2825 18.8562 27.6019 19.2499 27.6019H32.6957C33.0894 27.6019 33.4088 27.2825 33.4088 26.8889ZM31.9827 17.7716V26.1758H19.963V17.7716C19.963 17.378 19.6441 17.0586 19.2499 17.0586H18.6557L25.9726 11.7319L33.2895 17.0586H32.6953C32.3016 17.059 31.9827 17.378 31.9827 17.7716Z" fill="#FF7F03"/>
<path d="M25.9728 14.5938C24.5945 14.5938 23.4771 15.7112 23.4771 17.0895C23.4771 18.4678 24.5945 19.5853 25.9728 19.5853C27.3511 19.5853 28.4686 18.4678 28.4686 17.0895C28.4676 15.7116 27.3507 14.5951 25.9728 14.5938ZM25.9728 18.1582C25.3823 18.1582 24.9032 17.6791 24.9032 17.0886C24.9032 16.4976 25.3823 16.019 25.9728 16.019C26.5638 16.019 27.0424 16.4976 27.0424 17.0886C27.0424 17.6791 26.5638 18.1577 25.9728 18.1582Z" fill="#FF7F03"/>
</g>
<defs>
<clipPath id="clip0_1560_12629">
<rect width="52" height="52" fill="white"/>
</clipPath>
</defs>
</svg>
