<svg width="50" height="50" viewBox="0 0 50 50" fill="none" xmlns="http://www.w3.org/2000/svg">
<path d="M41.25 10H8.75C6.67969 10 5 11.6797 5 13.75V36.25C5 38.3203 6.67969 40 8.75 40H41.25C43.3203 40 45 38.3203 45 36.25V13.75C45 11.6797 43.3203 10 41.25 10ZM8.75 12.5H41.25C41.9375 12.5 42.5 13.0625 42.5 13.75V16.9844C40.7891 18.4297 38.3438 20.4219 30.7344 26.4609C29.4141 27.5078 26.8125 30.0312 25 30C23.1875 30.0312 20.5781 27.5078 19.2656 26.4609C11.6563 20.4219 9.21094 18.4297 7.5 16.9844V13.75C7.5 13.0625 8.0625 12.5 8.75 12.5ZM41.25 37.5H8.75C8.0625 37.5 7.5 36.9375 7.5 36.25V20.2344C9.28125 21.6953 12.0937 23.9531 17.7109 28.4141C19.3125 29.6953 22.1406 32.5156 25 32.5C27.8438 32.5234 30.6484 29.7266 32.2891 28.4141C37.9062 23.9531 40.7188 21.6953 42.5 20.2344V36.25C42.5 36.9375 41.9375 37.5 41.25 37.5Z" fill="white"/>
</svg>
