<svg width="65" height="65" viewBox="0 0 65 65" fill="none" xmlns="http://www.w3.org/2000/svg">
<g clip-path="url(#clip0_1526_12023)">
<path d="M64.1327 11.5239H10.2309V2.83903C10.2309 2.36018 9.84242 1.97168 9.36357 1.97168C8.88472 1.97168 8.49622 2.36018 8.49622 2.83903V11.5239H0.867353C0.388502 11.5239 0 11.9118 0 12.3912C0 12.8701 0.388502 13.2586 0.867353 13.2586H8.49622V62.1081C8.49622 62.5876 8.88472 62.9755 9.36357 62.9755C9.84242 62.9755 10.2309 62.5876 10.2309 62.1081V13.2586H24.3525V17.3977C22.6297 17.741 21.2654 19.0562 20.8588 20.7643H18.0439C15.9692 20.7671 14.2882 22.4482 14.2853 24.5229V50.5434C14.2882 52.6187 15.9692 54.2997 18.0439 54.302H58.5203C60.5956 54.2997 62.2766 52.6187 62.2789 50.5434V24.5229C62.2766 22.4482 60.5956 20.7671 58.5203 20.7643H55.706C55.2994 19.0562 53.9346 17.741 52.2123 17.3977V13.2586H64.1327C64.6116 13.2586 65.0001 12.8701 65.0001 12.3912C65.0001 11.9118 64.6116 11.5239 64.1327 11.5239ZM25.2199 19.0471C26.7366 19.0471 27.9665 20.277 27.9665 21.7937C27.9665 23.3105 26.7366 24.5404 25.2199 24.5404C23.7026 24.5404 22.4732 23.3105 22.4732 21.7937C22.4749 20.2776 23.7031 19.0488 25.2199 19.0471ZM60.5442 24.5229V50.5434C60.543 51.6609 59.6378 52.5661 58.5203 52.5673H18.0439C16.9269 52.5661 16.0217 51.6609 16.0201 50.5434V24.5229C16.0217 23.4059 16.9269 22.5007 18.0439 22.499H20.7944C21.1412 24.6742 23.017 26.2745 25.2193 26.2745C27.4216 26.2745 29.2974 24.6742 29.6447 22.499H46.9195C47.2668 24.6742 49.1427 26.2745 51.3449 26.2745C53.5472 26.2745 55.4231 24.6742 55.7703 22.499H58.5203C59.6378 22.5007 60.543 23.4059 60.5442 24.5229ZM54.0915 21.7937C54.0915 23.3105 52.8622 24.5404 51.3449 24.5404C49.8282 24.5404 48.5983 23.3105 48.5983 21.7937C48.5983 20.277 49.8282 19.0471 51.3449 19.0471C52.8611 19.0488 54.0898 20.2776 54.0915 21.7937ZM50.4776 17.3977C48.7558 17.741 47.391 19.0562 46.985 20.7643H29.5798C29.1732 19.0562 27.8089 17.741 26.0867 17.3977V13.2586H50.4776V17.3977Z" fill="#0A2C3B"/>
<path d="M36.5745 36.5488C36.9359 36.5488 37.2956 36.4008 37.2956 36.1044V33.7175H38.6926C38.9981 33.7175 39.128 33.4216 39.128 33.1714C39.128 32.8755 38.9705 32.6079 38.6926 32.6079H37.2956V31.0442H39.6921C39.9694 31.0442 40.1269 30.7484 40.1269 30.4062C40.1269 30.1103 39.9965 29.7861 39.6921 29.7861H36.4819C36.1674 29.7861 35.8528 29.9341 35.8528 30.2305V36.1044C35.8528 36.4008 36.2137 36.5488 36.5745 36.5488Z" fill="#FF7F03"/>
<path d="M45.021 34.4215V31.9696C45.021 30.3783 44.0221 29.7871 42.7453 29.7871C41.4686 29.7871 40.4787 30.3795 40.4787 31.9696V34.4215C40.4787 36.0127 41.4686 36.6045 42.7453 36.6045C44.0221 36.6045 45.021 36.0127 45.021 34.4215ZM41.922 34.4215V31.9696C41.922 31.3315 42.227 31.0447 42.7459 31.0447C43.2643 31.0447 43.5788 31.3315 43.5788 31.9696V34.4215C43.5788 35.0596 43.2637 35.3464 42.7459 35.3464C42.2281 35.3464 41.922 35.0596 41.922 34.4215Z" fill="#FF7F03"/>
<path d="M47.3893 36.1042V33.8748H48.0003L49.2675 36.3357C49.3555 36.5085 49.5368 36.613 49.7305 36.6039C50.1557 36.6039 50.6368 36.2154 50.6368 35.8546C50.6379 35.7959 50.6216 35.7377 50.5905 35.688L49.4623 33.6433C50.1094 33.3937 50.5815 32.8019 50.5815 31.7657C50.5815 30.2575 49.5729 29.7854 48.3058 29.7854H46.3904C46.2735 29.7814 46.1594 29.8261 46.0759 29.9079C45.9923 29.9904 45.9454 30.1028 45.9466 30.2202V36.1036C45.9466 36.3995 46.308 36.548 46.6682 36.548C47.0279 36.548 47.3893 36.4007 47.3893 36.1042ZM47.3893 31.0441H48.3052C48.8236 31.0441 49.1381 31.257 49.1381 31.9047C49.1381 32.5523 48.8236 32.7647 48.3052 32.7647H47.3893V31.0441Z" fill="#FF7F03"/>
<path d="M39.3686 44.7459C40.0157 44.4957 40.4878 43.9033 40.4878 42.8677C40.4878 41.3594 39.4793 40.8879 38.2121 40.8879H36.2967C36.1798 40.884 36.0657 40.9286 35.9822 41.0105C35.898 41.0924 35.8517 41.2053 35.8529 41.3227V47.2062C35.8529 47.5021 36.2143 47.65 36.5745 47.65C36.9348 47.65 37.2956 47.5021 37.2956 47.2062V44.9768H37.9066L39.1738 47.4377C39.2619 47.6105 39.4431 47.715 39.6368 47.7059C40.062 47.7059 40.5431 47.3174 40.5431 46.9566C40.5442 46.8979 40.5279 46.8397 40.4968 46.79L39.3686 44.7459ZM38.2121 43.8666H37.2956V42.1466H38.2121C38.7299 42.1466 39.0445 42.3589 39.0445 43.0066C39.0445 43.6543 38.7305 43.8666 38.2121 43.8666Z" fill="#FF7F03"/>
<path d="M45.178 42.1468C45.4553 42.1468 45.6128 41.8503 45.6128 41.5081C45.6128 41.2122 45.4824 40.8887 45.178 40.8887H41.8848C41.5703 40.8887 41.2557 41.0366 41.2557 41.3325V47.2069C41.2557 47.5028 41.5703 47.6507 41.8848 47.6507H45.178C45.483 47.6507 45.6128 47.3272 45.6128 47.0313C45.6128 46.6891 45.4553 46.3926 45.178 46.3926H42.6985V44.82H44.0865C44.392 44.82 44.5213 44.5241 44.5213 44.2739C44.5213 43.9781 44.3638 43.7104 44.0865 43.7104H42.6985V42.1468H45.178Z" fill="#FF7F03"/>
<path d="M50.2483 40.8877C49.8869 40.8877 49.5266 41.0176 49.5266 41.3225V44.4678L48.028 41.6105C47.6762 40.9351 47.4819 40.8888 46.9641 40.8888C46.6027 40.8888 46.2424 41.0277 46.2424 41.3327V47.2071C46.2424 47.5035 46.6038 47.6515 46.9641 47.6515C47.3244 47.6515 47.6852 47.5035 47.6852 47.2071V44.0612L49.4431 47.2618C49.6187 47.586 49.9151 47.6503 50.2483 47.6503C50.6097 47.6503 50.97 47.5024 50.97 47.2065V41.3231C50.97 41.0176 50.6091 40.8877 50.2483 40.8877Z" fill="#FF7F03"/>
<path d="M51.9785 40.8877C51.673 40.8877 51.5437 41.2197 51.5437 41.5258C51.5437 41.8776 51.7007 42.1825 51.9785 42.1825H53.2547V47.2059C53.2547 47.5018 53.6161 47.6498 53.9764 47.6498C54.3366 47.6498 54.6986 47.5018 54.6986 47.2059V42.1831H55.9748C56.2526 42.1831 56.4096 41.8781 56.4096 41.5264C56.4096 41.2209 56.2797 40.8883 55.9748 40.8883L51.9785 40.8877Z" fill="#FF7F03"/>
<path d="M30.075 32.0196H28.6452V30.5334C28.6452 30.0546 28.2573 29.666 27.7779 29.666H26.5299V28.5988C26.5299 28.1199 26.1414 27.7314 25.6626 27.7314C25.1831 27.7314 24.7952 28.1199 24.7952 28.5988V29.666H23.6992C23.2197 29.666 22.8318 30.0546 22.8318 30.5334V32.0196H21.402C20.9232 32.0196 20.5347 32.4081 20.5347 32.887V49.4548C20.5347 49.9336 20.9232 50.3221 21.402 50.3221H30.0756C30.555 50.3221 30.9429 49.9336 30.9429 49.4548V32.887C30.9429 32.4076 30.5544 32.0191 30.075 32.0196ZM24.5654 31.4008H26.9105V32.0196H24.5654V31.4008ZM26.4266 48.5874H25.0499V46.4535H26.4266V48.5874ZM29.2076 48.5874H28.1613V45.5862C28.1613 45.1073 27.7728 44.7188 27.2939 44.7188H24.1825C23.7031 44.7188 23.3152 45.1073 23.3152 45.5862V48.5874H22.2688V33.7544H29.2076V48.5874Z" fill="#0A2C3B"/>
<path d="M24.0657 40.0892H27.4137C27.8925 40.0892 28.281 39.7007 28.281 39.2218C28.281 38.7424 27.8925 38.3545 27.4137 38.3545H24.0657C23.5862 38.3545 23.1983 38.7424 23.1983 39.2218C23.1983 39.7007 23.5862 40.0892 24.0657 40.0892Z" fill="#0A2C3B"/>
<path d="M24.0657 43.2435H27.4137C27.8925 43.2435 28.281 42.8556 28.281 42.3761C28.281 41.8973 27.8925 41.5088 27.4137 41.5088H24.0657C23.5862 41.5088 23.1983 41.8973 23.1983 42.3761C23.1983 42.8556 23.5862 43.2435 24.0657 43.2435Z" fill="#0A2C3B"/>
<path d="M24.0657 36.9349H27.4137C27.8925 36.9349 28.281 36.5464 28.281 36.0675C28.281 35.5887 27.8925 35.2002 27.4137 35.2002H24.0657C23.5862 35.2002 23.1983 35.5887 23.1983 36.0675C23.1983 36.5464 23.5862 36.9349 24.0657 36.9349Z" fill="#0A2C3B"/>
</g>
<defs>
<clipPath id="clip0_1526_12023">
<rect width="65" height="65" fill="white"/>
</clipPath>
</defs>
</svg>
