<svg width="65" height="65" viewBox="0 0 65 65" fill="none" xmlns="http://www.w3.org/2000/svg">
<g clip-path="url(#clip0_1526_11978)">
<path d="M64.1327 11.5239H10.2309V2.83903C10.2309 2.36018 9.84242 1.97168 9.36357 1.97168C8.88472 1.97168 8.49622 2.36018 8.49622 2.83903V11.5239H0.867353C0.388502 11.5239 0 11.9118 0 12.3912C0 12.8701 0.388502 13.2586 0.867353 13.2586H8.49622V62.1081C8.49622 62.5876 8.88472 62.9755 9.36357 62.9755C9.84242 62.9755 10.2309 62.5876 10.2309 62.1081V13.2586H24.3525V17.3977C22.6297 17.741 21.2654 19.0562 20.8588 20.7643H18.0439C15.9692 20.7671 14.2882 22.4482 14.2853 24.5229V50.5434C14.2882 52.6187 15.9692 54.2997 18.0439 54.302H58.5203C60.5956 54.2997 62.2766 52.6187 62.2789 50.5434V24.5229C62.2766 22.4482 60.5956 20.7671 58.5203 20.7643H55.706C55.2994 19.0562 53.9346 17.741 52.2123 17.3977V13.2586H64.1327C64.6116 13.2586 65.0001 12.8701 65.0001 12.3912C65.0001 11.9118 64.6116 11.5239 64.1327 11.5239ZM25.2199 19.0471C26.7366 19.0471 27.9665 20.277 27.9665 21.7937C27.9665 23.3105 26.7366 24.5404 25.2199 24.5404C23.7026 24.5404 22.4732 23.3105 22.4732 21.7937C22.4749 20.2776 23.7031 19.0488 25.2199 19.0471ZM60.5442 24.5229V50.5434C60.543 51.6609 59.6378 52.5661 58.5203 52.5673H18.0439C16.9269 52.5661 16.0217 51.6609 16.0201 50.5434V24.5229C16.0217 23.4059 16.9269 22.5007 18.0439 22.499H20.7944C21.1412 24.6742 23.017 26.2745 25.2193 26.2745C27.4216 26.2745 29.2974 24.6742 29.6447 22.499H46.9195C47.2668 24.6742 49.1427 26.2745 51.3449 26.2745C53.5472 26.2745 55.4231 24.6742 55.7703 22.499H58.5203C59.6378 22.5007 60.543 23.4059 60.5442 24.5229ZM54.0915 21.7937C54.0915 23.3105 52.8622 24.5404 51.3449 24.5404C49.8282 24.5404 48.5983 23.3105 48.5983 21.7937C48.5983 20.277 49.8282 19.0471 51.3449 19.0471C52.8611 19.0488 54.0898 20.2776 54.0915 21.7937ZM50.4776 17.3977C48.7558 17.741 47.391 19.0562 46.985 20.7643H29.5798C29.1732 19.0562 27.8089 17.741 26.0867 17.3977V13.2586H50.4776V17.3977Z" fill="#0A2C3B"/>
<path d="M39.6921 29.7852H36.4819C36.1674 29.7852 35.8528 29.9331 35.8528 30.2296V36.1034C35.8528 36.3999 36.2142 36.5478 36.5745 36.5478C36.9348 36.5478 37.2956 36.3999 37.2956 36.1034V33.717H38.6926C38.9981 33.717 39.128 33.4211 39.128 33.171C39.128 32.8751 38.9705 32.6074 38.6926 32.6074H37.2956V31.0438H39.6921C39.9694 31.0438 40.1269 30.7479 40.1269 30.4057C40.1269 30.1098 39.9971 29.7852 39.6921 29.7852Z" fill="#FF7F03"/>
<path d="M42.7453 36.6045C44.0221 36.6045 45.021 36.0127 45.021 34.4215V31.9696C45.021 30.3783 44.0221 29.7871 42.7453 29.7871C41.4686 29.7871 40.4787 30.3795 40.4787 31.9696V34.4215C40.4787 36.0127 41.4686 36.6045 42.7453 36.6045ZM41.9215 31.9696C41.9215 31.3315 42.2264 31.0447 42.7453 31.0447C43.2637 31.0447 43.5777 31.3315 43.5777 31.9696V34.4215C43.5777 35.0596 43.2631 35.3464 42.7453 35.3464C42.2275 35.3464 41.9215 35.0601 41.9215 34.4215V31.9696Z" fill="#FF7F03"/>
<path d="M49.4617 33.6433C50.1094 33.3937 50.5815 32.8019 50.5815 31.7657C50.5815 30.2575 49.5729 29.7854 48.3052 29.7854H46.3904C46.2735 29.7814 46.1594 29.8261 46.0759 29.9079C45.9923 29.9904 45.9454 30.1028 45.9466 30.2202V36.1036C45.9466 36.3995 46.308 36.548 46.6682 36.548C47.0279 36.548 47.3893 36.4007 47.3893 36.1042V33.8748H48.0003L49.2675 36.3357C49.3555 36.5085 49.5368 36.613 49.7305 36.6039C50.1557 36.6039 50.6368 36.2154 50.6368 35.8546C50.6379 35.7959 50.6216 35.7377 50.5905 35.688L49.4617 33.6433ZM48.3052 32.7647H47.3893V31.0446H48.3052C48.8236 31.0446 49.1381 31.2575 49.1381 31.9052C49.1381 32.5529 48.8236 32.7647 48.3052 32.7647Z" fill="#FF7F03"/>
<path d="M37.1386 42.6085C37.1386 42.3217 37.4068 42.0534 38.0635 42.0534C38.8225 42.0534 38.9981 42.4047 39.3313 42.4047C39.7384 42.4047 39.905 41.8965 39.905 41.6463C39.905 40.9246 38.5543 40.832 38.0635 40.832C36.9071 40.832 35.6953 41.3594 35.6953 42.7474C35.6953 44.9119 38.6282 44.7176 38.6282 45.8368C38.6282 46.2812 38.1562 46.4478 37.7309 46.4478C36.8704 46.4478 36.5925 45.7634 36.1583 45.7634C35.8065 45.7634 35.5287 46.2259 35.5287 46.5404C35.5287 47.1508 36.5462 47.7426 37.7586 47.7426C39.0997 47.7426 40.0716 47.021 40.0716 45.6889C40.071 43.3579 37.1386 43.5335 37.1386 42.6085Z" fill="#FF7F03"/>
<path d="M43.9475 41.3131C43.8465 40.9896 43.4297 40.832 43.004 40.832C42.5782 40.832 42.162 40.9896 42.0604 41.3131L40.3404 46.9566C40.3308 46.9893 40.3245 47.0238 40.3217 47.0577C40.3217 47.3999 40.8491 47.65 41.2467 47.65C41.4782 47.65 41.6634 47.576 41.7187 47.3818L42.0333 46.2253H43.9848L44.2993 47.3818C44.3547 47.576 44.5399 47.65 44.7714 47.65C45.169 47.65 45.6964 47.3999 45.6964 47.0577C45.6941 47.0238 45.6879 46.9893 45.6777 46.9566L43.9475 41.3131ZM42.3286 45.1152L43.004 42.6356L43.6793 45.1152H42.3286Z" fill="#FF7F03"/>
<path d="M49.7853 46.3926H47.6762V41.3235C47.6762 41.018 47.3148 40.8887 46.9545 40.8887C46.5942 40.8887 46.2328 41.0185 46.2328 41.3235V47.2069C46.2328 47.5028 46.5474 47.6507 46.8625 47.6507H49.7853C50.0631 47.6507 50.2014 47.3362 50.2014 47.0217C50.2014 46.7072 50.0631 46.3926 49.7853 46.3926Z" fill="#FF7F03"/>
<path d="M54.707 42.1468C54.9848 42.1468 55.1418 41.8503 55.1418 41.5081C55.1418 41.2122 55.0119 40.8887 54.707 40.8887H51.4138C51.0993 40.8887 50.7847 41.0366 50.7847 41.3325V47.2069C50.7847 47.5028 51.0993 47.6507 51.4138 47.6507H54.707C55.0125 47.6507 55.1418 47.3272 55.1418 47.0313C55.1418 46.6891 54.9848 46.3926 54.707 46.3926H52.2281V44.82H53.616C53.9215 44.82 54.0509 44.5241 54.0509 44.2739C54.0509 43.9781 53.8933 43.7104 53.616 43.7104H52.2281V42.1468H54.707Z" fill="#FF7F03"/>
<path d="M30.075 32.0196H28.6452V30.5334C28.6452 30.0546 28.2573 29.666 27.7779 29.666H26.5299V28.5988C26.5299 28.1199 26.1414 27.7314 25.6626 27.7314C25.1831 27.7314 24.7952 28.1199 24.7952 28.5988V29.666H23.6992C23.2197 29.666 22.8318 30.0546 22.8318 30.5334V32.0196H21.402C20.9232 32.0196 20.5347 32.4081 20.5347 32.887V49.4548C20.5347 49.9336 20.9232 50.3221 21.402 50.3221H30.0756C30.555 50.3221 30.9429 49.9336 30.9429 49.4548V32.887C30.9429 32.4076 30.5544 32.0191 30.075 32.0196ZM24.5654 31.4008H26.9105V32.0196H24.5654V31.4008ZM26.4266 48.5874H25.0499V46.4535H26.4266V48.5874ZM29.2076 48.5874H28.1613V45.5862C28.1613 45.1073 27.7728 44.7188 27.2939 44.7188H24.1825C23.7031 44.7188 23.3152 45.1073 23.3152 45.5862V48.5874H22.2688V33.7544H29.2076V48.5874Z" fill="#0A2C3B"/>
<path d="M24.0657 40.0892H27.4137C27.8925 40.0892 28.281 39.7007 28.281 39.2218C28.281 38.7424 27.8925 38.3545 27.4137 38.3545H24.0657C23.5862 38.3545 23.1983 38.7424 23.1983 39.2218C23.1983 39.7007 23.5862 40.0892 24.0657 40.0892Z" fill="#0A2C3B"/>
<path d="M24.0657 43.2435H27.4137C27.8925 43.2435 28.281 42.8556 28.281 42.3761C28.281 41.8973 27.8925 41.5088 27.4137 41.5088H24.0657C23.5862 41.5088 23.1983 41.8973 23.1983 42.3761C23.1983 42.8556 23.5862 43.2435 24.0657 43.2435Z" fill="#0A2C3B"/>
<path d="M24.0657 36.9349H27.4137C27.8925 36.9349 28.281 36.5464 28.281 36.0675C28.281 35.5887 27.8925 35.2002 27.4137 35.2002H24.0657C23.5862 35.2002 23.1983 35.5887 23.1983 36.0675C23.1983 36.5464 23.5862 36.9349 24.0657 36.9349Z" fill="#0A2C3B"/>
</g>
<defs>
<clipPath id="clip0_1526_11978">
<rect width="65" height="65" fill="white"/>
</clipPath>
</defs>
</svg>
