<svg width="40" height="40" viewBox="0 0 40 40" fill="none" xmlns="http://www.w3.org/2000/svg">
<rect width="40" height="40" rx="3" fill="#F5F5F5"/>
<g clip-path="url(#clip0_1561_12423)">
<path d="M26.9258 18.0045V14.5156C26.9258 12.5771 25.3487 11 23.4102 11H16.5898C14.6513 11 13.0742 12.5771 13.0742 14.5156V18.0045C11.8822 18.3166 11 19.4029 11 20.6915V24.8399C11 26.1284 11.8822 27.2146 13.0742 27.5269V28.2969C13.0742 28.6852 13.389 29 13.7773 29C14.1657 29 14.4805 28.6852 14.4805 28.2969V27.6172H25.5195V28.2969C25.5195 28.6852 25.8343 29 26.2227 29C26.611 29 26.9258 28.6852 26.9258 28.2969V27.5267C28.1178 27.2146 29 26.1284 29 24.8398V20.6913C29 19.4029 28.1178 18.3166 26.9258 18.0045ZM16.5898 12.4062H23.4102C24.5733 12.4062 25.5195 13.3524 25.5195 14.5156V18.0045C24.3311 18.3157 23.4509 19.3963 23.4456 20.6798H16.5544C16.5491 19.3963 15.6689 18.3157 14.4805 18.0045V14.5156C14.4805 13.3524 15.4267 12.4062 16.5898 12.4062ZM16.5547 22.0859H23.4453V26.2108H16.5547V22.0859ZM12.4062 24.8399V20.6915C12.4062 19.9353 13.0213 19.3204 13.7773 19.3204C14.5333 19.3204 15.1484 19.9353 15.1484 20.6915V26.211H13.7773C13.0213 26.211 12.4062 25.5959 12.4062 24.8399ZM27.5938 24.8399C27.5938 25.5959 26.9787 26.211 26.2227 26.211H24.8516V20.6915C24.8516 19.9353 25.4667 19.3204 26.2227 19.3204C26.9787 19.3204 27.5938 19.9353 27.5938 20.6915V24.8399Z" fill="#FF7F03"/>
</g>
<defs>
<clipPath id="clip0_1561_12423">
<rect width="18" height="18" fill="white" transform="translate(11 11)"/>
</clipPath>
</defs>
</svg>
