<svg width="28" height="28" viewBox="0 0 28 28" fill="none" xmlns="http://www.w3.org/2000/svg">
<path d="M5 5.75C5 5.33579 5.33579 5 5.75 5H11.8013C12.2156 5 12.5513 5.33579 12.5513 5.75V11.8013C12.5513 12.2156 12.2156 12.5513 11.8013 12.5513H5.75C5.33579 12.5513 5 12.2156 5 11.8013V5.75ZM15.4487 5C15.0344 5 14.6987 5.33579 14.6987 5.75V11.8013C14.6987 12.2156 15.0344 12.5513 15.4487 12.5513H21.5C21.9142 12.5513 22.25 12.2156 22.25 11.8013V5.75C22.25 5.33579 21.9142 5 21.5 5H15.4487ZM5 21.5C5 21.9142 5.33579 22.25 5.75 22.25H11.8013C12.2156 22.25 12.5513 21.9142 12.5513 21.5V15.4487C12.5513 15.0344 12.2156 14.6987 11.8013 14.6987H5.75C5.33579 14.6987 5 15.0344 5 15.4487V21.5ZM14.6987 21.5C14.6987 21.9142 15.0344 22.25 15.4487 22.25H21.5C21.9142 22.25 22.25 21.9142 22.25 21.5V15.4487C22.25 15.0344 21.9142 14.6987 21.5 14.6987H15.4487C15.0344 14.6987 14.6987 15.0344 14.6987 15.4487V21.5Z" fill="#CCCCCC"/>
</svg>
