<svg width="32" height="32" viewBox="0 0 32 32" fill="none" xmlns="http://www.w3.org/2000/svg">
<path d="M24.1 8.34675C21.6917 6.32175 17.9708 6.62591 15.6667 8.97175C13.3625 6.62591 9.64167 6.31758 7.23334 8.34675C4.10001 10.9842 4.55834 15.2842 6.79167 17.5634L14.1 25.0092C14.5167 25.4342 15.075 25.6717 15.6667 25.6717C16.2625 25.6717 16.8167 25.4384 17.2333 25.0134L24.5417 17.5676C26.7708 15.2884 27.2375 10.9884 24.1 8.34675ZM23.1167 16.1592L15.8083 23.6051C15.7083 23.7051 15.625 23.7051 15.525 23.6051L8.21667 16.1592C6.69584 14.6092 6.3875 11.6759 8.52084 9.88008C10.1417 8.51758 12.6417 8.72175 14.2083 10.3176L15.6667 11.8051L17.125 10.3176C18.7 8.71341 21.2 8.51758 22.8125 9.87591C24.9417 11.6717 24.625 14.6217 23.1167 16.1592Z" fill="#333333"/>
</svg>
