<svg width="50" height="50" viewBox="0 0 50 50" fill="none" xmlns="http://www.w3.org/2000/svg">
<path d="M43.5227 32.4446L35.0547 28.8118C34.568 28.6043 34.0273 28.5599 33.5133 28.6852C32.9993 28.8105 32.5397 29.0989 32.2031 29.5071L28.7578 33.7181C23.3387 31.0528 18.9544 26.6685 16.2891 21.2493L20.5 17.804C20.9082 17.4676 21.1965 17.0081 21.3219 16.4943C21.4472 15.9804 21.4028 15.4398 21.1953 14.9532L17.5625 6.47667C17.3354 5.95103 16.9311 5.52168 16.4201 5.26331C15.909 5.00495 15.3236 4.93393 14.7656 5.06261L6.89064 6.88292C6.35234 7.00467 5.87164 7.30635 5.52792 7.73814C5.18419 8.16993 4.99797 8.70603 5.00002 9.25792C5.00002 29.0462 21.0391 44.9993 40.7414 44.9993C41.2952 45.0004 41.8329 44.813 42.266 44.468C42.6992 44.123 43.0021 43.6409 43.125 43.1009L44.9367 35.2337C45.0653 34.6768 44.9941 34.0924 44.7357 33.5826C44.4772 33.0729 44.0479 32.6701 43.5227 32.4446ZM40.6945 42.4993C22.375 42.4759 7.52345 27.6321 7.50783 9.31261L15.2891 7.51573L18.8828 15.9056L13.1953 20.554C16.9766 28.6165 21.3594 33.015 29.4531 36.8118L34.1016 31.1243L42.4914 34.7181L40.6945 42.4993Z" fill="white"/>
</svg>
