<svg width="52" height="52" viewBox="0 0 52 52" fill="none" xmlns="http://www.w3.org/2000/svg">
<path d="M33.987 5.65234H8.125C7.4249 5.65312 6.7537 5.93158 6.25866 6.42663C5.76361 6.92167 5.48515 7.59287 5.48438 8.29297V39.6447C5.48639 41.4219 6.19326 43.1257 7.4499 44.3823C8.70654 45.6389 10.4103 46.3458 12.1875 46.3478H41.4826C41.5694 46.3478 41.6553 46.3291 41.7343 46.293C43.0596 46.1053 44.2727 45.4459 45.151 44.4359C46.0293 43.4258 46.5138 42.1329 46.5156 40.7944V24.2709C46.5156 24.1093 46.4514 23.9543 46.3371 23.84C46.2229 23.7257 46.0679 23.6615 45.9062 23.6615H36.6276V8.29297C36.6268 7.59287 36.3484 6.92167 35.8533 6.42663C35.3583 5.93158 34.6871 5.65312 33.987 5.65234ZM12.1875 45.1291C10.7335 45.1274 9.33944 44.5491 8.31127 43.5209C7.28311 42.4928 6.70476 41.0987 6.70312 39.6447V8.29297C6.70356 7.916 6.8535 7.55459 7.12006 7.28803C7.38662 7.02147 7.74803 6.87152 8.125 6.87109H33.987C34.3639 6.87155 34.7253 7.0215 34.9919 7.28806C35.2584 7.55461 35.4084 7.916 35.4089 8.29297V40.7944C35.4089 41.6273 35.5966 42.4495 35.958 43.2C36.3195 43.9504 36.8453 44.6098 37.4966 45.1291H12.1875ZM45.2969 40.7944C45.2996 41.3654 45.1896 41.9313 44.973 42.4596C44.7564 42.988 44.4375 43.4683 44.0347 43.873C43.632 44.2778 43.1532 44.5989 42.6259 44.8181C42.0986 45.0372 41.5332 45.1501 40.9622 45.1501C40.3912 45.1501 39.8259 45.0372 39.2986 44.8181C38.7713 44.5989 38.2925 44.2778 37.8897 43.873C37.487 43.4683 37.1681 42.988 36.9515 42.4596C36.7349 41.9313 36.6248 41.3654 36.6276 40.7944V24.8803H45.2969V40.7944Z" fill="#0A2C3B"/>
<path d="M30.3672 33.0078H22.2422C22.0806 33.0078 21.9256 33.072 21.8113 33.1863C21.697 33.3006 21.6328 33.4556 21.6328 33.6172V41.7422C21.6328 41.9038 21.697 42.0588 21.8113 42.1731C21.9256 42.2874 22.0806 42.3516 22.2422 42.3516H30.3672C30.5288 42.3516 30.6838 42.2874 30.7981 42.1731C30.9124 42.0588 30.9766 41.9038 30.9766 41.7422V33.6172C30.9766 33.4556 30.9124 33.3006 30.7981 33.1863C30.6838 33.072 30.5288 33.0078 30.3672 33.0078ZM29.7578 41.1328H22.8516V34.2266H29.7578V41.1328Z" fill="#0A2C3B"/>
<path d="M30.3672 18.1797H10.3594C10.1978 18.1797 10.0428 18.2439 9.92848 18.3582C9.8142 18.4724 9.75 18.6274 9.75 18.7891C9.75 18.9507 9.8142 19.1057 9.92848 19.22C10.0428 19.3342 10.1978 19.3984 10.3594 19.3984H30.3672C30.5288 19.3984 30.6838 19.3342 30.7981 19.22C30.9124 19.1057 30.9766 18.9507 30.9766 18.7891C30.9766 18.6274 30.9124 18.4724 30.7981 18.3582C30.6838 18.2439 30.5288 18.1797 30.3672 18.1797Z" fill="#0A2C3B"/>
<path d="M30.3672 27.9297H10.3594C10.1978 27.9297 10.0428 27.9939 9.92848 28.1082C9.8142 28.2224 9.75 28.3774 9.75 28.5391C9.75 28.7007 9.8142 28.8557 9.92848 28.97C10.0428 29.0842 10.1978 29.1484 10.3594 29.1484H30.3672C30.5288 29.1484 30.6838 29.0842 30.7981 28.97C30.9124 28.8557 30.9766 28.7007 30.9766 28.5391C30.9766 28.3774 30.9124 28.2224 30.7981 28.1082C30.6838 27.9939 30.5288 27.9297 30.3672 27.9297Z" fill="#0A2C3B"/>
<path d="M18.4844 41.1328H10.3594C10.1978 41.1328 10.0428 41.197 9.92848 41.3113C9.8142 41.4256 9.75 41.5806 9.75 41.7422C9.75 41.9038 9.8142 42.0588 9.92848 42.1731C10.0428 42.2874 10.1978 42.3516 10.3594 42.3516H18.4844C18.646 42.3516 18.801 42.2874 18.9153 42.1731C19.0295 42.0588 19.0938 41.9038 19.0938 41.7422C19.0938 41.5806 19.0295 41.4256 18.9153 41.3113C18.801 41.197 18.646 41.1328 18.4844 41.1328Z" fill="#0A2C3B"/>
<path d="M18.4844 33.0078H10.3594C10.1978 33.0078 10.0428 33.072 9.92848 33.1863C9.8142 33.3006 9.75 33.4556 9.75 33.6172C9.75 33.7788 9.8142 33.9338 9.92848 34.0481C10.0428 34.1624 10.1978 34.2266 10.3594 34.2266H18.4844C18.646 34.2266 18.801 34.1624 18.9153 34.0481C19.0295 33.9338 19.0938 33.7788 19.0938 33.6172C19.0938 33.4556 19.0295 33.3006 18.9153 33.1863C18.801 33.072 18.646 33.0078 18.4844 33.0078Z" fill="#0A2C3B"/>
<path d="M18.4844 37.0703H10.3594C10.1978 37.0703 10.0428 37.1345 9.92848 37.2488C9.8142 37.3631 9.75 37.5181 9.75 37.6797C9.75 37.8413 9.8142 37.9963 9.92848 38.1106C10.0428 38.2249 10.1978 38.2891 10.3594 38.2891H18.4844C18.646 38.2891 18.801 38.2249 18.9153 38.1106C19.0295 37.9963 19.0938 37.8413 19.0938 37.6797C19.0938 37.5181 19.0295 37.3631 18.9153 37.2488C18.801 37.1345 18.646 37.0703 18.4844 37.0703Z" fill="#0A2C3B"/>
<path d="M30.3672 22.8516H10.3594C10.1978 22.8516 10.0428 22.9158 9.92848 23.03C9.8142 23.1443 9.75 23.2993 9.75 23.4609C9.75 23.6226 9.8142 23.7776 9.92848 23.8918C10.0428 24.0061 10.1978 24.0703 10.3594 24.0703H30.3672C30.5288 24.0703 30.6838 24.0061 30.7981 23.8918C30.9124 23.7776 30.9766 23.6226 30.9766 23.4609C30.9766 23.2993 30.9124 23.1443 30.7981 23.03C30.6838 22.9158 30.5288 22.8516 30.3672 22.8516Z" fill="#0A2C3B"/>
<path d="M10.2572 15.4811C10.5466 15.4811 10.8396 15.3485 10.8396 15.0952V12.0094L12.5023 15.1189C12.6358 15.3626 12.8511 15.4806 13.1603 15.4806C13.4498 15.4806 13.7428 15.348 13.7428 15.0947V9.7783C13.7428 9.51719 13.4502 9.40039 13.1603 9.40039C12.8065 9.40039 12.5779 9.54877 12.5779 9.7783V12.8582L11.0951 9.99219C10.8292 9.48621 10.6526 9.4007 10.2568 9.4007C9.96682 9.4007 9.67432 9.52003 9.67432 9.78663V15.0952C9.67472 15.3603 9.97657 15.4811 10.2572 15.4811Z" fill="#FF7F03"/>
<path d="M15.5493 15.4811H18.4612C18.7265 15.4811 18.8471 15.2171 18.8471 14.9724C18.8471 14.6631 18.6883 14.447 18.4612 14.447H16.1975V12.9046H17.3899C17.6438 12.9046 17.7758 12.6732 17.7758 12.4447C17.7758 12.2082 17.6432 11.9688 17.3899 11.9688H16.1975V10.4343H18.4615C18.6888 10.4343 18.8474 10.2184 18.8474 9.90922C18.8474 9.66415 18.7266 9.40039 18.4615 9.40039H15.5493C15.3003 9.40039 15.0322 9.52115 15.0322 9.78633V15.0949C15.0325 15.3603 15.3006 15.4811 15.5493 15.4811Z" fill="#FF7F03"/>
<path d="M20.9979 15.1341C21.0856 15.4266 21.4534 15.5302 21.7418 15.5302C22.0579 15.5302 22.4058 15.4067 22.4701 15.1313L22.9519 13.1295L23.4264 15.131C23.4908 15.4067 23.8385 15.5302 24.1547 15.5302C24.4505 15.5302 24.8011 15.4265 24.8981 15.1354L26.5182 9.99067C26.53 9.95371 26.5364 9.91522 26.5371 9.87641C26.5371 9.60839 26.1449 9.40039 25.8075 9.40039C25.5942 9.40039 25.4486 9.4918 25.4071 9.64973L24.168 13.9008L23.518 11.2387C23.4589 10.9927 23.1768 10.9054 22.9532 10.9054C22.715 10.9054 22.4394 10.993 22.3804 11.2386L21.7304 13.9008L20.4913 9.65095C20.4494 9.4917 20.3033 9.40039 20.0905 9.40039C19.7531 9.40039 19.3608 9.60839 19.3608 9.87641C19.3616 9.91493 19.3679 9.95315 19.3795 9.98986L20.9979 15.1341Z" fill="#FF7F03"/>
<path d="M29.3535 11.7226C28.8355 11.5027 28.4262 11.3291 28.4262 10.9479C28.4262 10.5801 28.7446 10.369 29.2997 10.369C29.5851 10.3627 29.8669 10.4337 30.1153 10.5745C30.2097 10.6342 30.3171 10.6703 30.4284 10.6797C30.7608 10.6797 30.9046 10.2724 30.9046 10.0646C30.9046 9.50786 29.8957 9.35938 29.2999 9.35938C28.3147 9.35938 27.2614 9.80259 27.2614 11.0462C27.2614 12.1588 28.0935 12.5283 28.8276 12.854C29.3964 13.1064 29.887 13.3245 29.887 13.8351C29.887 14.3226 29.4401 14.496 29.0217 14.496C28.5296 14.496 28.261 14.2702 28.0451 14.0888C27.9029 13.9693 27.7798 13.866 27.6312 13.866C27.3367 13.866 27.1143 14.2442 27.1143 14.4895C27.1143 14.9921 27.944 15.5544 29.0541 15.5544C30.2863 15.5544 31.0516 14.8548 31.0516 13.7287C31.0518 12.4433 30.1101 12.0437 29.3535 11.7226Z" fill="#FF7F03"/>
</svg>
