<svg width="90" height="90" viewBox="0 0 90 90" fill="none" xmlns="http://www.w3.org/2000/svg">
<path d="M76.4825 52.4177L76.0655 52.6427C74.3812 50.5987 71.4631 49.8067 69.2398 50.9334C69.2319 50.9373 69.224 50.9415 69.2162 50.9455L68.2318 51.4755C67.0579 50.4815 65.6059 49.8738 64.0739 49.7354C62.5418 49.597 61.0044 49.9346 59.6713 50.7021L54.3706 53.5849H47.3172C45.7899 53.5829 44.2827 53.2375 42.9069 52.5743L41.9366 52.105C39.1741 50.7609 36.0935 50.2075 33.036 50.5061C29.9784 50.8047 27.0632 51.9437 24.613 53.7969C24.5899 53.8145 24.5674 53.8321 24.546 53.8519L22.2034 55.9374C21.318 56.7237 20.2716 57.307 19.1372 57.6465L17.8067 53.279C17.7408 53.0629 17.6072 52.8736 17.4256 52.7391C17.2439 52.6046 17.0239 52.532 16.7979 52.532H5.46828C5.319 52.532 5.17142 52.5637 5.0353 52.6249C4.89918 52.6862 4.77762 52.7757 4.67866 52.8875C4.57969 52.9992 4.50558 53.1307 4.46122 53.2732C4.41686 53.4158 4.40326 53.5661 4.42132 53.7143L8.19781 84.6799C8.22898 84.9356 8.35267 85.1711 8.54555 85.3419C8.73842 85.5127 8.98714 85.607 9.24476 85.607H26.2382C26.4031 85.607 26.5656 85.5683 26.7128 85.4942C26.86 85.42 26.9877 85.3124 27.0858 85.1799C27.1839 85.0475 27.2496 84.8939 27.2776 84.7315C27.3056 84.569 27.2951 84.4023 27.247 84.2447L25.0146 76.9192L31.9675 72.5246C32.8978 72.0099 33.9892 71.8686 35.0199 72.1296C35.0417 72.1351 35.0637 72.14 35.0858 72.1439L49.229 74.7483C53.0726 75.436 57.0354 74.8765 60.5383 73.1515C60.583 73.1294 60.6261 73.1041 60.6673 73.0759L85.1297 56.2796C85.3513 56.1275 85.5064 55.8964 85.5634 55.6337C85.6204 55.371 85.5749 55.0965 85.4363 54.8662C84.5462 53.3837 83.1185 52.3018 81.4506 51.8457C79.7827 51.3896 78.0031 51.5945 76.4825 52.4177ZM70.2041 52.8094C71.49 52.1655 73.1087 52.6933 74.1427 53.68L64.8663 58.6845L64.3214 58.9715C64.0277 58.1375 63.5984 57.3577 63.0509 56.6634L70.2041 52.8094ZM60.6921 52.5483C60.7003 52.5436 60.7096 52.539 60.717 52.5341C61.5479 52.0538 62.4923 51.8053 63.4519 51.8143C64.4115 51.8233 65.3511 52.0896 66.1728 52.5854L61.4564 55.1247C60.5572 54.4685 59.5313 54.0068 58.4438 53.7689L60.6921 52.5483ZM10.1778 83.4976L6.65955 54.6413H16.0162L24.8141 83.4976H10.1778ZM59.5344 71.2929C56.4545 72.7922 52.9783 73.2752 49.6064 72.6725L35.498 70.0744C33.9462 69.6913 32.3067 69.9135 30.9128 70.6958C30.8964 70.7048 30.8801 70.7146 30.8641 70.7248L24.3751 74.827L19.7521 59.6657C21.1776 59.2361 22.4924 58.5008 23.6047 57.5111L25.9143 55.4545C28.0541 53.8458 30.5964 52.8589 33.2612 52.6025C35.926 52.3462 38.6098 52.8304 41.017 54.0017L41.9872 54.471C43.6495 55.2722 45.4707 55.6895 47.316 55.692H56.7247C58.1074 55.6939 59.4462 56.1774 60.5112 57.0592C61.5762 57.941 62.3008 59.1662 62.5606 60.5242L55.7412 60.2157C53.2621 60.1043 50.778 60.2191 48.3197 60.5587C48.0448 60.5995 47.7971 60.7472 47.6304 60.9696C47.4638 61.1921 47.3917 61.4713 47.4298 61.7466C47.468 62.0219 47.6132 62.271 47.834 62.4398C48.0549 62.6086 48.3334 62.6834 48.609 62.648C50.9398 62.3259 53.2952 62.2171 55.6457 62.3232L63.6712 62.6862C63.6872 62.6862 63.7032 62.6872 63.719 62.6872C63.9987 62.6872 64.267 62.5761 64.4648 62.3783C64.6626 62.1805 64.7737 61.9122 64.7737 61.6325C64.7737 61.4618 64.7665 61.2927 64.7561 61.1245L65.8567 60.5444L77.4844 54.2733C78.3774 53.7897 79.4052 53.6147 80.4079 53.7754C81.4106 53.9361 82.3322 54.4236 83.0293 55.162L59.5344 71.2929Z" fill="#0A2C3B"/>
<path d="M13.5308 79.135C13.5308 79.7917 13.7255 80.4337 14.0904 80.9797C14.4552 81.5258 14.9738 81.9514 15.5806 82.2027C16.1873 82.454 16.855 82.5198 17.4991 82.3917C18.1432 82.2635 18.7348 81.9473 19.1992 81.4829C19.6636 81.0185 19.9799 80.4269 20.108 79.7828C20.2361 79.1386 20.1703 78.471 19.919 77.8643C19.6677 77.2575 19.2421 76.7389 18.696 76.3741C18.15 76.0092 17.508 75.8145 16.8513 75.8145C15.9709 75.8154 15.1269 76.1656 14.5044 76.7881C13.8819 77.4106 13.5317 78.2546 13.5308 79.135ZM16.8513 77.9238C17.0908 77.9238 17.325 77.9949 17.5241 78.1279C17.7233 78.261 17.8785 78.4502 17.9702 78.6715C18.0619 78.8928 18.0859 79.1363 18.0391 79.3712C17.9924 79.6062 17.877 79.822 17.7077 79.9914C17.5383 80.1607 17.3225 80.2761 17.0876 80.3228C16.8526 80.3696 16.6091 80.3456 16.3878 80.2539C16.1665 80.1622 15.9773 80.007 15.8443 79.8078C15.7112 79.6087 15.6401 79.3745 15.6401 79.135C15.6407 78.8139 15.7685 78.5063 15.9955 78.2793C16.2225 78.0523 16.5303 77.9246 16.8513 77.9242V77.9238Z" fill="#0A2C3B"/>
<path d="M53.0197 15.8735V12.398C53.0098 10.2812 52.1619 8.25455 50.6617 6.76128C49.1614 5.26801 47.1308 4.42969 45.014 4.42969C42.8972 4.42969 40.8666 5.26801 39.3663 6.76128C37.866 8.25455 37.0182 10.2812 37.0083 12.398V15.8735C37.0182 17.9902 37.866 20.0169 39.3663 21.5102C40.8666 23.0034 42.8972 23.8418 45.014 23.8418C47.1308 23.8418 49.1614 23.0034 50.6617 21.5102C52.1619 20.0169 53.0098 17.9902 53.0197 15.8735ZM39.1177 15.8735V12.398C39.1262 10.8397 39.7512 9.34823 40.856 8.24939C41.9609 7.15056 43.4557 6.53374 45.014 6.53374C46.5722 6.53374 48.0671 7.15056 49.172 8.24939C50.2768 9.34823 50.9018 10.8397 50.9103 12.398V15.8735C50.9018 17.4317 50.2768 18.9232 49.172 20.0221C48.0671 21.1209 46.5722 21.7377 45.014 21.7377C43.4557 21.7377 41.9609 21.1209 40.856 20.0221C39.7512 18.9232 39.1262 17.4317 39.1177 15.8735Z" fill="#FF7F03"/>
<path d="M32.1096 45.602H57.9182C58.1979 45.602 58.4661 45.4909 58.6639 45.2931C58.8617 45.0953 58.9729 44.8271 58.9729 44.5473V42.1265H76.6406C76.9203 42.1265 77.1886 42.0154 77.3864 41.8176C77.5842 41.6198 77.6953 41.3515 77.6953 41.0718V34.2262C77.6942 32.2175 76.9284 30.2846 75.5536 28.8201C74.1788 27.3555 72.2981 26.4693 70.2935 26.3413C69.731 26.3 69.4419 26.6562 69.2074 26.9421C68.7408 27.5123 68.1502 27.9683 67.4806 28.2756C66.811 28.5829 66.0801 28.7333 65.3436 28.7153C64.6071 28.6973 63.8845 28.5114 63.2307 28.1718C62.5769 27.8322 62.0093 27.3479 61.5711 26.7556C61.4704 26.6193 61.3383 26.5093 61.1861 26.4349C61.0339 26.3604 60.866 26.3238 60.6966 26.328C59.3265 26.3587 57.9886 26.7491 56.8169 27.4598C56.0433 26.5603 55.0971 25.8252 54.0343 25.298C52.9714 24.7709 51.8136 24.4624 50.6294 24.3909C50.0845 24.3687 49.8089 24.6995 49.5418 25.0237C48.9944 25.6928 48.3013 26.228 47.5156 26.5886C46.7299 26.9493 45.8722 27.1258 45.0079 27.1047C44.1437 27.0836 43.2956 26.8654 42.5284 26.4668C41.7613 26.0683 41.0952 25.4998 40.581 24.8048C40.4805 24.6684 40.3485 24.5582 40.1962 24.4838C40.044 24.4094 39.876 24.3728 39.7065 24.3773C37.3936 24.4308 35.1941 25.3903 33.5814 27.0492C33.4482 27.1854 33.3218 27.3266 33.1986 27.4698C32.1095 26.8068 30.8752 26.4193 29.6026 26.341C29.0421 26.2997 28.7508 26.6558 28.5165 26.9418C28.0499 27.5119 27.4593 27.968 26.7897 28.2752C26.1202 28.5825 25.3893 28.7329 24.6528 28.7149C23.9163 28.6969 23.1937 28.511 22.5399 28.1715C21.8862 27.8319 21.3186 27.3475 20.8804 26.7553C20.7795 26.6192 20.6474 26.5093 20.4952 26.4348C20.3431 26.3604 20.1752 26.3236 20.0058 26.3276C17.9457 26.3801 15.9876 27.2352 14.5489 28.7107C13.1103 30.1862 12.305 32.1654 12.3047 34.2262V41.0718C12.3047 41.3515 12.4158 41.6198 12.6136 41.8176C12.8114 42.0154 13.0797 42.1265 13.3594 42.1265H31.0549V44.5473C31.0549 44.8271 31.166 45.0953 31.3638 45.2931C31.5616 45.4909 31.8299 45.602 32.1096 45.602ZM60.2462 28.4707C60.8965 29.2088 61.6959 29.8004 62.5918 30.2065C63.4877 30.6126 64.4596 30.8239 65.4432 30.8265C66.4268 30.8291 67.3998 30.6228 68.2978 30.2214C69.1958 29.82 69.9984 29.2326 70.6525 28.498C72.024 28.7049 73.2759 29.3966 74.181 30.4476C75.0862 31.4985 75.5846 32.8391 75.5859 34.2262V40.0171H58.9729V33.2511C58.974 31.8466 58.6398 30.4621 57.9981 29.2127C58.6873 28.8108 59.4532 28.558 60.2462 28.4707ZM39.252 26.5187C39.9812 27.3629 40.8832 28.0407 41.8971 28.5061C42.9109 28.9715 44.0129 29.2137 45.1285 29.2164C46.244 29.219 47.3471 28.982 48.3632 28.5214C49.3792 28.0608 50.2845 27.3874 51.0177 26.5466C52.6372 26.7706 54.121 27.5727 55.1955 28.8049C56.27 30.0371 56.8627 31.6162 56.8642 33.2511V43.4927H33.1643V33.2511C33.1748 31.5771 33.8011 29.9654 34.924 28.7237C36.0468 27.482 37.5874 26.6971 39.252 26.5187ZM14.4141 40.0171V34.2262C14.423 32.8052 14.9504 31.4363 15.8973 30.3766C16.8441 29.317 18.1453 28.6395 19.5564 28.4714C20.2066 29.2093 21.006 29.8007 21.9018 30.2066C22.7976 30.6125 23.7693 30.8237 24.7527 30.8262C25.7362 30.8287 26.709 30.6225 27.6068 30.2211C28.5046 29.8198 29.307 29.2325 29.961 28.498C30.6872 28.6065 31.3859 28.8531 32.0194 29.2243C31.3836 30.4713 31.053 31.8514 31.0549 33.2511V40.0171H14.4141Z" fill="#FF7F03"/>
<path d="M72.4842 19.0151V15.9728C72.4842 14.0795 71.7321 12.2637 70.3933 10.9249C69.0545 9.58611 67.2387 8.83398 65.3454 8.83398C63.452 8.83398 61.6362 9.58611 60.2975 10.9249C58.9587 12.2637 58.2065 14.0795 58.2065 15.9728V19.0151C58.2065 20.9084 58.9587 22.7242 60.2975 24.063C61.6362 25.4018 63.452 26.1539 65.3454 26.1539C67.2387 26.1539 69.0545 25.4018 70.3933 24.063C71.7321 22.7242 72.4842 20.9084 72.4842 19.0151ZM60.3159 19.0151V15.9728C60.3159 14.6389 60.8458 13.3597 61.789 12.4165C62.7322 11.4732 64.0115 10.9434 65.3454 10.9434C66.6793 10.9434 67.9585 11.4732 68.9017 12.4165C69.8449 13.3597 70.3748 14.6389 70.3748 15.9728V19.0151C70.3748 20.349 69.8449 21.6282 68.9017 22.5714C67.9585 23.5146 66.6793 24.0445 65.3454 24.0445C64.0115 24.0445 62.7322 23.5146 61.789 22.5714C60.8458 21.6282 60.3159 20.349 60.3159 19.0151Z" fill="#FF7F03"/>
<path d="M31.7938 19.0151V15.9728C31.7938 15.0353 31.6091 14.107 31.2504 13.2409C30.8916 12.3748 30.3658 11.5878 29.7029 10.9249C29.04 10.262 28.253 9.73616 27.3869 9.3774C26.5207 9.01864 25.5924 8.83398 24.6549 8.83398C23.7175 8.83398 22.7892 9.01864 21.923 9.3774C21.0569 9.73616 20.2699 10.262 19.607 10.9249C18.9441 11.5878 18.4183 12.3748 18.0595 13.2409C17.7008 14.107 17.5161 15.0353 17.5161 15.9728V19.0151C17.5161 19.9525 17.7008 20.8808 18.0595 21.747C18.4183 22.6131 18.9441 23.4001 19.607 24.063C20.2699 24.7259 21.0569 25.2517 21.923 25.6105C22.7892 25.9692 23.7175 26.1539 24.6549 26.1539C25.5924 26.1539 26.5207 25.9692 27.3869 25.6105C28.253 25.2517 29.04 24.7259 29.7029 24.063C30.3658 23.4001 30.8916 22.6131 31.2504 21.747C31.6091 20.8808 31.7938 19.9525 31.7938 19.0151ZM19.6255 19.0151V15.9728C19.6255 14.6389 20.1554 13.3597 21.0986 12.4165C22.0418 11.4732 23.321 10.9434 24.6549 10.9434C25.9888 10.9434 27.2681 11.4732 28.2113 12.4165C29.1545 13.3597 29.6844 14.6389 29.6844 15.9728V19.0151C29.6844 19.6755 29.5543 20.3295 29.3016 20.9397C29.0488 21.55 28.6783 22.1044 28.2113 22.5714C27.7443 23.0384 27.1898 23.4089 26.5796 23.6617C25.9694 23.9144 25.3154 24.0445 24.6549 24.0445C23.9945 24.0445 23.3405 23.9144 22.7303 23.6617C22.12 23.4089 21.5656 23.0384 21.0986 22.5714C20.6316 22.1044 20.2611 21.55 20.0083 20.9397C19.7556 20.3295 19.6255 19.6755 19.6255 19.0151Z" fill="#FF7F03"/>
</svg>
