<svg width="28" height="28" viewBox="0 0 28 28" fill="none" xmlns="http://www.w3.org/2000/svg">
<path d="M8.47679 24.1245H4.33036V10.6884H8.47679V24.1245ZM6.40134 8.85561C5.07545 8.85561 4 7.75053 4 6.41635C4 5.77549 4.253 5.16088 4.70334 4.70773C5.15367 4.25458 5.76446 4 6.40134 4C7.03821 4 7.649 4.25458 8.09934 4.70773C8.54968 5.16088 8.80268 5.77549 8.80268 6.41635C8.80268 7.75053 7.72679 8.85561 6.40134 8.85561ZM23.9955 24.1245H19.858V17.5839C19.858 16.0251 19.8268 14.0261 17.7022 14.0261C15.5464 14.0261 15.2161 15.7197 15.2161 17.4716V24.1245H11.0741V10.6884H15.0509V12.5212H15.1089C15.6625 11.4656 17.0147 10.3515 19.0321 10.3515C23.2286 10.3515 24 13.1322 24 16.7439V24.1245H23.9955Z" fill="#8F8F8F"/>
</svg>
