<svg width="28" height="28" viewBox="0 0 28 28" fill="none" xmlns="http://www.w3.org/2000/svg">
<path d="M6.78125 17.875C6.42895 17.875 6.08457 17.9795 5.79164 18.1752C5.49872 18.3709 5.27041 18.6491 5.13559 18.9746C5.00077 19.3001 4.9655 19.6582 5.03423 20.0038C5.10296 20.3493 5.2726 20.6667 5.52172 20.9158C5.77083 21.1649 6.08822 21.3345 6.43375 21.4033C6.77927 21.472 7.13742 21.4367 7.46291 21.3019C7.78839 21.1671 8.06658 20.9388 8.26231 20.6459C8.45803 20.3529 8.5625 20.0085 8.5625 19.6562C8.5625 19.1838 8.37483 18.7308 8.04078 18.3967C7.70674 18.0627 7.25367 17.875 6.78125 17.875ZM6.78125 11.9375C6.42895 11.9375 6.08457 12.042 5.79164 12.2377C5.49872 12.4334 5.27041 12.7116 5.13559 13.0371C5.00077 13.3626 4.9655 13.7207 5.03423 14.0663C5.10296 14.4118 5.2726 14.7292 5.52172 14.9783C5.77083 15.2274 6.08822 15.397 6.43375 15.4658C6.77927 15.5345 7.13742 15.4992 7.46291 15.3644C7.78839 15.2296 8.06658 15.0013 8.26231 14.7084C8.45803 14.4154 8.5625 14.071 8.5625 13.7188C8.5625 13.2463 8.37483 12.7933 8.04078 12.4592C7.70674 12.1252 7.25367 11.9375 6.78125 11.9375ZM6.78125 6C6.42895 6 6.08457 6.10447 5.79164 6.30019C5.49872 6.49592 5.27041 6.77411 5.13559 7.0996C5.00077 7.42508 4.9655 7.78323 5.03423 8.12875C5.10296 8.47428 5.2726 8.79167 5.52172 9.04078C5.77083 9.2899 6.08822 9.45954 6.43375 9.52827C6.77927 9.597 7.13742 9.56173 7.46291 9.42691C7.78839 9.29209 8.06658 9.06378 8.26231 8.77086C8.45803 8.47793 8.5625 8.13355 8.5625 7.78125C8.5625 7.30883 8.37483 6.85577 8.04078 6.52172C7.70674 6.18767 7.25367 6 6.78125 6ZM23.4063 6.89062H11.5313C11.3738 6.89062 11.2228 6.95318 11.1114 7.06453C11.0001 7.17588 10.9375 7.3269 10.9375 7.48438V8.07812C10.9375 8.2356 11.0001 8.38662 11.1114 8.49797C11.2228 8.60932 11.3738 8.67188 11.5313 8.67188H23.4063C23.5637 8.67188 23.7147 8.60932 23.8261 8.49797C23.9374 8.38662 24 8.2356 24 8.07812V7.48438C24 7.3269 23.9374 7.17588 23.8261 7.06453C23.7147 6.95318 23.5637 6.89062 23.4063 6.89062ZM23.4063 12.8281H11.5313C11.3738 12.8281 11.2228 12.8907 11.1114 13.002C11.0001 13.1134 10.9375 13.2644 10.9375 13.4219V14.0156C10.9375 14.1731 11.0001 14.3241 11.1114 14.4355C11.2228 14.5468 11.3738 14.6094 11.5313 14.6094H23.4063C23.5637 14.6094 23.7147 14.5468 23.8261 14.4355C23.9374 14.3241 24 14.1731 24 14.0156V13.4219C24 13.2644 23.9374 13.1134 23.8261 13.002C23.7147 12.8907 23.5637 12.8281 23.4063 12.8281ZM23.4063 18.7656H11.5313C11.3738 18.7656 11.2228 18.8282 11.1114 18.9395C11.0001 19.0509 10.9375 19.2019 10.9375 19.3594V19.9531C10.9375 20.1106 11.0001 20.2616 11.1114 20.373C11.2228 20.4843 11.3738 20.5469 11.5313 20.5469H23.4063C23.5637 20.5469 23.7147 20.4843 23.8261 20.373C23.9374 20.2616 24 20.1106 24 19.9531V19.3594C24 19.2019 23.9374 19.0509 23.8261 18.9395C23.7147 18.8282 23.5637 18.7656 23.4063 18.7656Z" fill="black"/>
</svg>
