<svg width="52" height="52" viewBox="0 0 52 52" fill="none" xmlns="http://www.w3.org/2000/svg">
<g clip-path="url(#clip0_1560_12627)">
<path d="M0.17573 29.9415C0.043314 30.0912 -0.019026 30.2905 0.00509085 30.4889L2.42225 50.3076C2.46502 50.6579 2.76307 50.9219 3.11618 50.9219H13.992C14.2136 50.9219 14.422 50.8167 14.554 50.6388C14.6855 50.4609 14.7255 50.2307 14.6609 50.0191L13.2366 45.3477L17.671 42.5455C18.2607 42.2193 18.9528 42.1296 19.6067 42.2953C19.6208 42.2989 19.6354 42.3021 19.6504 42.3044L28.702 43.9716C31.1669 44.4126 33.7083 44.0535 35.9553 42.9473C35.9848 42.9328 36.0135 42.9159 36.0408 42.8973L51.6968 32.1475C52.0017 31.9382 52.0909 31.5277 51.8998 31.2106C50.7098 29.2289 48.1707 28.5345 46.1381 29.6352L45.8883 29.7699C44.8012 28.4649 42.9301 27.9616 41.5031 28.6847C41.4976 28.6874 41.4926 28.6901 41.4872 28.6929L40.8719 29.0246C39.3253 27.7241 37.1302 27.5293 35.3783 28.5377L31.9914 30.3792H27.4834C26.5092 30.3779 25.5481 30.1576 24.6708 29.7349L24.0497 29.4346C20.4367 27.6763 16.1425 28.0958 12.9377 30.5198C12.9227 30.5312 12.9077 30.543 12.8931 30.5562L11.3938 31.8904C10.8359 32.3859 10.177 32.7554 9.46303 32.9725L8.61803 30.2013C8.52838 29.9073 8.25718 29.7062 7.94958 29.7062H0.699022C0.498806 29.7062 0.308145 29.7918 0.17573 29.9415ZM42.1415 29.9278C42.9451 29.5256 43.9553 29.8473 44.611 30.4584L38.7032 33.6455L38.3792 33.8166C38.1936 33.2992 37.9269 32.8146 37.5889 32.3809L42.1415 29.9278ZM36.054 29.7608L36.0709 29.7513C37.1329 29.137 38.4439 29.1411 39.5023 29.7622L36.5336 31.3616C35.9757 30.9567 35.3423 30.6682 34.6707 30.513L36.054 29.7608ZM12.3229 32.9343L13.8004 31.6192C16.5857 29.5256 20.3079 29.1679 23.4408 30.6923L24.062 30.9926C25.129 31.5068 26.298 31.7748 27.4829 31.7762H33.5044C35.3073 31.7789 36.8581 33.0521 37.2107 34.8199L32.8769 34.6238C31.2889 34.5524 29.6971 34.6261 28.1227 34.8436C27.7432 34.9 27.4802 35.2513 27.533 35.6308C27.5853 36.0108 27.9339 36.277 28.3143 36.2283C29.8045 36.0221 31.3107 35.953 32.8137 36.0203L37.9497 36.2533C37.9606 36.2533 37.9711 36.2542 37.9815 36.2542C38.3674 36.2542 38.6805 35.9411 38.6805 35.5553C38.6805 35.4502 38.6764 35.3469 38.67 35.244L39.3612 34.8795L46.8015 30.8652C47.9578 30.2391 49.3902 30.4616 50.3021 31.4094L35.2905 41.7165C33.3242 42.6729 31.105 42.981 28.9527 42.5965L19.9239 40.9338C18.9251 40.6872 17.8694 40.8301 16.9725 41.3338C16.9616 41.3401 16.9507 41.3465 16.9402 41.3533L12.813 43.9621L9.87074 34.3112C10.7781 34.0345 11.6144 33.5649 12.3229 32.9343ZM7.43175 31.1036L13.0483 49.5244H3.73457L1.48851 31.1036H7.43175Z" fill="#0A2C3B"/>
<path d="M7.98413 48.9057C9.17087 48.9062 10.1333 47.9442 10.1337 46.757C10.1337 45.5698 9.17178 44.6074 7.98459 44.6074C6.79785 44.6074 5.83545 45.5698 5.83545 46.7566C5.83681 47.9428 6.79785 48.9039 7.98413 48.9057ZM7.98413 46.0053C8.39913 46.0048 8.7354 46.3411 8.73585 46.7561C8.73585 47.1711 8.40004 47.5074 7.98504 47.5078C7.57005 47.5078 7.23332 47.1716 7.23332 46.7566C7.23378 46.342 7.56959 46.0062 7.98413 46.0053Z" fill="#0A2C3B"/>
<path d="M17.7629 22.2596H34.2366C34.6229 22.2596 34.9355 21.9465 34.9355 21.5606V11.0893H37.6489C37.9515 11.0893 38.2195 10.8946 38.3133 10.6065C38.407 10.319 38.3046 10.0036 38.0603 9.82524L26.4113 1.34472C26.1661 1.16634 25.8334 1.16634 25.5886 1.34472L13.9397 9.82524C13.6949 10.0036 13.5925 10.319 13.6862 10.6065C13.78 10.8946 14.048 11.0893 14.351 11.0893H17.064V21.5606C17.064 21.9465 17.377 22.2596 17.7629 22.2596ZM16.4984 9.69146L26 2.77399L35.5011 9.69146H34.2366C33.8507 9.69146 33.5377 10.0045 33.5377 10.3904V20.8617H18.4618V10.3904C18.4618 10.0045 18.1488 9.69146 17.7629 9.69146H16.4984Z" fill="#FF7F03"/>
</g>
<defs>
<clipPath id="clip0_1560_12627">
<rect width="52" height="52" fill="white"/>
</clipPath>
</defs>
</svg>
