<svg width="15" height="15" viewBox="0 0 15 15" fill="none" xmlns="http://www.w3.org/2000/svg">
<g clip-path="url(#clip0_1570_14536)">
<path d="M2.5 6.04688C1.69727 6.04688 1.04688 6.69727 1.04688 7.5C1.04688 8.30273 1.69727 8.95312 2.5 8.95312C3.30273 8.95312 3.95312 8.30273 3.95312 7.5C3.95312 6.69727 3.30273 6.04688 2.5 6.04688Z" fill="#8F8F8F"/>
</g>
<g clip-path="url(#clip1_1570_14536)">
<path d="M7.5 6.04688C6.69727 6.04688 6.04688 6.69727 6.04688 7.5C6.04688 8.30273 6.69727 8.95312 7.5 8.95312C8.30273 8.95312 8.95312 8.30273 8.95312 7.5C8.95312 6.69727 8.30273 6.04688 7.5 6.04688Z" fill="#8F8F8F"/>
<path d="M7.45312 6C6.65039 6 6 6.65039 6 7.45312C6 8.25586 6.65039 8.90625 7.45312 8.90625C8.25586 8.90625 8.90625 8.25586 8.90625 7.45312C8.90625 6.65039 8.25586 6 7.45312 6Z" fill="#8F8F8F"/>
</g>
<g clip-path="url(#clip2_1570_14536)">
<path d="M12.5 6.04688C11.6973 6.04688 11.0469 6.69727 11.0469 7.5C11.0469 8.30273 11.6973 8.95312 12.5 8.95312C13.3027 8.95312 13.9531 8.30273 13.9531 7.5C13.9531 6.69727 13.3027 6.04688 12.5 6.04688Z" fill="#8F8F8F"/>
<path d="M12.4531 6C11.6504 6 11 6.65039 11 7.45312C11 8.25586 11.6504 8.90625 12.4531 8.90625C13.2559 8.90625 13.9062 8.25586 13.9062 7.45312C13.9062 6.65039 13.2559 6 12.4531 6Z" fill="#8F8F8F"/>
</g>
<defs>
<clipPath id="clip0_1570_14536">
<rect width="3" height="3" fill="white" transform="translate(1 6)"/>
</clipPath>
<clipPath id="clip1_1570_14536">
<rect width="3" height="3" fill="white" transform="translate(6 6)"/>
</clipPath>
<clipPath id="clip2_1570_14536">
<rect width="3" height="3" fill="white" transform="translate(11 6)"/>
</clipPath>
</defs>
</svg>
