<svg width="70" height="70" viewBox="0 0 70 70" fill="none" xmlns="http://www.w3.org/2000/svg">
<path d="M64.2141 24.0452L54.4118 17.5358V14.961C54.4118 13.9902 53.6216 13.2032 52.6471 13.2032H47.8872L35.9788 5.29522C35.386 4.90159 34.6139 4.90159 34.0211 5.29522L22.1128 13.2032H17.3529C16.3784 13.2032 15.5882 13.9902 15.5882 14.961V17.5359L5.78588 24.0453C5.29482 24.3712 5 24.9201 5 25.5078V55.9766C5 56.9474 5.79012 57.7344 6.76471 57.7344H29.3326L33.5172 64.1952C34.2122 65.2684 35.7879 65.2684 36.4829 64.1952L40.6675 57.7344H63.2353C64.2099 57.7344 65 56.9474 65 55.9766V25.5078C65 24.9201 64.7051 24.3712 64.2141 24.0452ZM38.7052 40.7422L61.4706 28.4591V53.0252L38.7052 40.7422ZM59.8192 25.3519L54.4118 28.2694V21.761L59.8192 25.3519ZM35 8.87038L41.5246 13.2032H28.4754L35 8.87038ZM50.8824 16.7188V30.1738L35 38.743L19.1176 30.1737V16.7188H50.8824ZM15.5882 28.2694L10.1808 25.3517L15.5882 21.761V28.2694ZM39.7059 54.2188C39.1065 54.2188 38.548 54.5219 38.2231 55.0236L35 59.9998L31.7769 55.0236C31.452 54.5218 30.8935 54.2188 30.2941 54.2188H8.52941V28.4591L56.2721 54.2188H39.7059Z" fill="#333333"/>
</svg>
