<svg width="51" height="50" viewBox="0 0 51 50" fill="none" xmlns="http://www.w3.org/2000/svg">
<path d="M23.1562 13.9414V16.9102C23.1562 17.402 22.7602 17.8008 22.2718 17.8008H19.3237C18.8352 17.8008 18.4392 17.402 18.4392 16.9102V13.9414C18.4392 13.4496 18.8352 13.0508 19.3237 13.0508H22.2718C22.7602 13.0508 23.1562 13.4496 23.1562 13.9414ZM31.7058 13.0508H28.7577C28.2693 13.0508 27.8732 13.4496 27.8732 13.9414V16.9102C27.8732 17.402 28.2693 17.8008 28.7577 17.8008H31.7058C32.1942 17.8008 32.5903 17.402 32.5903 16.9102V13.9414C32.5903 13.4496 32.1942 13.0508 31.7058 13.0508ZM22.2718 20.1758H19.3237C18.8352 20.1758 18.4392 20.5746 18.4392 21.0664V24.0352C18.4392 24.527 18.8352 24.9258 19.3237 24.9258H22.2718C22.7602 24.9258 23.1562 24.527 23.1562 24.0352V21.0664C23.1562 20.5746 22.7602 20.1758 22.2718 20.1758ZM31.7058 20.1758H28.7577C28.2693 20.1758 27.8732 20.5746 27.8732 21.0664V24.0352C27.8732 24.527 28.2693 24.9258 28.7577 24.9258H31.7058C32.1942 24.9258 32.5903 24.527 32.5903 24.0352V21.0664C32.5903 20.5746 32.1942 20.1758 31.7058 20.1758ZM22.2718 27.3008H19.3237C18.8352 27.3008 18.4392 27.6996 18.4392 28.1914V31.1602C18.4392 31.652 18.8352 32.0508 19.3237 32.0508H22.2718C22.7602 32.0508 23.1562 31.652 23.1562 31.1602V28.1914C23.1562 27.6996 22.7602 27.3008 22.2718 27.3008ZM31.7058 27.3008H28.7577C28.2693 27.3008 27.8732 27.6996 27.8732 28.1914V31.1602C27.8732 31.652 28.2693 32.0508 28.7577 32.0508H31.7058C32.1942 32.0508 32.5903 31.652 32.5903 31.1602V28.1914C32.5903 27.6996 32.1942 27.3008 31.7058 27.3008ZM42.0243 42.5156V44H9.0052V42.5156C9.0052 42.0238 9.40121 41.625 9.88964 41.625H11.3637V7.78125C11.3637 6.79748 12.1556 6 13.1326 6H37.8969C38.8738 6 39.6658 6.79748 39.6658 7.78125V41.625H41.1398C41.6283 41.625 42.0243 42.0238 42.0243 42.5156ZM37.3073 41.625V8.375H13.7222V41.625H23.1562V35.3164C23.1562 34.8246 23.5522 34.4258 24.0407 34.4258H26.9888C27.4772 34.4258 27.8732 34.8246 27.8732 35.3164V41.625H37.3073Z" fill="#FF7F03"/>
</svg>
