<svg width="28" height="28" viewBox="0 0 28 28" fill="none" xmlns="http://www.w3.org/2000/svg">
<path d="M13.5216 14.1087L17.571 10.1212C17.7325 9.95961 17.9938 9.95961 18.1554 10.1212L18.3994 10.3652C18.561 10.5268 18.561 10.788 18.3994 10.9496L14.8829 14.4009L18.396 17.8521C18.5575 18.0137 18.5575 18.2749 18.396 18.4365L18.1519 18.6805C17.9904 18.8421 17.7291 18.8421 17.5675 18.6805L13.5182 14.693C13.36 14.5315 13.36 14.2702 13.5216 14.1087ZM9.12161 14.693L13.171 18.6805C13.3325 18.8421 13.5938 18.8421 13.7554 18.6805L13.9994 18.4365C14.161 18.2749 14.161 18.0137 13.9994 17.8521L10.4829 14.4009L13.996 10.9496C14.1575 10.788 14.1575 10.5268 13.996 10.3652L13.7519 10.1212C13.5904 9.95961 13.3291 9.95961 13.1675 10.1212L9.11817 14.1087C8.96004 14.2702 8.96004 14.5315 9.12161 14.693Z" fill="black"/>
</svg>
