<svg width="28" height="28" viewBox="0 0 28 28" fill="none" xmlns="http://www.w3.org/2000/svg">
<path d="M13.999 14.693L9.94961 18.6805C9.78805 18.8421 9.5268 18.8421 9.36523 18.6805L9.12117 18.4365C8.95961 18.2749 8.95961 18.0137 9.12117 17.8521L12.6377 14.4009L9.12461 10.9496C8.96305 10.788 8.96305 10.5268 9.12461 10.3652L9.36867 10.1212C9.53023 9.95961 9.79148 9.95961 9.95305 10.1212L14.0024 14.1087C14.1605 14.2702 14.1605 14.5315 13.999 14.693ZM18.399 14.1087L14.3496 10.1212C14.188 9.95961 13.9268 9.95961 13.7652 10.1212L13.5212 10.3652C13.3596 10.5268 13.3596 10.788 13.5212 10.9496L17.0377 14.4009L13.5246 17.8521C13.363 18.0137 13.363 18.2749 13.5246 18.4365L13.7687 18.6805C13.9302 18.8421 14.1915 18.8421 14.353 18.6805L18.4024 14.693C18.5605 14.5315 18.5605 14.2702 18.399 14.1087Z" fill="black"/>
</svg>
