<svg width="40" height="40" viewBox="0 0 40 40" fill="none" xmlns="http://www.w3.org/2000/svg">
<rect width="40" height="40" rx="3" fill="#F5F5F5"/>
<path d="M27.7818 18.4909C26.1091 16.8182 22.3273 13.0364 20.5091 11.2182C20.2182 10.9273 19.7818 10.9273 19.4909 11.2182C17.6727 13.0364 13.8909 16.8182 12.2182 18.4909C11.9273 18.7818 11.9273 19.2182 12.2182 19.5091C12.5091 19.8 12.9455 19.8 13.2364 19.5091L14.1818 18.5636V26.2727C14.1818 26.7091 14.4727 27 14.9091 27H25.0909C25.5273 27 25.8182 26.7091 25.8182 26.2727V18.5636L26.7636 19.5091C27.0545 19.8 27.4909 19.8 27.7818 19.5091C28.0727 19.2182 28.0727 18.7818 27.7818 18.4909ZM24.3636 25.5454H15.6364V17.1091L20 12.7455L24.3636 17.1091V25.5454Z" fill="#FF7F03"/>
<path d="M19.3333 17.6C18.6 17.78 18 18.38 18 19.1C18 19.94 18.7333 20.6 19.6667 20.6H20.3333C20.5333 20.6 20.6667 20.72 20.6667 20.9C20.6667 21.08 20.5333 21.2 20.3333 21.2H18.6667C18.2667 21.2 18 21.44 18 21.8C18 22.16 18.2667 22.4 18.6667 22.4H19.3333C19.3333 22.76 19.6 23 20 23C20.4 23 20.6667 22.76 20.6667 22.4V22.34C21.4 22.22 22 21.62 22 20.9C22 20.06 21.2667 19.4 20.3333 19.4H19.6667C19.4667 19.4 19.3333 19.28 19.3333 19.1C19.3333 18.92 19.4667 18.8 19.6667 18.8H21.3333C21.7333 18.8 22 18.56 22 18.2C22 17.84 21.7333 17.6 21.3333 17.6H20.6667C20.6667 17.24 20.4 17 20 17C19.6 17 19.3333 17.24 19.3333 17.6Z" fill="#FF7F03"/>
</svg>
