<svg width="40" height="40" viewBox="0 0 40 40" fill="none" xmlns="http://www.w3.org/2000/svg">
<rect width="40" height="40" rx="3" fill="#F5F5F5"/>
<g clip-path="url(#clip0_1606_39393)">
<path d="M28.1818 17.5498C28.6727 17.5498 29 17.2223 29 16.7311V14.2749C29 13.9474 28.7545 13.6199 28.4273 13.4562L20.2455 11C20.1636 11 20.0818 11 20 11H15.0909C15.0091 11 14.7636 11.0819 14.6 11.1637L11.3273 13.6199C11.0818 13.7837 11 14.0293 11 14.2749V16.7311C11 17.2223 11.3273 17.5498 11.8182 17.5498H14.2727V28.1933C14.2727 28.9302 15.1727 29.2577 15.6636 28.7664L17.5455 26.8833L19.4273 28.7664C19.9182 29.2577 20.8182 28.9302 20.8182 28.1933V17.5498H25.7273V22.4622H24.9091C24.4182 22.4622 24.0909 22.7897 24.0909 23.2809V26.5559C24.0909 27.0471 24.4182 27.3746 24.9091 27.3746H28.1818C28.6727 27.3746 29 27.0471 29 26.5559V23.2809C29 22.7897 28.6727 22.4622 28.1818 22.4622H27.3636V17.5498H28.1818ZM27.3636 25.7371H25.7273V24.0997H27.3636V25.7371ZM15.9091 22.7897L17.5455 21.1522L19.1818 22.7897V22.9534L17.5455 24.5909L15.9091 22.9534V22.7897ZM15.9091 20.4973V19.5148L16.4 20.006L15.9091 20.4973ZM18.6909 20.006L19.1818 19.5148V20.4973L18.6909 20.006ZM19.1818 12.6375V15.9124H15.9091V12.6375H19.1818ZM18.8546 17.5498L17.5455 18.8598L16.2364 17.5498H18.8546ZM12.6364 15.9124V14.6843L14.2727 13.4562V15.9124H12.6364ZM15.9091 26.2284V25.2459L16.4 25.7371L15.9091 26.2284ZM19.1818 25.2459V26.2284L18.6909 25.7371L19.1818 25.2459ZM20.8182 12.8831L27.3636 14.848V15.9124H20.8182V12.8831Z" fill="#FF7F03"/>
</g>
<defs>
<clipPath id="clip0_1606_39393">
<rect width="18" height="18" fill="white" transform="translate(11 11)"/>
</clipPath>
</defs>
</svg>
