<svg width="65" height="65" viewBox="0 0 65 65" fill="none" xmlns="http://www.w3.org/2000/svg">
<g clip-path="url(#clip0_1526_12024)">
<path d="M48.3952 30.9728C45.8693 30.9701 43.3766 31.547 41.1088 32.659V16.3304C41.1088 15.8832 40.7464 15.5213 40.2997 15.5213H38.3511V11.4119C38.3511 10.9652 37.9887 10.6027 37.542 10.6027H34.4255V8.74427C34.4255 8.29756 34.0631 7.93513 33.6164 7.93513C33.1697 7.93513 32.8073 8.29756 32.8073 8.74427V10.6027H29.6171C29.1704 10.6027 28.808 10.9652 28.808 11.4119V15.5213H26.3779V10.3072C26.3779 9.85998 26.0155 9.49809 25.5688 9.49809H22.0447V5.32178C22.0447 4.87507 21.6822 4.51265 21.2355 4.51265H13.8532V1.88823C13.8532 1.441 13.4913 1.0791 13.0441 1.0791C12.5974 1.0791 12.235 1.441 12.235 1.88823V4.51265H5.14189C4.69466 4.51265 4.33276 4.87507 4.33276 5.32178V9.49809H0.809133C0.362424 9.49809 0 9.85998 0 10.3072V54.8601C0 55.3068 0.362424 55.6692 0.809133 55.6692H33.8988C37.8412 62.7312 46.2986 65.9251 53.9248 63.2322C61.5515 60.5393 66.1276 52.7424 64.7612 44.7707C63.3947 36.7989 56.4828 30.9717 48.3952 30.9728ZM5.95102 6.13091H20.4264V9.49809H5.95102V6.13091ZM17.3316 54.051H13.8532V45.81H17.3316V54.051ZM12.235 54.051H9.04585V45.81H12.235V54.051ZM24.7591 54.051H18.9498V45.0009C18.9498 44.5537 18.5874 44.1918 18.1407 44.1918H8.23672C7.79001 44.1918 7.42759 44.5537 7.42759 45.0009V54.051H1.61827V11.1164H4.71309C4.97543 11.2812 5.30835 11.2812 5.57069 11.1164H20.8067C21.0685 11.2812 21.402 11.2812 21.6638 11.1164H24.7597L24.7591 54.051ZM30.4262 12.221H36.7328V15.5213H30.4262V12.221ZM26.3779 54.051V17.1395H39.4911V33.5682C38.4881 34.2082 37.5557 34.9536 36.7107 35.7917C36.578 35.7022 36.421 35.6543 36.2603 35.6548H29.6703C29.2231 35.6548 28.8612 36.0167 28.8612 36.4639C28.8612 36.9106 29.2231 37.273 29.6703 37.273H35.3843C34.424 38.482 33.637 39.819 33.0459 41.2455H29.6703C29.2231 41.2455 28.8612 41.6079 28.8612 42.0546C28.8612 42.5019 29.2231 42.8638 29.6703 42.8638H32.4733C32.0482 44.2976 31.8201 45.7826 31.7943 47.2782H29.6703C29.2231 47.2782 28.8612 47.6406 28.8612 48.0873C28.8612 48.534 29.2231 48.8964 29.6703 48.8964H31.8412C31.9808 50.6717 32.4064 52.4122 33.1028 54.051H26.3779ZM48.3957 62.5653C40.1184 62.5658 33.4078 55.8562 33.4078 47.579C33.4073 39.3017 40.1174 32.591 48.3947 32.591C56.672 32.591 63.3821 39.3011 63.3821 47.5784C63.3726 55.8515 56.6683 62.5558 48.3952 62.5653H48.3957Z" fill="#0A2C3B"/>
<path d="M20.5481 22.2656H5.83458C5.38788 22.2656 5.02545 22.628 5.02545 23.0748C5.02545 23.522 5.38788 23.8839 5.83458 23.8839H20.5475C20.9942 23.8839 21.3567 23.522 21.3567 23.0748C21.3567 22.628 20.9942 22.2656 20.5475 22.2656H20.5481Z" fill="#0A2C3B"/>
<path d="M20.5481 29.0332H5.83458C5.38788 29.0332 5.02545 29.3956 5.02545 29.8423C5.02545 30.2896 5.38788 30.6515 5.83458 30.6515H20.5475C20.9942 30.6515 21.3567 30.2896 21.3567 29.8423C21.3567 29.3956 20.9942 29.0332 20.5475 29.0332H20.5481Z" fill="#0A2C3B"/>
<path d="M20.5481 35.8018H5.83458C5.38788 35.8018 5.02545 36.1642 5.02545 36.6109C5.02545 37.0581 5.38788 37.42 5.83458 37.42H20.5475C20.9942 37.42 21.3567 37.0581 21.3567 36.6109C21.3567 36.1642 20.9942 35.8018 20.5475 35.8018H20.5481Z" fill="#0A2C3B"/>
<path d="M20.5481 15.4971H5.83458C5.38788 15.4971 5.02545 15.8595 5.02545 16.3062C5.02545 16.7534 5.38788 17.1153 5.83458 17.1153H20.5475C20.9942 17.1153 21.3567 16.7534 21.3567 16.3062C21.3567 15.8595 20.9942 15.4971 20.5475 15.4971H20.5481Z" fill="#0A2C3B"/>
<path d="M29.6703 31.2403H35.997C36.4437 31.2403 36.8061 30.8779 36.8061 30.4312C36.8061 29.984 36.4437 29.6221 35.997 29.6221H29.6703C29.2231 29.6221 28.8612 29.984 28.8612 30.4312C28.8612 30.8779 29.2231 31.2403 29.6703 31.2403Z" fill="#0A2C3B"/>
<path d="M29.6703 25.3546H35.997C36.4437 25.3546 36.8061 24.9927 36.8061 24.5455C36.8061 24.0988 36.4437 23.7363 35.997 23.7363H29.6703C29.2231 23.7363 28.8612 24.0988 28.8612 24.5455C28.8612 24.9927 29.2231 25.3546 29.6703 25.3546Z" fill="#0A2C3B"/>
<path d="M48.3952 40.2461C50.3496 40.2482 51.9336 41.8322 51.9357 43.7871C51.9357 44.2338 52.2981 44.5962 52.7448 44.5962C53.1921 44.5962 53.554 44.2338 53.554 43.7871C53.5508 41.2512 51.7081 39.093 49.2043 38.6916V37.0464C49.2043 36.5997 48.8419 36.2373 48.3952 36.2373C47.948 36.2373 47.5861 36.5997 47.5861 37.0464V38.6916C44.9274 39.114 43.04 41.5093 43.2517 44.1927C43.4635 46.8767 45.7028 48.9464 48.3952 48.9459C50.3417 48.9469 51.922 50.5193 51.9336 52.4658C51.9452 54.4122 50.3833 56.0026 48.4368 56.0268C48.4231 56.0258 48.41 56.0247 48.3952 56.0247C48.3805 56.0247 48.3673 56.0258 48.3536 56.0268C46.4156 56.0021 44.8568 54.4254 44.8542 52.4869C44.8542 52.0402 44.4918 51.6777 44.0451 51.6777C43.5984 51.6777 43.2359 52.0402 43.2359 52.4869C43.2391 55.0228 45.0823 57.181 47.5861 57.5819V59.4251C47.5861 59.8718 47.948 60.2342 48.3952 60.2342C48.8419 60.2342 49.2043 59.8718 49.2043 59.4251V57.5819C51.863 57.1599 53.7504 54.7647 53.5387 52.0812C53.3269 49.3973 51.087 47.3276 48.3952 47.3276C47.1246 47.3355 45.9478 46.6623 45.3104 45.5639C44.673 44.4651 44.673 43.1091 45.3104 42.0103C45.9478 40.9114 47.1246 40.2382 48.3952 40.2461Z" fill="#FF7F03"/>
</g>
<defs>
<clipPath id="clip0_1526_12024">
<rect width="65" height="65" fill="white"/>
</clipPath>
</defs>
</svg>
