<svg width="90" height="90" viewBox="0 0 90 90" fill="none" xmlns="http://www.w3.org/2000/svg">
<path d="M57.5762 46.3652C51.4339 46.3652 46.4541 51.345 46.4541 57.4874C46.4541 63.6297 51.4339 68.6095 57.5762 68.6095C63.7186 68.6095 68.6984 63.6297 68.6984 57.4874C68.6912 51.3479 63.7157 46.3724 57.5762 46.3652ZM57.5762 66.4144C52.6458 66.4144 48.6492 62.4178 48.6492 57.4874C48.6492 52.5569 52.6458 48.5604 57.5762 48.5604C62.506 48.5604 66.5032 52.5569 66.5032 57.4874C66.4975 62.415 62.5038 66.4086 57.5762 66.4144Z" fill="#FF7F03"/>
<path d="M57.5763 53.5676C58.3395 53.5683 58.9583 54.1871 58.9597 54.9502C58.9597 55.5569 59.4506 56.0478 60.0573 56.0478C60.6632 56.0478 61.1548 55.5569 61.1548 54.9502C61.1527 53.3982 60.1509 52.0234 58.6739 51.5461V51.1073C58.6739 50.5007 58.1823 50.0098 57.5763 50.0098C56.9704 50.0098 56.4787 50.5007 56.4787 51.1073V51.5461C54.8017 52.0863 53.7677 53.7662 54.0414 55.5069C54.3143 57.2468 55.8142 58.5295 57.5763 58.5288C58.3352 58.5309 58.9504 59.144 58.9554 59.9021C58.9604 60.661 58.353 61.282 57.5949 61.2941C57.5885 61.2941 57.5827 61.2941 57.5763 61.2941C57.5692 61.2941 57.5649 61.2941 57.5577 61.2941C56.8017 61.2841 56.1936 60.6681 56.1922 59.9114C56.1922 59.3055 55.7013 58.8139 55.0946 58.8139C54.4887 58.8139 53.9971 59.3055 53.9971 59.9114C53.9992 61.4642 55.001 62.8383 56.478 63.3163V63.8679C56.478 64.4746 56.9696 64.9655 57.5756 64.9655C58.1815 64.9655 58.6732 64.4746 58.6732 63.8679V63.3163C60.3495 62.7761 61.3835 61.0955 61.1105 59.3555C60.8368 57.6155 59.337 56.3329 57.5756 56.3336C56.8117 56.3336 56.1922 55.7141 56.1922 54.9502C56.1922 54.1864 56.8124 53.5676 57.5763 53.5676Z" fill="#FF7F03"/>
<path d="M80.6997 55.9226C80.3853 55.6089 79.9136 55.5153 79.5035 55.6846C79.0933 55.8547 78.8261 56.2549 78.8261 56.6986V59.5919H73.8206C73.9099 58.8944 73.9549 58.192 73.9549 57.4882C73.9578 53.1744 72.2528 49.0349 69.2124 45.9738C69.1945 45.9516 69.1788 45.928 69.1581 45.9066C69.1366 45.8859 69.1131 45.8702 69.0909 45.8523C66.2906 43.0727 62.5798 41.4006 58.6426 41.1455V38.7074H67.2302C67.7054 38.7074 68.127 38.4016 68.2742 37.95C68.4214 37.4977 68.2606 37.0025 67.8762 36.7224L59.1121 30.342C59.1121 30.3249 59.1142 30.3085 59.1142 30.2913V20.3125C59.1142 19.7065 58.6233 19.2149 58.0167 19.2149C57.4107 19.2149 56.9191 19.7065 56.9191 20.3125V28.745L34.8099 12.6495C34.4247 12.3694 33.9031 12.3694 33.518 12.6495L0.451687 36.7231C0.067254 37.0025 -0.0928075 37.4977 0.0536773 37.95C0.200877 38.4016 0.622467 38.7074 1.09765 38.7074H9.68523V76.6648C9.68523 77.2715 10.1769 77.7624 10.7828 77.7624H57.545C58.151 77.7624 58.6426 77.2715 58.6426 76.6648V73.8295C61.0893 73.6716 63.4688 72.9649 65.6053 71.7622H78.8261V74.6555C78.8261 75.0992 79.0933 75.4994 79.5035 75.6695C79.9136 75.8395 80.3853 75.7452 80.6997 75.4315L89.6788 66.4524C90.1068 66.0236 90.1068 65.3291 89.6788 64.9003L80.6997 55.9226ZM56.4475 75.568H11.8804V37.6098C11.8804 37.0039 11.3887 36.5123 10.7828 36.5123H4.46966L34.1639 14.894L63.8582 36.5123H57.545C56.9391 36.5123 56.4475 37.0039 56.4475 37.6098V41.1483C54.0258 41.3127 51.6714 42.0172 49.5577 43.2106H36.3269V40.3173C36.3269 39.8736 36.0597 39.4734 35.6495 39.3033C35.2393 39.134 34.7677 39.2276 34.4533 39.5413L25.4742 48.5219C25.0454 48.9499 25.0454 49.6452 25.4742 50.0739L34.4533 59.0531C34.7677 59.3668 35.2393 59.4604 35.6495 59.291C36.0597 59.121 36.3269 58.7208 36.3269 58.2771V55.3824H41.3324C40.6857 60.3907 42.3864 65.4162 45.9413 69.0026C45.9592 69.0241 45.9742 69.0483 45.9949 69.0684C46.0156 69.0891 46.0392 69.1041 46.0606 69.1227C48.8453 71.8873 52.5324 73.5572 56.4475 73.8266V75.568ZM35.2293 45.4057H46.5301C46.3715 45.5515 46.2157 45.7001 46.0621 45.8516C46.0399 45.8694 46.0156 45.8852 45.9949 45.9059C45.9742 45.9273 45.9585 45.9509 45.9399 45.9731C43.952 47.9788 42.5164 50.4641 41.7719 53.188H35.2293C34.6234 53.188 34.1318 53.6789 34.1318 54.2855V55.626L27.8029 49.2972L34.1318 42.9676V44.3088C34.1325 44.9148 34.6234 45.4057 35.2293 45.4057ZM68.0348 66.3938C67.6061 65.965 66.9115 65.965 66.4828 66.3938C66.054 66.8225 66.054 67.5178 66.4828 67.9465L66.7972 68.2602C64.5192 70.2217 61.6716 71.4014 58.6741 71.6258V71.1799C58.6741 70.5732 58.1824 70.0823 57.5765 70.0823C56.9705 70.0823 56.4789 70.5732 56.4789 71.1799V71.6229C53.4835 71.3928 50.6395 70.2124 48.3608 68.2545L48.6702 67.9451C49.0982 67.5163 49.0989 66.8218 48.6702 66.393C48.2415 65.9643 47.5462 65.9643 47.1175 66.393L46.8081 66.7024C44.8502 64.4237 43.6704 61.5798 43.4396 58.5836H43.8834C44.4893 58.5836 44.9809 58.0927 44.9809 57.486C44.9809 56.8801 44.4893 56.3885 43.8834 56.3885H43.4396C43.6697 53.393 44.8502 50.5491 46.8081 48.2704L47.1175 48.5798C47.5462 49.0085 48.2415 49.0085 48.6702 48.5798C49.0982 48.151 49.0982 47.4558 48.6702 47.027L48.3608 46.7183C50.6395 44.7597 53.4835 43.58 56.4789 43.3492V43.7929C56.4789 44.3989 56.9705 44.8905 57.5765 44.8905C58.1824 44.8905 58.6741 44.3989 58.6741 43.7929V43.3492C61.6695 43.58 64.5134 44.7597 66.7922 46.7183L66.4828 47.027C66.054 47.4558 66.054 48.151 66.4828 48.5798C66.9115 49.0085 67.6068 49.0085 68.0348 48.5798L68.3442 48.2704C70.3028 50.5491 71.4825 53.393 71.7133 56.3885H71.2696C70.6637 56.3885 70.172 56.8801 70.172 57.486C70.172 58.0927 70.6637 58.5836 71.2696 58.5836H71.7133C71.6719 59.1388 71.5976 59.6912 71.4911 60.2371C71.4275 60.3772 71.3947 60.5286 71.3932 60.6823C70.8787 62.906 69.8348 64.9732 68.3485 66.706L68.0348 66.3938ZM81.0212 72.0073V70.6661C81.0212 70.0602 80.5296 69.5686 79.9236 69.5686H68.6343C68.8079 69.4099 68.9773 69.247 69.1438 69.0805C69.1481 69.0762 69.1538 69.0726 69.1581 69.0684C69.1624 69.0641 69.1659 69.0584 69.1702 69.0541C71.1817 67.039 72.6337 64.5338 73.3833 61.787H79.9236C80.5303 61.787 81.0212 61.2954 81.0212 60.6894V59.3482L87.3508 65.6778L81.0212 72.0073Z" fill="#0A2C3B"/>
</svg>
