<svg width="90" height="90" viewBox="0 0 90 90" fill="none" xmlns="http://www.w3.org/2000/svg">
<path d="M13.3521 22.281L20.9092 27.7945V64.8483C20.9092 65.4542 21.4009 65.9459 22.0068 65.9459C22.6127 65.9459 23.1044 65.4542 23.1044 64.8483V29.3958L24.9443 30.7377C25.4338 31.095 26.1205 30.9878 26.4778 30.4984C26.835 30.0082 26.7278 29.3222 26.2384 28.9649L23.1044 26.6784V21.9873C23.1044 21.3807 22.6127 20.8898 22.0068 20.8898C21.4009 20.8898 20.9092 21.3807 20.9092 21.9873V25.0763L14.0002 20.0366C13.6158 19.7565 13.0935 19.7558 12.7083 20.0359L0.452339 28.9399C-0.0378436 29.2965 -0.146455 29.9825 0.209391 30.4734C0.565953 30.9635 1.25264 31.0721 1.74282 30.7156L3.59065 29.3744V68.0238C3.59065 68.6297 4.08155 69.1213 4.6882 69.1213C5.29414 69.1213 5.78576 68.6297 5.78576 68.0238V27.7802L13.3521 22.281Z" fill="#0A2C3B"/>
<path d="M27.6365 14.183L29.4836 12.8411L29.4815 43.8219C29.4815 44.4286 29.9724 44.9195 30.579 44.9195C31.185 44.9195 31.6766 44.4286 31.6766 43.8219L31.6787 11.2462L39.2458 5.74772L46.8022 11.2612L46.8001 46.082C46.8001 46.688 47.2917 47.1796 47.8976 47.1796C48.5036 47.1796 48.9952 46.688 48.9952 46.082L48.9973 12.8625L50.838 14.2052C51.3275 14.5624 52.0141 14.4553 52.3714 13.9651C52.7287 13.4749 52.6215 12.7882 52.1313 12.4309L48.9973 10.1444V5.45476C48.9973 4.84882 48.5057 4.35721 47.8998 4.35721C47.2938 4.35721 46.8022 4.84882 46.8022 5.45476V8.54377L39.8932 3.50403C39.5081 3.22321 38.9864 3.2225 38.6013 3.5026L26.346 12.4073C25.8615 12.7653 25.7565 13.447 26.1102 13.9351C26.4646 14.4224 27.1456 14.5331 27.6365 14.183Z" fill="#0A2C3B"/>
<path d="M56.4649 43.8945H56.4634C55.8575 43.8945 55.3666 44.3854 55.3659 44.9907L55.3623 47.0929C55.3616 47.6988 55.8525 48.1912 56.4584 48.1919H56.4599C57.0658 48.1919 57.5567 47.7017 57.5574 47.0958L57.561 44.9942C57.5617 44.3876 57.0708 43.896 56.4649 43.8945Z" fill="#0A2C3B"/>
<path d="M51.9964 27.938C52.3522 28.4282 53.0389 28.5368 53.5291 28.1803L55.3748 26.8398L55.3676 41.4524C55.3676 42.0583 55.8592 42.5499 56.4652 42.5499C57.0718 42.5499 57.5627 42.0583 57.5627 41.4524L57.5713 25.2427L65.1384 19.745L72.6877 25.252L72.6819 30.2818V36.3011C72.6819 36.9071 73.1728 37.3987 73.7795 37.3987C74.3854 37.3987 74.877 36.9071 74.877 36.3011V30.2825L74.8813 26.8519L76.7306 28.201C77.0471 28.4368 77.4659 28.4839 77.8274 28.3253C78.189 28.1667 78.4369 27.8266 78.4777 27.4336C78.5184 27.0413 78.3455 26.6568 78.0246 26.4275L74.8849 24.1373L74.8906 19.452C74.8913 18.8461 74.4004 18.3537 73.7945 18.353H73.7924C73.1871 18.353 72.6962 18.8439 72.6948 19.4492L72.6912 22.5374L65.7858 17.4999C65.4014 17.219 64.879 17.219 64.4939 17.4984L52.2386 26.4032C52.0028 26.5747 51.8449 26.8326 51.7992 27.1199C51.7534 27.4078 51.8249 27.7022 51.9964 27.938Z" fill="#0A2C3B"/>
<path d="M71.4073 43.2441C61.1385 43.2441 52.814 51.5687 52.814 61.8368C52.814 72.1056 61.1385 80.4294 71.4073 80.4301C81.6754 80.4301 90 72.1056 90 61.8368C89.9885 51.573 81.6711 43.2556 71.4073 43.2441ZM71.4073 78.235C62.3511 78.235 55.0091 70.893 55.0091 61.8368C55.0091 52.7806 62.3511 45.4392 71.4073 45.4392C80.4636 45.4392 87.8049 52.7806 87.8049 61.8368C87.7949 70.8894 80.4593 78.225 71.4073 78.235Z" fill="#0A2C3B"/>
<path d="M71.4075 53.6847C73.3261 53.6869 74.8809 55.2418 74.8831 57.1603C74.8831 57.7663 75.374 58.2579 75.9806 58.2579C76.5866 58.2579 77.0782 57.7663 77.0782 57.1603C77.0746 54.4529 75.1603 52.1242 72.5051 51.5968V50.0741C72.5051 49.4682 72.0134 48.9766 71.4075 48.9766C70.8008 48.9766 70.3099 49.4682 70.3099 50.0741V51.5968C67.4475 52.1628 65.4817 54.808 65.7654 57.7112C66.0491 60.6152 68.49 62.8303 71.4075 62.831C73.2975 62.8625 74.8166 64.3987 74.8252 66.2894C74.8345 68.1801 73.3304 69.7314 71.4404 69.7807C71.4289 69.7807 71.4182 69.7786 71.4075 69.7786C71.3961 69.7786 71.3854 69.78 71.3746 69.7807C69.4689 69.7607 67.9341 68.2123 67.9319 66.3066C67.9319 65.7007 67.4403 65.209 66.8344 65.209C66.2277 65.209 65.7368 65.7007 65.7368 66.3066C65.7404 69.014 67.654 71.342 70.3099 71.8694V73.6007C70.3099 74.2067 70.8008 74.6983 71.4075 74.6983C72.0134 74.6983 72.5051 74.2067 72.5051 73.6007V71.8694C75.3668 71.3042 77.3333 68.6589 77.0496 65.755C76.7659 62.851 74.325 60.6366 71.4075 60.6359C69.4875 60.6359 67.9319 59.0796 67.9319 57.1603C67.9319 55.241 69.4875 53.6847 71.4075 53.6847Z" fill="#FF7F03"/>
<path d="M10.4608 79.1855C9.8549 79.1855 9.36328 79.6764 9.36328 80.2831V85.5766C9.36328 86.1825 9.8549 86.6741 10.4608 86.6741C11.0668 86.6741 11.5584 86.1825 11.5584 85.5766V80.2831C11.5584 79.6764 11.0668 79.1855 10.4608 79.1855Z" fill="#0A2C3B"/>
<path d="M10.4611 62.1562C9.85511 62.1562 9.36349 62.6479 9.36349 63.2538V76.3259C9.36349 76.9319 9.85511 77.4235 10.4611 77.4235C11.067 77.4235 11.5586 76.9319 11.5586 76.3259V63.2538C11.5586 62.6479 11.067 62.1562 10.4611 62.1562Z" fill="#0A2C3B"/>
<path d="M10.4611 56.6543C9.85511 56.6543 9.36349 57.1452 9.36349 57.7519V59.1381C9.36349 59.744 9.85511 60.2357 10.4611 60.2357C11.067 60.2357 11.5586 59.744 11.5586 59.1381V57.7519C11.5586 57.1452 11.067 56.6543 10.4611 56.6543Z" fill="#0A2C3B"/>
<path d="M4.68838 78.457C4.08172 78.457 3.59082 78.9486 3.59082 79.5546V83.7476C3.59082 84.3536 4.08172 84.8452 4.68838 84.8452C5.29433 84.8452 5.78594 84.3536 5.78594 83.7476V79.5546C5.78594 78.9486 5.29433 78.457 4.68838 78.457Z" fill="#0A2C3B"/>
<path d="M4.68838 70.0293C4.08172 70.0293 3.59082 70.5209 3.59082 71.1269V75.4807C3.59082 76.0873 4.08172 76.5782 4.68838 76.5782C5.29433 76.5782 5.78594 76.0873 5.78594 75.4807V71.1269C5.78594 70.5209 5.29433 70.0293 4.68838 70.0293Z" fill="#0A2C3B"/>
<path d="M22.0067 76.875C21.4008 76.875 20.9092 77.3666 20.9092 77.9726V83.9255C20.9092 84.5322 21.4008 85.0231 22.0067 85.0231C22.6127 85.0231 23.1043 84.5322 23.1043 83.9255V77.9733C23.1043 77.3666 22.6134 76.875 22.0067 76.875Z" fill="#0A2C3B"/>
<path d="M23.1043 68.787C23.1043 68.1811 22.6127 67.6895 22.0067 67.6895C21.4008 67.6895 20.9092 68.1811 20.9092 68.787V74.084C20.9092 74.69 21.4008 75.1816 22.0067 75.1816C22.6127 75.1816 23.1043 74.69 23.1043 74.084V68.787Z" fill="#0A2C3B"/>
<path d="M17.3314 60.0526C17.3314 59.446 16.8397 58.9551 16.2338 58.9551C15.6278 58.9551 15.1362 59.446 15.1362 60.0526V67.0682C15.1362 67.6748 15.6278 68.1657 16.2338 68.1657C16.8397 68.1657 17.3314 67.6748 17.3314 67.0682V60.0526Z" fill="#0A2C3B"/>
<path d="M16.2339 69.9766C15.628 69.9766 15.1364 70.4682 15.1364 71.0741V85.7554C15.1364 86.3621 15.628 86.853 16.2339 86.853C16.8399 86.853 17.3315 86.3621 17.3315 85.7554V71.0741C17.3315 70.4682 16.8399 69.9766 16.2339 69.9766Z" fill="#0A2C3B"/>
<path d="M17.3314 55.5839C17.3314 54.9779 16.8397 54.4863 16.2338 54.4863C15.6278 54.4863 15.1362 54.9779 15.1362 55.5839V56.9173C15.1362 57.5239 15.6278 58.0148 16.2338 58.0148C16.8397 58.0148 17.3314 57.5239 17.3314 56.9173V55.5839Z" fill="#0A2C3B"/>
<path d="M36.3514 51.168C35.7455 51.168 35.2538 51.6596 35.2538 52.2655V61.2347C35.2538 61.8406 35.7455 62.3322 36.3514 62.3322C36.9574 62.3322 37.449 61.8406 37.449 61.2347V52.2655C37.449 51.6596 36.9574 51.168 36.3514 51.168Z" fill="#0A2C3B"/>
<path d="M37.449 48.2655C37.449 47.6596 36.9574 47.168 36.3515 47.168C35.7455 47.168 35.2539 47.6596 35.2539 48.2655V48.6235C35.2539 49.2295 35.7455 49.7211 36.3515 49.7211C36.9574 49.7211 37.449 49.2295 37.449 48.6235V48.2655Z" fill="#0A2C3B"/>
<path d="M37.449 31.5956C37.449 30.9889 36.9574 30.498 36.3515 30.498C35.7455 30.498 35.2539 30.9889 35.2539 31.5956V44.667C35.2539 45.273 35.7455 45.7646 36.3515 45.7646C36.9574 45.7646 37.449 45.273 37.449 44.667V31.5956Z" fill="#0A2C3B"/>
<path d="M29.481 47.8944V52.0882C29.481 52.6941 29.9719 53.1857 30.5785 53.1857C31.1845 53.1857 31.6761 52.6941 31.6761 52.0882V47.8944C31.6761 47.2885 31.1845 46.7969 30.5785 46.7969C29.9719 46.7969 29.481 47.2885 29.481 47.8944Z" fill="#0A2C3B"/>
<path d="M46.8003 49.9726V52.2663C46.8003 52.873 47.2919 53.3639 47.8979 53.3639C48.5038 53.3639 48.9954 52.873 48.9954 52.2663V49.9726C48.9954 49.3666 48.5038 48.875 47.8979 48.875C47.2919 48.875 46.8003 49.3666 46.8003 49.9726Z" fill="#0A2C3B"/>
<path d="M43.222 35.4081C43.222 34.8014 42.7311 34.3105 42.1244 34.3105C41.5185 34.3105 41.0269 34.8014 41.0269 35.4081V35.7089C41.0269 36.3149 41.5185 36.8065 42.1244 36.8065C42.7311 36.8065 43.222 36.3149 43.222 35.7089V35.4081Z" fill="#0A2C3B"/>
<path d="M43.222 39.414C43.222 38.808 42.7311 38.3164 42.1244 38.3164C41.5185 38.3164 41.0269 38.808 41.0269 39.414V56.8635C41.0269 57.4694 41.5185 57.961 42.1244 57.961C42.7311 57.961 43.222 57.4694 43.222 56.8635V39.414Z" fill="#0A2C3B"/>
<path d="M42.1244 59.7637C41.5185 59.7637 41.0269 60.2546 41.0269 60.8612V61.4114C41.0269 62.0181 41.5185 62.509 42.1244 62.509C42.7311 62.509 43.222 62.0181 43.222 61.4114V60.8612C43.222 60.2546 42.7311 59.7637 42.1244 59.7637Z" fill="#0A2C3B"/>
<path d="M62.2445 35.3066C61.6386 35.3066 61.147 35.7983 61.147 36.4042V42.5344C61.147 43.1411 61.6386 43.632 62.2445 43.632C62.8505 43.632 63.3421 43.1411 63.3421 42.5344V36.4042C63.3421 35.7983 62.8505 35.3066 62.2445 35.3066Z" fill="#0A2C3B"/>
<path d="M63.3421 32.5722C63.3421 31.9662 62.8505 31.4746 62.2445 31.4746C61.6386 31.4746 61.147 31.9662 61.147 32.5722V32.6422C61.147 33.2481 61.6386 33.7398 62.2445 33.7398C62.8505 33.7398 63.3421 33.2481 63.3421 32.6422V32.5722Z" fill="#0A2C3B"/>
<path d="M73.7904 38.5254C73.1844 38.5254 72.6928 39.0163 72.6928 39.623V40.5026C72.6928 41.1085 73.1844 41.6001 73.7904 41.6001C74.397 41.6001 74.8879 41.1085 74.8879 40.5026V39.623C74.8879 39.0163 74.397 38.5254 73.7904 38.5254Z" fill="#0A2C3B"/>
<path d="M66.9199 35.7694V40.647C66.9199 41.253 67.4115 41.7446 68.0175 41.7446C68.6241 41.7446 69.115 41.253 69.115 40.647V35.7694C69.115 35.1635 68.6241 34.6719 68.0175 34.6719C67.4115 34.6719 66.9199 35.1635 66.9199 35.7694Z" fill="#0A2C3B"/>
</svg>
