<svg width="30" height="30" viewBox="0 0 30 30" fill="none" xmlns="http://www.w3.org/2000/svg">
<path d="M15.5 10.875C13.5953 10.875 12.05 12.6755 12.05 14.9C12.05 17.1209 13.5953 18.925 15.5 18.925C17.4047 18.925 18.95 17.1245 18.95 14.9C18.95 12.6755 17.4047 10.875 15.5 10.875ZM15.5 17.775C14.2314 17.775 13.2 16.4848 13.2 14.9C13.2 13.3152 14.2314 12.025 15.5 12.025C16.7686 12.025 17.8 13.3152 17.8 14.9C17.8 16.4848 16.7686 17.775 15.5 17.775ZM25.85 8H5.15C4.51391 8 4 8.51391 4 9.15V20.65C4 21.2861 4.51391 21.8 5.15 21.8H25.85C26.4861 21.8 27 21.2861 27 20.65V9.15C27 8.51391 26.4861 8 25.85 8ZM5.15 9.15H7.45C7.45 10.4186 6.41859 11.45 5.15 11.45V9.15ZM5.15 20.65V18.35C6.41859 18.35 7.45 19.3814 7.45 20.65H5.15ZM25.85 20.65H23.55C23.55 19.3814 24.5814 18.35 25.85 18.35V20.65ZM25.85 17.2C23.9489 17.2 22.4 18.7489 22.4 20.65H8.6C8.6 18.7489 7.05109 17.2 5.15 17.2V12.6C7.05109 12.6 8.6 11.0511 8.6 9.15H22.4C22.4 11.0511 23.9489 12.6 25.85 12.6V17.2ZM25.85 11.45C24.5814 11.45 23.55 10.4186 23.55 9.15H25.85V11.45Z" fill="black"/>
</svg>
