<svg width="28" height="28" viewBox="0 0 28 28" fill="none" xmlns="http://www.w3.org/2000/svg">
<path d="M25.8359 24.575L19.7891 18.5281C19.6812 18.4203 19.5406 18.3641 19.3906 18.3641H18.9078C20.5156 16.625 21.5 14.3047 21.5 11.75C21.5 6.36406 17.1359 2 11.75 2C6.36406 2 2 6.36406 2 11.75C2 17.1359 6.36406 21.5 11.75 21.5C14.3047 21.5 16.625 20.5156 18.3641 18.9125V19.3906C18.3641 19.5406 18.425 19.6812 18.5281 19.7891L24.575 25.8359C24.7953 26.0562 25.1516 26.0562 25.3719 25.8359L25.8359 25.3719C26.0562 25.1516 26.0562 24.7953 25.8359 24.575ZM11.75 20C7.18906 20 3.5 16.3109 3.5 11.75C3.5 7.18906 7.18906 3.5 11.75 3.5C16.3109 3.5 20 7.18906 20 11.75C20 16.3109 16.3109 20 11.75 20Z" fill="#333333"/>
</svg>
