<svg width="32" height="32" viewBox="0 0 32 32" fill="none" xmlns="http://www.w3.org/2000/svg">
<path d="M21.7143 19.3229C20.4375 19.3229 19.2946 19.8824 18.5089 20.7686L14.2455 18.0965C14.6741 17.0492 14.6786 15.8675 14.2455 14.8201L18.5089 12.148C19.2946 13.0343 20.4375 13.5938 21.7143 13.5938C24.0804 13.5938 26 11.6691 26 9.29688C26 6.92464 24.0804 5 21.7143 5C19.3482 5 17.4286 6.92464 17.4286 9.29688C17.4286 9.87874 17.5446 10.4293 17.75 10.9351L13.4866 13.6072C12.7054 12.7209 11.5625 12.1615 10.2857 12.1615C7.91964 12.1615 6 14.0861 6 16.4583C6 18.8306 7.91964 20.7552 10.2857 20.7552C11.5625 20.7552 12.7054 20.1957 13.4911 19.3095L17.7545 21.9816C17.5446 22.4874 17.433 23.0379 17.433 23.6198C17.433 25.992 19.3527 27.9167 21.7188 27.9167C24.0848 27.9167 26.0045 25.992 26.0045 23.6198C26 21.2476 24.0804 19.3229 21.7143 19.3229ZM21.7143 6.43229C23.2902 6.43229 24.5714 7.71688 24.5714 9.29688C24.5714 10.8769 23.2902 12.1615 21.7143 12.1615C20.1384 12.1615 18.8571 10.8769 18.8571 9.29688C18.8571 7.71688 20.1384 6.43229 21.7143 6.43229ZM10.2857 19.3229C8.70982 19.3229 7.42857 18.0383 7.42857 16.4583C7.42857 14.8783 8.70982 13.5938 10.2857 13.5938C11.8616 13.5938 13.1429 14.8783 13.1429 16.4583C13.1429 18.0383 11.8616 19.3229 10.2857 19.3229ZM21.7143 26.4844C20.1384 26.4844 18.8571 25.1998 18.8571 23.6198C18.8571 22.0398 20.1384 20.7552 21.7143 20.7552C23.2902 20.7552 24.5714 22.0398 24.5714 23.6198C24.5714 25.1998 23.2902 26.4844 21.7143 26.4844Z" fill="black"/>
</svg>
