<svg width="28" height="28" viewBox="0 0 28 28" fill="none" xmlns="http://www.w3.org/2000/svg">
<path d="M5.54413 17.8929H16.6702C16.7416 17.8929 16.8124 17.8789 16.8785 17.8516C16.9445 17.8242 17.0045 17.7841 17.055 17.7336C17.1056 17.6831 17.1457 17.6231 17.173 17.557C17.2003 17.491 17.2143 17.4202 17.2143 17.3487V16.4013C17.2143 16.3298 17.2003 16.259 17.173 16.193C17.1457 16.1269 17.1056 16.0669 17.055 16.0164C17.0045 15.9659 16.9445 15.9258 16.8785 15.8984C16.8124 15.8711 16.7416 15.8571 16.6702 15.8571H5.54413C5.47266 15.8571 5.40188 15.8711 5.33583 15.8984C5.26979 15.9258 5.20979 15.9659 5.15925 16.0164C5.10871 16.0669 5.06863 16.1269 5.04131 16.193C5.01398 16.259 4.99994 16.3298 5 16.4013V17.3487C4.99994 17.4202 5.01398 17.491 5.04131 17.557C5.06863 17.6231 5.10871 17.6831 5.15925 17.7336C5.20979 17.7841 5.26979 17.8242 5.33583 17.8516C5.40188 17.8789 5.47266 17.8929 5.54413 17.8929ZM5.54413 7.03571H16.6702C16.7416 7.03577 16.8124 7.02173 16.8785 6.99441C16.9445 6.96708 17.0045 6.927 17.055 6.87647C17.1056 6.82593 17.1457 6.76592 17.173 6.69988C17.2003 6.63384 17.2143 6.56306 17.2143 6.49158V5.54413C17.2143 5.47266 17.2003 5.40188 17.173 5.33583C17.1457 5.26979 17.1056 5.20979 17.055 5.15925C17.0045 5.10871 16.9445 5.06863 16.8785 5.04131C16.8124 5.01398 16.7416 4.99994 16.6702 5H5.54413C5.47266 4.99994 5.40188 5.01398 5.33583 5.04131C5.26979 5.06863 5.20979 5.10871 5.15925 5.15925C5.10871 5.20979 5.06863 5.26979 5.04131 5.33583C5.01398 5.40188 4.99994 5.47266 5 5.54413V6.49158C4.99994 6.56306 5.01398 6.63384 5.04131 6.69988C5.06863 6.76592 5.10871 6.82593 5.15925 6.87647C5.20979 6.927 5.26979 6.96708 5.33583 6.99441C5.40188 7.02173 5.47266 7.03577 5.54413 7.03571ZM23.3214 10.4286H5.67857C5.4986 10.4286 5.32601 10.5001 5.19875 10.6273C5.07149 10.7546 5 10.9272 5 11.1071V11.7857C5 11.9657 5.07149 12.1383 5.19875 12.2655C5.32601 12.3928 5.4986 12.4643 5.67857 12.4643H23.3214C23.5014 12.4643 23.674 12.3928 23.8013 12.2655C23.9285 12.1383 24 11.9657 24 11.7857V11.1071C24 10.9272 23.9285 10.7546 23.8013 10.6273C23.674 10.5001 23.5014 10.4286 23.3214 10.4286ZM23.3214 21.2857H5.67857C5.4986 21.2857 5.32601 21.3572 5.19875 21.4845C5.07149 21.6117 5 21.7843 5 21.9643V22.6429C5 22.8228 5.07149 22.9954 5.19875 23.1227C5.32601 23.2499 5.4986 23.3214 5.67857 23.3214H23.3214C23.5014 23.3214 23.674 23.2499 23.8013 23.1227C23.9285 22.9954 24 22.8228 24 22.6429V21.9643C24 21.7843 23.9285 21.6117 23.8013 21.4845C23.674 21.3572 23.5014 21.2857 23.3214 21.2857Z" fill="black"/>
</svg>
