<svg width="50" height="50" viewBox="0 0 50 50" fill="none" xmlns="http://www.w3.org/2000/svg">
<path d="M25.375 6C14.6719 6 6 14.6719 6 25.375C6 36.0781 14.6719 44.75 25.375 44.75C36.0781 44.75 44.75 36.0781 44.75 25.375C44.75 14.6719 36.0781 6 25.375 6ZM42.25 25.375C42.25 34.6484 34.7422 42.25 25.375 42.25C16.1016 42.25 8.5 34.7422 8.5 25.375C8.5 16.1016 16.0078 8.5 25.375 8.5C34.6484 8.5 42.25 16.0078 42.25 25.375ZM30.6172 32.2734L24.2734 27.6641C24.0312 27.4844 23.8906 27.2031 23.8906 26.9062V14.4375C23.8906 13.9219 24.3125 13.5 24.8281 13.5H25.9219C26.4375 13.5 26.8594 13.9219 26.8594 14.4375V25.8672L32.3672 29.875C32.7891 30.1797 32.875 30.7656 32.5703 31.1875L31.9297 32.0703C31.625 32.4844 31.0391 32.5781 30.6172 32.2734Z" fill="#FF7F03"/>
</svg>
