<svg width="28" height="28" viewBox="0 0 28 28" fill="none" xmlns="http://www.w3.org/2000/svg">
<path d="M21.9441 10.0482C21.9568 10.2259 21.9568 10.4036 21.9568 10.5812C21.9568 16 17.8325 22.2436 10.2944 22.2436C7.97207 22.2436 5.81473 21.571 4 20.4036C4.32996 20.4416 4.64719 20.4543 4.98984 20.4543C6.90605 20.4543 8.67004 19.8071 10.0787 18.703C8.27664 18.665 6.76648 17.4848 6.24617 15.8604C6.5 15.8984 6.75379 15.9238 7.02031 15.9238C7.38832 15.9238 7.75637 15.873 8.09898 15.7843C6.22082 15.4035 4.81215 13.7538 4.81215 11.7614V11.7107C5.35781 12.0152 5.99238 12.2056 6.66492 12.2309C5.56086 11.4949 4.83754 10.2386 4.83754 8.81723C4.83754 8.05582 5.04055 7.35785 5.3959 6.74871C7.41367 9.23602 10.4467 10.8604 13.8477 11.038C13.7842 10.7335 13.7461 10.4163 13.7461 10.099C13.7461 7.84008 15.5736 6 17.8451 6C19.0253 6 20.0913 6.49492 20.84 7.29441C21.7664 7.11676 22.6547 6.7741 23.4416 6.30457C23.137 7.25637 22.4898 8.05586 21.6395 8.56344C22.4644 8.47465 23.2639 8.24617 23.9999 7.92895C23.4416 8.74109 22.7436 9.46441 21.9441 10.0482Z" fill="#8F8F8F"/>
</svg>
