<svg width="70" height="70" viewBox="0 0 70 70" fill="none" xmlns="http://www.w3.org/2000/svg">
<path d="M34.2969 26.7969C33.8563 26.3562 33.1437 26.3562 32.7031 26.7969L23.4875 36.0125C23.0469 36.4531 23.0469 37.1656 23.4875 37.6062L24.0219 38.1406C24.4625 38.5812 25.175 38.5812 25.6156 38.1406L32.0094 31.7469V45.875C32.0094 46.4938 32.5156 47 33.1344 47H33.8844C34.5031 47 35.0094 46.4938 35.0094 45.875V31.7469L41.4031 38.1406C41.8438 38.5812 42.5562 38.5812 42.9969 38.1406L43.5312 37.6062C43.9719 37.1656 43.9719 36.4531 43.5312 36.0125L34.2969 26.7969ZM58.5969 33.3875C58.8594 32.4594 59 31.4937 59 30.5C59 24.6969 54.3031 20 48.5 20C46.9344 20 45.4156 20.3375 44 21.0125C41.0375 16.7938 36.0969 14 30.5 14C21.65 14 14.4031 20.9844 14.0187 29.7687C8.675 31.6437 5 36.7156 5 42.5C5 49.9625 11.0375 56 18.5 56H53C59.6281 56 65 50.6375 65 44C65 39.5938 62.5813 35.4875 58.5969 33.3875ZM53 53H18.5C12.6969 53 8 48.3031 8 42.5C8 37.175 11.9563 32.7781 17.0938 32.0938C17.0281 31.5688 17 31.0344 17 30.5C17 23.0469 23.0469 17 30.5 17C36.1531 17 40.9906 20.4688 43.0062 25.4C44.375 23.9281 46.325 23 48.5 23C52.6437 23 56 26.3562 56 30.5C56 32.2344 55.4094 33.8375 54.4156 35.1125C58.7187 35.7875 62 39.5094 62 44C62 48.9688 57.9688 53 53 53Z" fill="black"/>
</svg>
