<svg width="40" height="40" viewBox="0 0 40 40" fill="none" xmlns="http://www.w3.org/2000/svg">
<path d="M20 5C11.7137 5 5 11.7137 5 20C5 28.2863 11.7137 35 20 35C28.2863 35 35 28.2863 35 20C35 11.7137 28.2863 5 20 5ZM31.6855 14.1935H26.6956C26.1512 11.5081 25.2379 9.22177 24.0827 7.59476C27.4093 8.69556 30.1431 11.0968 31.6855 14.1935ZM25.3226 20C25.3226 21.3851 25.2258 22.6734 25.0625 23.871H14.9375C14.7742 22.6734 14.6774 21.3851 14.6774 20C14.6774 18.6149 14.7742 17.3266 14.9375 16.129H25.0625C25.2258 17.3266 25.3226 18.6149 25.3226 20ZM20 6.93548C21.627 6.93548 23.7137 9.60282 24.7238 14.1935H15.2762C16.2863 9.60282 18.373 6.93548 20 6.93548ZM15.9173 7.59476C14.7681 9.21573 13.8488 11.502 13.3044 14.1935H8.31452C9.85685 11.0968 12.5907 8.69556 15.9173 7.59476ZM6.93548 20C6.93548 18.6512 7.14113 17.3508 7.52218 16.129H12.996C12.8387 17.369 12.7419 18.6573 12.7419 20C12.7419 21.3427 12.8327 22.631 12.996 23.871H7.52218C7.14113 22.6492 6.93548 21.3488 6.93548 20ZM8.31452 25.8065H13.3044C13.8488 28.4919 14.7621 30.7782 15.9173 32.4052C12.5907 31.3044 9.85685 28.9032 8.31452 25.8065ZM20 33.0645C18.373 33.0645 16.2863 30.3972 15.2762 25.8065H24.7238C23.7137 30.3972 21.627 33.0645 20 33.0645ZM24.0827 32.4052C25.2319 30.7843 26.1512 28.498 26.6956 25.8065H31.6855C30.1431 28.9032 27.4093 31.3044 24.0827 32.4052ZM27.004 23.871C27.1613 22.631 27.2581 21.3427 27.2581 20C27.2581 18.6573 27.1673 17.369 27.004 16.129H32.4778C32.8589 17.3508 33.0645 18.6512 33.0645 20C33.0645 21.3488 32.8589 22.6492 32.4778 23.871H27.004Z" fill="black"/>
</svg>
