<svg width="90" height="90" viewBox="0 0 90 90" fill="none" xmlns="http://www.w3.org/2000/svg">
<path d="M39.1297 21.7016L38.1102 27.557C38.0765 27.7509 38.0977 27.9503 38.1715 28.1327C38.2452 28.3152 38.3685 28.4733 38.5274 28.5894C38.6863 28.7054 38.8745 28.7747 39.0707 28.7893C39.2669 28.804 39.4633 28.7635 39.6377 28.6723L44.905 25.9194L50.159 28.6978C50.3329 28.7898 50.529 28.8312 50.7253 28.8175C50.9215 28.8039 51.11 28.7356 51.2695 28.6204C51.4289 28.5052 51.553 28.3477 51.6277 28.1657C51.7023 27.9837 51.7246 27.7844 51.6919 27.5904L50.7014 21.7302L54.9673 17.592C55.1085 17.455 55.2086 17.2811 55.2562 17.0902C55.3039 16.8993 55.2971 16.6988 55.2368 16.5115C55.1764 16.3242 55.0649 16.1575 54.9147 16.0303C54.7646 15.9031 54.5819 15.8204 54.3872 15.7916L48.5084 14.9222L45.891 9.58619C45.8043 9.40953 45.6699 9.26065 45.5031 9.15637C45.3362 9.05209 45.1435 8.99657 44.9467 8.99609H44.944C44.7477 8.9961 44.5552 9.05093 44.3883 9.15441C44.2214 9.25789 44.0867 9.40591 43.9994 9.5818L41.3564 14.9048L35.4724 15.7452C35.2776 15.773 35.0945 15.8548 34.9437 15.9813C34.7929 16.1078 34.6806 16.2739 34.6193 16.461C34.558 16.648 34.5503 16.8484 34.597 17.0396C34.6437 17.2308 34.743 17.405 34.8836 17.5428L39.1297 21.7016ZM42.2034 16.9147C42.3727 16.8905 42.5336 16.8255 42.6722 16.7253C42.8108 16.6251 42.923 16.4927 42.999 16.3395L44.9384 12.4338L46.8588 16.3483C46.9341 16.5018 47.0456 16.6347 47.1837 16.7356C47.3218 16.8364 47.4823 16.9022 47.6514 16.9272L51.9655 17.5645L48.8353 20.6022C48.7126 20.7213 48.6206 20.8684 48.5674 21.031C48.5142 21.1935 48.5013 21.3665 48.5298 21.5351L49.2567 25.8349L45.4016 23.7958C45.2504 23.7159 45.0821 23.6739 44.9111 23.6735C44.7401 23.6731 44.5716 23.7143 44.42 23.7935L40.5553 25.8133L41.3029 21.517C41.3322 21.3485 41.3201 21.1755 41.2676 21.0128C41.2152 20.8501 41.1239 20.7025 41.0018 20.5829L37.8866 17.5313L42.2034 16.9147Z" fill="#FF7F03"/>
<path d="M66.5319 25.5667L65.6367 30.7109C65.6029 30.9048 65.6241 31.1042 65.6978 31.2867C65.7715 31.4692 65.8948 31.6274 66.0537 31.7434C66.2127 31.8595 66.4009 31.9287 66.5971 31.9434C66.7934 31.9581 66.9898 31.9176 67.1642 31.8264L71.7918 29.4079L76.4075 31.8488C76.5814 31.9407 76.7776 31.9822 76.9738 31.9685C77.17 31.9548 77.3585 31.8865 77.518 31.7713C77.6775 31.6561 77.8015 31.4986 77.8762 31.3166C77.9509 31.1346 77.9731 30.9353 77.9405 30.7413L77.0704 25.593L80.818 21.9574C80.9593 21.8203 81.0593 21.6465 81.107 21.4556C81.1546 21.2647 81.1479 21.0642 81.0875 20.8769C81.0272 20.6896 80.9156 20.5229 80.7655 20.3957C80.6153 20.2685 80.4326 20.1858 80.2379 20.157L75.0728 19.3938L72.7734 14.7053C72.6867 14.5286 72.5523 14.3797 72.3854 14.2755C72.2185 14.1712 72.0257 14.1157 71.8289 14.1152H71.8264C71.6301 14.1152 71.4376 14.1701 71.2707 14.2735C71.1038 14.377 70.9691 14.525 70.8818 14.7009L68.5597 19.3767L63.3909 20.115C63.1961 20.1428 63.013 20.2246 62.8622 20.3511C62.7115 20.4775 62.5991 20.6436 62.5378 20.8306C62.4765 21.0176 62.4688 21.218 62.5154 21.4092C62.5621 21.6003 62.6613 21.7746 62.8018 21.9124L66.5319 25.5667ZM69.4066 21.3871C69.5759 21.3629 69.7368 21.298 69.8754 21.1978C70.014 21.0976 70.1262 20.9652 70.2022 20.812L71.8205 17.553L73.4231 20.8199C73.4984 20.9734 73.6099 21.1063 73.7479 21.2071C73.886 21.308 74.0465 21.3737 74.2157 21.3987L77.8153 21.9306L75.2036 24.4644C75.0808 24.5834 74.9889 24.7305 74.9357 24.893C74.8825 25.0555 74.8696 25.2285 74.898 25.3971L75.5045 28.9851L72.2877 27.2841C72.1366 27.204 71.9682 27.162 71.7972 27.1615C71.6262 27.1611 71.4577 27.2023 71.3061 27.2816L68.0813 28.967L68.7051 25.3811C68.7344 25.2126 68.7223 25.0396 68.6698 24.8768C68.6174 24.7141 68.5261 24.5666 68.404 24.447L65.8045 21.902L69.4066 21.3871Z" fill="#0A2C3B"/>
<path d="M12.7644 25.5667L11.8693 30.7109C11.8355 30.9048 11.8567 31.1043 11.9304 31.2868C12.0041 31.4693 12.1274 31.6275 12.2864 31.7435C12.4453 31.8596 12.6336 31.9289 12.8299 31.9435C13.0261 31.9582 13.2226 31.9176 13.397 31.8264L18.0244 29.4079L22.6406 31.8488C22.8145 31.9407 23.0107 31.9822 23.207 31.9686C23.4033 31.9549 23.5918 31.8866 23.7513 31.7714C23.9108 31.6562 24.0349 31.4987 24.1095 31.3167C24.1842 31.1346 24.2065 30.9353 24.1738 30.7413L23.3035 25.593L27.0512 21.9574C27.1924 21.8203 27.2925 21.6465 27.3401 21.4556C27.3877 21.2647 27.381 21.0642 27.3207 20.8769C27.2603 20.6896 27.1488 20.5229 26.9986 20.3957C26.8485 20.2685 26.6658 20.1858 26.4711 20.157L21.3047 19.3931L19.0057 14.7053C18.919 14.5287 18.7846 14.3798 18.6177 14.2755C18.4508 14.1712 18.2581 14.1157 18.0614 14.1152H18.0587C17.8623 14.1152 17.6699 14.1701 17.503 14.2735C17.3361 14.377 17.2014 14.525 17.1141 14.7009L14.792 19.3767L9.62315 20.115C9.42837 20.1429 9.24526 20.2246 9.09453 20.3511C8.9438 20.4776 8.83146 20.6437 8.77019 20.8307C8.70893 21.0177 8.7012 21.2181 8.74787 21.4092C8.79454 21.6004 8.89375 21.7746 9.03428 21.9124L12.7644 25.5667ZM15.6393 21.3871C15.8087 21.3631 15.9697 21.2982 16.1084 21.198C16.2472 21.0978 16.3594 20.9654 16.4356 20.8121L18.054 17.5532L19.6564 20.8201C19.7317 20.9736 19.8432 21.1065 19.9813 21.2073C20.1194 21.3082 20.28 21.3739 20.4492 21.3989L24.0488 21.9308L21.4371 24.4645C21.3143 24.5836 21.2224 24.7307 21.1691 24.8932C21.1159 25.0556 21.1029 25.2286 21.1314 25.3972L21.7378 28.9853L18.521 27.2842C18.3699 27.2042 18.2016 27.1622 18.0305 27.1617C17.8595 27.1613 17.691 27.2025 17.5395 27.2818L14.3139 28.967L14.9375 25.3811C14.9668 25.2126 14.9548 25.0396 14.9023 24.8769C14.8499 24.7141 14.7587 24.5666 14.6366 24.447L12.0372 21.902L15.6393 21.3871Z" fill="#0A2C3B"/>
<path d="M45.0001 32.8965C42.758 32.899 40.6085 33.7909 39.0231 35.3763C37.4377 36.9617 36.546 39.1112 36.5435 41.3533V46.288C36.5435 48.5309 37.4344 50.6819 39.0204 52.2678C40.6063 53.8537 42.7573 54.7447 45.0001 54.7447C47.243 54.7447 49.3939 53.8537 50.9799 52.2678C52.5658 50.6819 53.4568 48.5309 53.4568 46.288V41.3533C53.4543 39.1112 52.5625 36.9617 50.9771 35.3763C49.3917 33.7909 47.2422 32.899 45.0001 32.8965ZM51.3474 46.288C51.3474 47.9714 50.6787 49.5859 49.4883 50.7762C48.298 51.9666 46.6835 52.6353 45.0001 52.6353C43.3167 52.6353 41.7023 51.9666 40.5119 50.7762C39.3216 49.5859 38.6528 47.9714 38.6528 46.288V41.3533C38.6528 39.6699 39.3216 38.0555 40.5119 36.8651C41.7023 35.6748 43.3167 35.006 45.0001 35.006C46.6835 35.006 48.298 35.6748 49.4883 36.8651C50.6787 38.0555 51.3474 39.6699 51.3474 41.3533V46.288Z" fill="#0A2C3B"/>
<path d="M71.2442 37.0781C69.1805 37.0805 67.2021 37.9013 65.7428 39.3605C64.2836 40.8197 63.4628 42.7982 63.4604 44.8619V49.3478C63.4604 51.4122 64.2805 53.392 65.7403 54.8518C67.2 56.3115 69.1798 57.1316 71.2442 57.1316C73.3086 57.1316 75.2884 56.3115 76.7482 54.8518C78.2079 53.392 79.028 51.4122 79.028 49.3478V44.8619C79.0257 42.7982 78.2048 40.8197 76.7456 39.3605C75.2864 37.9013 73.3079 37.0805 71.2442 37.0781ZM76.9186 49.3477C76.9186 50.8526 76.3208 52.2959 75.2566 53.3601C74.1925 54.4242 72.7492 55.022 71.2442 55.022C69.7393 55.022 68.296 54.4242 67.2318 53.3601C66.1677 52.2959 65.5698 50.8526 65.5698 49.3477V44.8617C65.5698 43.3568 66.1677 41.9135 67.2318 40.8493C68.296 39.7852 69.7393 39.1873 71.2442 39.1873C72.7492 39.1873 74.1925 39.7852 75.2566 40.8493C76.3208 41.9135 76.9186 43.3568 76.9186 44.8617V49.3477Z" fill="#0A2C3B"/>
<path d="M80.2158 58.7081H77.38C77.1259 58.7078 76.8823 58.6068 76.7027 58.4272C76.523 58.2475 76.4219 58.004 76.4216 57.7499C76.4215 57.5016 76.3338 57.2612 76.174 57.0712C76.0141 56.8812 75.7923 56.7537 75.5477 56.7111C75.303 56.6686 75.0512 56.7137 74.8365 56.8386C74.6219 56.9634 74.4582 57.1601 74.3743 57.3938L73.2465 60.536C73.0987 60.9477 72.8269 61.3033 72.4684 61.5538C72.1099 61.8043 71.6825 61.9373 71.2452 61.9345C70.8078 61.9317 70.3822 61.7931 70.0269 61.538C69.6717 61.283 69.4044 60.9239 69.262 60.5104L68.1836 57.3815C68.1253 57.2124 68.025 57.0609 67.892 56.9412C67.7591 56.8216 67.5979 56.7377 67.4236 56.6975C67.2493 56.6573 67.0676 56.6621 66.8957 56.7114C66.7238 56.7608 66.5672 56.853 66.4407 56.9795L66.4153 57.0048C66.2175 57.2025 66.1064 57.4708 66.1064 57.7504C66.1061 58.0045 66.005 58.248 65.8253 58.4277C65.6457 58.6073 65.4021 58.7083 65.148 58.7086H62.2714C61.8161 58.7087 61.3614 58.7434 60.9114 58.8123C59.198 57.4371 57.0664 56.6883 54.8694 56.6898H51.75C51.4423 56.6898 51.1472 56.5675 50.9296 56.35C50.7121 56.1324 50.5898 55.8373 50.5898 55.5296C50.5898 55.2813 50.5021 55.0409 50.3422 54.8509C50.1824 54.6609 49.9606 54.5334 49.7159 54.4908C49.4712 54.4483 49.2194 54.4934 49.0048 54.6183C48.7901 54.7432 48.6264 54.9398 48.5425 55.1735L47.3027 58.6302C47.1328 59.1035 46.8202 59.5124 46.408 59.8005C45.9957 60.0885 45.5043 60.2415 45.0014 60.2383C44.4985 60.235 44.009 60.0758 43.6005 59.7825C43.192 59.4892 42.8846 59.0763 42.7208 58.6009L41.5345 55.1582C41.4761 54.989 41.3757 54.8374 41.2426 54.7178C41.1096 54.5981 40.9482 54.5142 40.7738 54.4741C40.5994 54.434 40.4177 54.4389 40.2457 54.4884C40.0737 54.5379 39.9171 54.6304 39.7907 54.7571L39.7628 54.785C39.5656 54.9827 39.4548 55.2505 39.4548 55.5298C39.4548 55.8375 39.3326 56.1326 39.115 56.3501C38.8974 56.5677 38.6023 56.6899 38.2946 56.6899H35.1306C32.9331 56.6884 30.8011 57.4375 29.0876 58.8132C28.6379 58.7439 28.1836 58.709 27.7286 58.7086H24.8927C24.6387 58.7083 24.3951 58.6073 24.2154 58.4277C24.0358 58.248 23.9347 58.0045 23.9344 57.7504C23.9343 57.5021 23.8466 57.2618 23.6867 57.0717C23.5269 56.8817 23.3051 56.7542 23.0604 56.7116C22.8158 56.6691 22.564 56.7142 22.3493 56.8391C22.1347 56.964 21.971 57.1606 21.8871 57.3943L20.7598 60.536C20.612 60.9476 20.3401 61.3032 19.9816 61.5537C19.6231 61.8042 19.1957 61.9372 18.7584 61.9344C18.3211 61.9316 17.8954 61.793 17.5402 61.538C17.1849 61.2829 16.9176 60.9239 16.7752 60.5104L15.6967 57.3815C15.6384 57.2123 15.5381 57.0608 15.4051 56.9411C15.2721 56.8214 15.1108 56.7376 14.9365 56.6974C14.7622 56.6572 14.5805 56.662 14.4085 56.7114C14.2365 56.7608 14.08 56.8531 13.9535 56.9796L13.9282 57.0049C13.7306 57.2027 13.6195 57.4708 13.6195 57.7504C13.6193 58.0045 13.5182 58.248 13.3386 58.4277C13.1589 58.6073 12.9154 58.7083 12.6613 58.7086H9.78434C7.42339 58.7113 5.1599 59.6504 3.49041 61.3198C1.82092 62.9891 0.881744 65.2526 0.878906 67.6135V79.9502C0.878906 80.2299 0.990025 80.4982 1.18782 80.696C1.38561 80.8938 1.65387 81.0049 1.93359 81.0049H88.0664C88.3461 81.0049 88.6144 80.8938 88.8122 80.696C89.01 80.4982 89.1211 80.2299 89.1211 79.9502V67.6135C89.1184 65.2525 88.1794 62.9889 86.5099 61.3194C84.8404 59.6499 82.5769 58.7108 80.2158 58.7081ZM25.4403 66.3799V78.8955H2.98828V67.6135C2.99033 65.8117 3.707 64.0843 4.98106 62.8102C6.25512 61.5362 7.98254 60.8195 9.78434 60.8175H12.661C13.3034 60.8184 13.9297 60.6165 14.4506 60.2406L14.7806 61.1984C15.0654 62.0248 15.5997 62.7423 16.3098 63.2521C17.0199 63.7618 17.8706 64.0385 18.7447 64.0441C19.6188 64.0496 20.473 63.7837 21.1895 63.2831C21.906 62.7824 22.4494 62.0717 22.7447 61.249L23.1059 60.2427C23.5988 60.5976 24.1863 60.7974 24.7934 60.8166C24.8126 60.8166 24.8321 60.818 24.8516 60.818H27.2025C26.0544 62.4453 25.4387 64.3884 25.4403 66.3799ZM62.4503 78.8955H27.5497V66.3799C27.552 64.37 28.3514 62.4432 29.7726 61.022C31.1938 59.6008 33.1207 58.8014 35.1306 58.7991H38.2946C39.0283 58.8 39.7406 58.5529 40.3161 58.098L40.7262 59.2885C41.0324 60.1769 41.6068 60.9484 42.3701 61.4964C43.1334 62.0444 44.0481 62.342 44.9877 62.348C45.9274 62.3539 46.8457 62.0681 47.616 61.5298C48.3862 60.9916 48.9704 60.2275 49.2878 59.343L49.7334 58.1013C50.2799 58.5319 50.9501 58.7759 51.6456 58.7974C51.6653 58.7986 51.6851 58.7991 51.705 58.7991H54.8691C56.879 58.8014 58.8059 59.6009 60.2271 61.0221C61.6483 62.4434 62.4477 64.3703 62.45 66.3802L62.4503 78.8955ZM87.0117 78.8955H64.5597V66.3799C64.5613 64.3881 63.9455 62.4448 62.7971 60.8175H65.148C65.7904 60.8183 66.4166 60.6164 66.9375 60.2406L67.2674 61.1984C67.5523 62.0248 68.0866 62.7423 68.7967 63.2521C69.5067 63.7618 70.3575 64.0385 71.2316 64.0441C72.1056 64.0496 72.9599 63.7837 73.6764 63.2831C74.3928 62.7824 74.9362 62.0717 75.2316 61.249L75.5928 60.2427C76.0857 60.5976 76.6732 60.7974 77.2803 60.8166C77.2995 60.8166 77.319 60.818 77.3383 60.818H80.2151C82.0169 60.8199 83.7444 61.5364 85.0186 62.8104C86.2927 64.0844 87.0095 65.8117 87.0117 67.6135V78.8955Z" fill="#0A2C3B"/>
<path d="M10.9727 44.8619V49.3478C10.9727 50.37 11.174 51.3822 11.5652 52.3266C11.9563 53.2709 12.5297 54.129 13.2525 54.8518C13.9753 55.5746 14.8333 56.1479 15.7777 56.5391C16.7221 56.9303 17.7342 57.1316 18.7564 57.1316C19.7786 57.1316 20.7908 56.9303 21.7351 56.5391C22.6795 56.1479 23.5376 55.5746 24.2604 54.8518C24.9832 54.129 25.5565 53.2709 25.9477 52.3266C26.3389 51.3822 26.5402 50.37 26.5402 49.3478V44.8619C26.5402 42.7975 25.7201 40.8177 24.2604 39.3579C22.8006 37.8982 20.8208 37.0781 18.7564 37.0781C16.692 37.0781 14.7122 37.8982 13.2525 39.3579C11.7927 40.8177 10.9727 42.7975 10.9727 44.8619ZM24.4308 44.8619V49.3478C24.4308 50.8528 23.833 52.2961 22.7688 53.3602C21.7047 54.4244 20.2614 55.0222 18.7564 55.0222C17.2515 55.0222 15.8082 54.4244 14.744 53.3602C13.6799 52.2961 13.082 50.8528 13.082 49.3478V44.8619C13.082 43.3569 13.6799 41.9136 14.744 40.8495C15.8082 39.7853 17.2515 39.1875 18.7564 39.1875C20.2614 39.1875 21.7047 39.7853 22.7688 40.8495C23.833 41.9136 24.4308 43.3569 24.4308 44.8619Z" fill="#0A2C3B"/>
</svg>
