<svg width="40" height="40" viewBox="0 0 40 40" fill="none" xmlns="http://www.w3.org/2000/svg">
<circle cx="20" cy="20" r="19.5" fill="white" stroke="#E7E7E7"/>
<path d="M28.6969 12.3704C26.2133 10.3098 22.3762 10.6193 20 13.0064C17.6238 10.6193 13.7867 10.3056 11.3031 12.3704C8.07188 15.0543 8.54454 19.4299 10.8477 21.7491L18.3844 29.3259C18.8141 29.7583 19.3898 30 20 30C20.6144 30 21.1859 29.7626 21.6156 29.3301L29.1523 21.7534C31.4512 19.4341 31.9324 15.0585 28.6969 12.3704ZM27.6828 20.3203L20.1461 27.897C20.043 27.9988 19.957 27.9988 19.8539 27.897L12.3172 20.3203C10.7488 18.743 10.4309 15.7581 12.6309 13.9307C14.3023 12.5443 16.8805 12.752 18.4961 14.3759L20 15.8896L21.5039 14.3759C23.1281 12.7435 25.7062 12.5443 27.3691 13.9265C29.5648 15.7539 29.2383 18.7557 27.6828 20.3203Z" fill="#333333"/>
</svg>
